<svg xmlns="http://www.w3.org/2000/svg" width="486" height="293" viewBox="0 0 486 293">
  <g id="Grupo_69501" data-name="Grupo 69501" transform="translate(-555 -1407)">
    <rect id="Rect치ngulo_10372" data-name="Rect치ngulo 10372" width="486" height="293" rx="22" transform="translate(555 1407)" fill="#f6dcbe"/>
    <g id="Grupo_69448" data-name="Grupo 69448" transform="translate(661.623 1469.369)">
      <g id="Grupo_69447" data-name="Grupo 69447" transform="translate(-1.531 -6.021)">
        <path id="Trazado_156229" data-name="Trazado 156229" d="M283.07,73.341c-17.151-37.228-36.395-50.16-52.168-54.308-24.4-6.417-33.838,10.415-72.163,10.415-42.661,0-55.8-19.544-81.09-10.691-12.9,4.515-29.143,16.687-41.817,51.4,12.4,15.178,37.89,41.532,75.543,50.8,21.669,5.332,45.09,4.4,52.872,4.15a212.017,212.017,0,0,0,37.936-4.64c37.071-8.513,64.711-30.988,80.888-47.122" transform="translate(-18.224 -8.37)" fill="#9f1d2e"/>
        <path id="Trazado_156230" data-name="Trazado 156230" d="M175.958,153.981s42.653-43.314,99.855,3.307c0,0-57.863,26.121-99.855-3.307" transform="translate(-89.495 -69.006)" fill="#dd3d59"/>
        <path id="Trazado_156231" data-name="Trazado 156231" d="M97.686,19.259c12.973-6.862,25.956-5.512,31.742-4.96,31.832,3.039,54.1,5.165,77.04,2.645a326.415,326.415,0,0,1,48.109-1.24,47.774,47.774,0,0,1,10.415,1.736c8.167,2.316,15.466,11.036,16.538,14.441-3.382,7.031-6.95,11.391-12.074,17.8-3.967,4.96-29.257,11.234-57.036,11.234-6.447,0-17.513-.379-23.31-.157-8.135.312-61.316,1.141-82.826-9.093-5.522-2.627-14.492-8.423-20-23.851a46.45,46.45,0,0,1,11.407-8.552" transform="translate(-43.883 -7.025)" fill="#fff5f0"/>
        <path id="Trazado_156232" data-name="Trazado 156232" d="M258.216,158.482A23.355,23.355,0,0,1,270,158.234a21.039,21.039,0,0,1,4.726,1.835c4.881,2.242,9.422,6.842,11.794,8.7-8.575,8.055-23.774,17.227-44.084,23.8-14.807,4.793-26.592,5.113-45.3,5.621-19.193.521-34.1.926-52.738-4.133a135.612,135.612,0,0,1-45.912-22.644c1.636-2.885,4.458-5.444,9.125-8.749a34.759,34.759,0,0,1,7.594-3.889c12.6-4.43,49.648,5.187,76.613,5.668,19.542.348,57.666-3.677,66.4-5.961" transform="translate(-50.092 -80.15)" fill="#fff5f0"/>
        <path id="Trazado_156233" data-name="Trazado 156233" d="M491.539,0a52.9,52.9,0,0,1,7.114,4.4,77.471,77.471,0,0,1,6.5,5.3,74.673,74.673,0,0,1,11.1,12.655c.814,1.151,1.553,2.354,2.306,3.547.707,1.222,1.428,2.434,2.061,3.7l.487.94c.159.315.3.638.455.957.3.639.6,1.278.882,1.925.537,1.307,1.086,2.606,1.525,3.949a47.992,47.992,0,0,1,2.784,16.518,84.334,84.334,0,0,0-5.227-15.548c-.533-1.245-1.164-2.446-1.749-3.664l-.955-1.79c-.16-.3-.311-.6-.478-.894l-.51-.878c-1.328-2.354-2.785-4.636-4.329-6.859a118.212,118.212,0,0,0-10.2-12.7c-1.846-2.009-3.736-3.994-5.707-5.906-1.949-1.94-3.978-3.8-6.062-5.648" transform="translate(-250.004)" fill="#dc9b7d"/>
        <path id="Trazado_156234" data-name="Trazado 156234" d="M31.742,13.812a40.074,40.074,0,0,0-5.04,3.114c-1.6,1.111-3.113,2.342-4.591,3.589a81.947,81.947,0,0,0-8.185,8.2L12.038,30.92c-.615.748-1.189,1.533-1.8,2.291l-.91,1.141c-.306.379-.571.788-.862,1.179-.566.794-1.145,1.581-1.731,2.366l-.44.589-.409.61-.825,1.22q-.831,1.219-1.7,2.427C2.288,44.4,1.211,46.067,0,47.694c.269-.968.58-1.922.9-2.877s.652-1.907,1.015-2.848c.4-.919.817-1.837,1.244-2.751l.647-1.369.328-.684.372-.658c.5-.879,1-1.755,1.519-2.625.263-.432.5-.884.792-1.3l.866-1.25c.584-.829,1.165-1.662,1.773-2.475l1.952-2.346a46.369,46.369,0,0,1,9.129-8.1A34.755,34.755,0,0,1,25.907,15.5c.468-.2.931-.408,1.417-.569s.95-.358,1.447-.485a16.052,16.052,0,0,1,2.971-.631" transform="translate(0 -7.025)" fill="#dc9b7d"/>
        <path id="Trazado_156235" data-name="Trazado 156235" d="M156.444,255.305c5.37,1.884,10.8,3.513,16.283,4.948,2.739.716,5.481,1.413,8.243,2.016,1.38.306,2.756.622,4.141.9l2.073.434,2.081.392c5.553,1.018,11.123,1.911,16.726,2.5s11.22.942,16.84,1.028a147.021,147.021,0,0,0,16.828-.651l2.1-.205c.7-.069,1.4-.127,2.092-.239l4.17-.583c.7-.081,1.384-.232,2.075-.355l2.071-.383,2.075-.371,2.052-.471,2.054-.474,1.027-.237.514-.118.506-.145c1.351-.386,2.7-.778,4.059-1.148l1.018-.281,1-.335,2-.673c1.333-.455,2.684-.869,3.981-1.422l3.945-1.543c1.3-.551,2.566-1.179,3.864-1.748l1.939-.874c.633-.317,1.254-.658,1.883-.984l3.794-1.952c-1.17.806-2.358,1.592-3.541,2.391-.6.392-1.187.793-1.791,1.174l-1.855,1.068c-1.239.708-2.476,1.431-3.741,2.1l-3.859,1.883c-1.278.656-2.621,1.155-3.944,1.706l-1.992.815-1,.405-1.017.352c-1.354.475-2.716.927-4.078,1.386l-.511.172-.518.145-1.037.29-2.075.58-2.078.579-2.1.477-2.106.465c-.7.148-1.4.326-2.112.432l-4.252.721c-.708.131-1.423.208-2.136.3l-2.14.26-2.141.256-2.149.163-2.15.161c-.716.054-1.433.116-2.151.13l-4.307.137c-1.436.024-2.872,0-4.308-.007a156.309,156.309,0,0,1-17.162-1.236c-5.679-.777-11.329-1.755-16.893-3.09l-2.087-.493-2.077-.534-2.075-.539-2.061-.591c-2.746-.788-5.469-1.654-8.174-2.565-2.692-.951-5.378-1.912-8.016-3s-5.258-2.211-7.793-3.509" transform="translate(-79.57 -128.338)" fill="#dc9b7d"/>
      </g>
    </g>
    <path id="Rect치ngulo_10373" data-name="Rect치ngulo 10373" d="M0,0H486a0,0,0,0,1,0,0V24a22,22,0,0,1-22,22H21A21,21,0,0,1,0,25V0A0,0,0,0,1,0,0Z" transform="translate(555 1654)" fill="#d44f4a"/>
    <path id="Trazado_160912" data-name="Trazado 160912" d="M1.514-7.227a18.734,18.734,0,0,1,.745-5.322,14.045,14.045,0,0,1,2.2-4.474,8.2,8.2,0,0,1,3.149-2.7l.684,1.9a8.5,8.5,0,0,0-2.783,4.077A18.878,18.878,0,0,0,4.5-7.3v.378a19.239,19.239,0,0,0,.989,6.47,8.662,8.662,0,0,0,2.8,4.138L7.6,5.554A8.208,8.208,0,0,1,4.51,2.924,13.81,13.81,0,0,1,2.319-1.428,18.622,18.622,0,0,1,1.514-6.58Zm25.11,3.564H20.2L18.982,0H15.088L21.7-17.773H25.1L31.75,0H27.856ZM21.191-6.628h4.443L23.4-13.281Zm25.073.439H39.392V-9.033h6.873ZM66.248-7.727H59.216v4.785h8.252V0H55.554V-17.773h11.89v2.966H59.216v4.236h7.031ZM82.471-6.189H75.6V-9.033h6.873ZM95.654,0H91.992V-17.773h3.662Zm15.466-6.946a17.777,17.777,0,0,1-.793,5.31,14.414,14.414,0,0,1-2.283,4.5,8.224,8.224,0,0,1-3.186,2.686l-.684-1.868a8.584,8.584,0,0,0,2.734-4.028A18.654,18.654,0,0,0,107.947-6.6v-.647a19.076,19.076,0,0,0-.995-6.433,8.948,8.948,0,0,0-2.777-4.175l.684-1.868a8.227,8.227,0,0,1,3.131,2.612,14.228,14.228,0,0,1,2.283,4.407,17.65,17.65,0,0,1,.848,5.212Z" transform="translate(742 1686)" fill="#fff"/>
  </g>
</svg>
