<svg xmlns="http://www.w3.org/2000/svg" width="486" height="293" viewBox="0 0 486 293">
  <g id="Grupo_69502" data-name="Grupo 69502" transform="translate(-2268 9557)">
    <rect id="Rect치ngulo_10375" data-name="Rect치ngulo 10375" width="486" height="293" rx="22" transform="translate(2268 -9557)" fill="#f6dcbe"/>
    <path id="Rect치ngulo_10376" data-name="Rect치ngulo 10376" d="M0,0H486a0,0,0,0,1,0,0V24a22,22,0,0,1-22,22H21A21,21,0,0,1,0,25V0A0,0,0,0,1,0,0Z" transform="translate(2268 -9310)" fill="#d44f4a"/>
    <path id="Trazado_160913" data-name="Trazado 160913" d="M1.514-7.227a18.734,18.734,0,0,1,.745-5.322,14.045,14.045,0,0,1,2.2-4.474,8.2,8.2,0,0,1,3.149-2.7l.684,1.9a8.5,8.5,0,0,0-2.783,4.077A18.878,18.878,0,0,0,4.5-7.3v.378a19.239,19.239,0,0,0,.989,6.47,8.662,8.662,0,0,0,2.8,4.138L7.6,5.554A8.208,8.208,0,0,1,4.51,2.924,13.81,13.81,0,0,1,2.319-1.428,18.622,18.622,0,0,1,1.514-6.58Zm26.66-.122a9,9,0,0,1-1.526,5.64A5.326,5.326,0,0,1,22.18.244a5.363,5.363,0,0,1-4.443-1.917,8.74,8.74,0,0,1-1.575-5.493v-3.271a8.886,8.886,0,0,1,1.544-5.652,5.366,5.366,0,0,1,4.449-1.929,5.371,5.371,0,0,1,4.443,1.91,8.713,8.713,0,0,1,1.575,5.487Zm-3.528-3.6a6.508,6.508,0,0,0-.6-3.22,2.042,2.042,0,0,0-1.886-1.008,2.006,2.006,0,0,0-1.837.959,6.091,6.091,0,0,0-.629,3v4.325a6.832,6.832,0,0,0,.592,3.232A2.015,2.015,0,0,0,22.18-2.6a1.981,1.981,0,0,0,1.868-1.014,6.669,6.669,0,0,0,.6-3.1Zm18.359,4a17.777,17.777,0,0,1-.793,5.31,14.414,14.414,0,0,1-2.283,4.5,8.224,8.224,0,0,1-3.186,2.686L36.06,3.687A8.584,8.584,0,0,0,38.794-.342,18.654,18.654,0,0,0,39.832-6.6v-.647a19.076,19.076,0,0,0-.995-6.433,8.948,8.948,0,0,0-2.777-4.175l.684-1.868a8.227,8.227,0,0,1,3.131,2.612,14.228,14.228,0,0,1,2.283,4.407A17.65,17.65,0,0,1,43.005-7.5Z" transform="translate(2489 -9278)" fill="#fff"/>
    <g id="Grupo_69449" data-name="Grupo 69449" transform="translate(-2.972 -527)">
      <path id="Trazado_156306" data-name="Trazado 156306" d="M899.165,42.263c-7.74,0-34.809-.642-38.078,42.821-.619,8.234,3.1,28.756,3.1,40.593s-5.323,48.026.31,60.481c6.914,15.289,19.193,22.933,37.458,22.933s37.413-13.383,37.459-33.043c.053-22.933-3.483-43.708-3.174-50.371.294-6.322,3.533-30.372,1.985-42.578s-3.249-40.836-39.056-40.836" transform="translate(1613.548 -9035.457)" fill="#9f1d2e"/>
      <path id="Trazado_156307" data-name="Trazado 156307" d="M939.785,69.308a39.831,39.831,0,0,0-6.268-17.547c-9.087-13.246-23.924-13.294-30.75-13.316-7.079-.023-18.233-.059-27.036,9.863-6.305,7.108-8.34,15.872-9.064,20.122,10.5,5.851,40.61,19.089,73.119.877" transform="translate(1610.256 -9033.231)" fill="#fff5f0"/>
      <path id="Trazado_156308" data-name="Trazado 156308" d="M874,379.679c.591,1.252,11.363,23.145,33.042,24.094,21.147.925,33.153-18.935,33.959-20.318-28.391-27.454-55.722-12.379-67-3.776" transform="translate(1605.984 -9225.145)" fill="#dd3d59"/>
      <path id="Trazado_156309" data-name="Trazado 156309" d="M838.1,190.917a22.481,22.481,0,0,1,1,2.635c.285.9.536,1.8.755,2.719s.4,1.836.587,2.761.3,1.855.444,2.787a76.48,76.48,0,0,1,.61,11.245l-.082,2.812-.2,2.8c-.075.934-.145,1.867-.274,2.8-.109.93-.232,1.857-.36,2.784-.272,1.851-.634,3.688-1.011,5.518q-.317,1.367-.686,2.724c-.245.9-.5,1.805-.787,2.7-.1-1.89-.085-3.753-.06-5.611-.015-1.861.052-3.708.084-5.553.006-1.847.112-3.684.12-5.522l.073-2.754.043-2.751c.057-3.666.108-7.328.075-11l-.034-2.756c-.031-.917-.023-1.843-.063-2.762-.042-1.849-.111-3.7-.237-5.575" transform="translate(1626.95 -9122.094)" fill="#dc9b7d"/>
      <path id="Trazado_156310" data-name="Trazado 156310" d="M1065.676,198.912c.5,3.414.805,6.788,1.07,10.161s.458,6.733.622,10.1.294,6.724.386,10.1c.058,3.381.174,6.756.015,10.216-.292-.809-.544-1.629-.79-2.451-.128-.41-.24-.824-.358-1.236l-.308-1.246c-.2-.832-.386-1.668-.562-2.505s-.312-1.68-.454-2.524a87.38,87.38,0,0,1-1.064-10.189,93.6,93.6,0,0,1,.052-10.241,61.17,61.17,0,0,1,1.39-10.179" transform="translate(1495.179 -9126.754)" fill="#dc9b7d"/>
      <path id="Trazado_156311" data-name="Trazado 156311" d="M920.991,5.723a17.182,17.182,0,0,1,3.282-2.4A25.022,25.022,0,0,1,935.913.011,21.473,21.473,0,0,1,944,1.283c.161.058.324.112.484.175l.473.208c.314.14.63.269.937.424a19.165,19.165,0,0,1,1.785,1.019,15.994,15.994,0,0,1,3.143,2.615,48.763,48.763,0,0,0-7.444-1.961A37.1,37.1,0,0,0,936,3.267a50.961,50.961,0,0,0-7.427.793c-2.5.434-4.987,1.009-7.583,1.663" transform="translate(1578.595 -9010.826)" fill="#dc9b7d"/>
      <path id="Trazado_156312" data-name="Trazado 156312" d="M900.923,461.391c.462.305.921.606,1.389.893s.927.579,1.395.859c.941.551,1.877,1.1,2.827,1.607a60.767,60.767,0,0,0,5.775,2.779,37.466,37.466,0,0,0,12.034,3.022,25.675,25.675,0,0,0,11.973-2.029,41.364,41.364,0,0,0,10.654-7.131c-.615.931-1.227,1.886-1.929,2.766a26.6,26.6,0,0,1-2.252,2.528c-.407.393-.809.8-1.229,1.179l-1.328,1.069c-.226.172-.438.37-.678.521l-.715.469-.718.47a6.356,6.356,0,0,1-.736.439l-1.524.8c-.512.258-1.057.442-1.586.666-.267.1-.532.221-.8.315l-.825.245a16.717,16.717,0,0,1-1.665.443,23.526,23.526,0,0,1-6.836.506,30.835,30.835,0,0,1-12.88-3.96,38.367,38.367,0,0,1-5.565-3.753,32.087,32.087,0,0,1-4.778-4.7" transform="translate(1590.291 -9279.729)" fill="#dc9b7d"/>
    </g>
  </g>
</svg>
