<svg xmlns="http://www.w3.org/2000/svg" width="486" height="293" viewBox="0 0 486 293">
  <g id="Grupo_69503" data-name="Grupo 69503" transform="translate(-2268 9172)">
    <rect id="Rect치ngulo_10377" data-name="Rect치ngulo 10377" width="486" height="293" rx="22" transform="translate(2268 -9172)" fill="#f6dcbe"/>
    <path id="Rect치ngulo_10378" data-name="Rect치ngulo 10378" d="M0,0H486a0,0,0,0,1,0,0V24a22,22,0,0,1-22,22H21A21,21,0,0,1,0,25V0A0,0,0,0,1,0,0Z" transform="translate(2268 -8925)" fill="#d44f4a"/>
    <path id="Trazado_160914" data-name="Trazado 160914" d="M1.514-7.227a18.734,18.734,0,0,1,.745-5.322,14.045,14.045,0,0,1,2.2-4.474,8.2,8.2,0,0,1,3.149-2.7l.684,1.9a8.5,8.5,0,0,0-2.783,4.077A18.878,18.878,0,0,0,4.5-7.3v.378a19.239,19.239,0,0,0,.989,6.47,8.662,8.662,0,0,0,2.8,4.138L7.6,5.554A8.208,8.208,0,0,1,4.51,2.924,13.81,13.81,0,0,1,2.319-1.428,18.622,18.622,0,0,1,1.514-6.58ZM30.542-5.92A6.289,6.289,0,0,1,28.424-1.4,7.438,7.438,0,0,1,23.389.244a6.688,6.688,0,0,1-5.377-2.3,9.435,9.435,0,0,1-1.959-6.317V-9.46a10.654,10.654,0,0,1,.9-4.517,6.769,6.769,0,0,1,2.582-3,7.232,7.232,0,0,1,3.9-1.044,7.246,7.246,0,0,1,4.956,1.648,6.759,6.759,0,0,1,2.173,4.626H26.9a3.712,3.712,0,0,0-.958-2.5,3.548,3.548,0,0,0-2.509-.775A3.112,3.112,0,0,0,20.7-13.7a7.354,7.354,0,0,0-.934,4.071v1.343a7.871,7.871,0,0,0,.873,4.211,3.054,3.054,0,0,0,2.753,1.331,3.615,3.615,0,0,0,2.533-.775,3.5,3.5,0,0,0,.958-2.4ZM45.8-6.189H38.928V-9.033H45.8ZM55.09,0V-17.773h5.469a8.3,8.3,0,0,1,4.193,1.056,7.363,7.363,0,0,1,2.887,3A9.262,9.262,0,0,1,68.677-9.29v.818a9.288,9.288,0,0,1-1.019,4.407,7.3,7.3,0,0,1-2.875,2.991A8.368,8.368,0,0,1,60.6,0Zm3.662-14.807V-2.942h1.77a3.977,3.977,0,0,0,3.284-1.4,6.344,6.344,0,0,0,1.16-4.016V-9.3a6.444,6.444,0,0,0-1.123-4.108,3.963,3.963,0,0,0-3.284-1.4ZM84.192-6.189H77.319V-9.033h6.873Zm23.352,3.943a6.356,6.356,0,0,1-2.8,1.837,11.707,11.707,0,0,1-4,.653A7.932,7.932,0,0,1,96.7-.763a6.717,6.717,0,0,1-2.686-2.924,10.29,10.29,0,0,1-.97-4.5V-9.4a10.928,10.928,0,0,1,.9-4.608,6.637,6.637,0,0,1,2.588-2.979,7.454,7.454,0,0,1,3.961-1.031,7.424,7.424,0,0,1,4.944,1.508,6.443,6.443,0,0,1,2.112,4.388h-3.564a3.544,3.544,0,0,0-1.08-2.234,3.45,3.45,0,0,0-2.3-.708,3.247,3.247,0,0,0-2.844,1.4,7.382,7.382,0,0,0-.989,4.175V-8.35a7.027,7.027,0,0,0,1.062,4.224A3.637,3.637,0,0,0,100.94-2.7a4.062,4.062,0,0,0,2.942-.879V-6.641h-3.333v-2.7h6.995Zm15.82-3.943h-6.873V-9.033h6.873Zm14.856-.94-1.9,2.051V0h-3.662V-17.773h3.662v8.057l1.611-2.209,4.529-5.847h4.5l-6.311,7.9L147.144,0h-4.358Zm23.157.94H154.5V-9.033h6.873ZM185.12,0h-3.662l-7.129-11.694V0h-3.662V-17.773h3.662L181.47-6.055V-17.773h3.65Zm16.052-6.189H194.3V-9.033h6.873Zm18.506,1.526a1.879,1.879,0,0,0-.732-1.593,9.607,9.607,0,0,0-2.637-1.172,18.691,18.691,0,0,1-3.015-1.215q-3.027-1.636-3.027-4.407a4.292,4.292,0,0,1,.812-2.57,5.3,5.3,0,0,1,2.332-1.764,8.776,8.776,0,0,1,3.412-.635,7.988,7.988,0,0,1,3.394.69,5.4,5.4,0,0,1,2.313,1.947,5.1,5.1,0,0,1,.824,2.856H219.69a2.4,2.4,0,0,0-.769-1.9,3.161,3.161,0,0,0-2.161-.677,3.377,3.377,0,0,0-2.087.568,1.79,1.79,0,0,0-.745,1.5,1.715,1.715,0,0,0,.873,1.453,9.861,9.861,0,0,0,2.57,1.1,11.1,11.1,0,0,1,4.553,2.332,4.643,4.643,0,0,1,1.428,3.467,4.277,4.277,0,0,1-1.746,3.619,7.642,7.642,0,0,1-4.7,1.312,9.075,9.075,0,0,1-3.735-.751,5.911,5.911,0,0,1-2.57-2.057,5.267,5.267,0,0,1-.885-3.027h3.674q0,2.942,3.516,2.942a3.42,3.42,0,0,0,2.039-.531A1.728,1.728,0,0,0,219.678-4.663Zm19.006-1.526h-6.873V-9.033h6.873Zm21.936-8.618h-5.444V0h-3.662V-14.807h-5.371v-2.966H260.62Zm14.209,8.618h-6.873V-9.033h6.873Zm15.649-5.457,3.333-6.128h4.211L292.847-8.96,298.157,0H293.9l-3.418-6.226L287.061,0H282.8l5.31-8.96-5.176-8.813h4.211Zm22.375,5.457h-6.873V-9.033h6.873Zm15.417-3.577,3.7-8.008h4L330.139-6.445V0h-3.723V-6.445l-5.835-11.328H324.6Zm22.18,3.577h-6.873V-9.033h6.873Zm13.171,3.247h8.96V0H359.045V-2.148l8.789-12.659h-8.777v-2.966h13.33v2.1Zm23.34-4a17.777,17.777,0,0,1-.793,5.31,14.414,14.414,0,0,1-2.283,4.5A8.224,8.224,0,0,1,380.7,5.554l-.684-1.868a8.584,8.584,0,0,0,2.734-4.028A18.654,18.654,0,0,0,383.789-6.6v-.647a19.076,19.076,0,0,0-.995-6.433,8.948,8.948,0,0,0-2.777-4.175l.684-1.868a8.227,8.227,0,0,1,3.131,2.612,14.228,14.228,0,0,1,2.283,4.407,17.651,17.651,0,0,1,.848,5.212Z" transform="translate(2317 -8893)" fill="#fff"/>
    <g id="Grupo_69451" data-name="Grupo 69451" transform="translate(-95.958 -74.81)">
      <path id="Trazado_156315" data-name="Trazado 156315" d="M1643.4,182.913c-9.128-10.789-23.813-24.624-44.913-30.617-21.591-6.132-28.794,1.942-65.5,1.429-39.4-.549-48.118-9.733-70.435-3.378-19.495,5.55-32.812,19.155-40.983,29.71,11.122,13.618,34,37.263,67.778,45.575,19.443,4.784,40.455,3.95,47.438,3.723a190.232,190.232,0,0,0,34.037-4.163c33.261-7.638,58.06-27.8,72.574-42.28" transform="translate(1072.787 -9146.69)" fill="#9f1d2e"/>
      <path id="Trazado_156316" data-name="Trazado 156316" d="M1574.439,232.083a39.179,39.179,0,0,1,9.613-17.247c18.566-18.872,58.533-16.356,73.607,4.057a35.517,35.517,0,0,1,6.371,16.156c-7.541,3.413-17.944,7.037-89.592-2.967" transform="translate(984.262 -9177.912)" fill="#dd3d59"/>
      <path id="Trazado_156317" data-name="Trazado 156317" d="M1484.8,147.371c9.774-5.513,19.448-5.023,28.48-4.45,17.951,1.14,33.611,2.538,47.083,3.965,25.97-.128,40.459-1.457,49.12-3.068a39.712,39.712,0,0,1,17,.036,42.28,42.28,0,0,1,12.117,5.111,48.725,48.725,0,0,1,11.359,9.38c-3.035,6.309-6.442,10.572-11.04,16.318-3.56,4.45-26.25,10.08-51.174,10.08-5.785,0-15.713-.34-20.914-.141-7.3.279-55.014,1.024-74.314-8.158-4.954-2.357-12.892-6.893-17.837-20.735a38.37,38.37,0,0,1,10.124-8.338" transform="translate(1042.033 -9143.487)" fill="#fff5f0"/>
      <path id="Trazado_156318" data-name="Trazado 156318" d="M1635.265,258.163a20.954,20.954,0,0,1,10.572-.223,18.863,18.863,0,0,1,4.241,1.646c4.38,2.012,7.25,5.2,9.378,6.87a101.024,101.024,0,0,1-38.35,22.29c-13.285,4.3-23.859,4.588-40.642,5.043-17.22.468-30.593.831-47.317-3.708-9.658-2.621-25.821-6.93-42.165-19.171,1.469-2.588,4.972-6.03,9.159-9a31.2,31.2,0,0,1,6.814-3.489c11.308-3.974,44.545,4.654,68.739,5.085,17.534.312,51.74-3.3,59.572-5.348" transform="translate(1032.592 -9209.952)" fill="#fff5f0"/>
      <path id="Trazado_156319" data-name="Trazado 156319" d="M1407.22,192.664a40.137,40.137,0,0,0-3.213,6.525,18.939,18.939,0,0,0-1.262,6.531,14.872,14.872,0,0,0,.324,3.255c.078.548.267,1.075.387,1.626l.267.806a7.026,7.026,0,0,0,.29.809,53.767,53.767,0,0,0,3.208,6.553,15.774,15.774,0,0,1-5.662-5.294,15.616,15.616,0,0,1-.989-1.76,15.262,15.262,0,0,1-1.19-3.932l-.106-1.035c-.031-.346-.025-.694-.036-1.041a14.684,14.684,0,0,1,2.313-7.752,16.2,16.2,0,0,1,2.5-3.048,12.544,12.544,0,0,1,3.167-2.243" transform="translate(1085.721 -9172.488)" fill="#dc9b7d"/>
      <path id="Trazado_156320" data-name="Trazado 156320" d="M1962.261,205.3a11.617,11.617,0,0,1,5.375,5.091,13.783,13.783,0,0,1,1.615,7.513,16.816,16.816,0,0,1-2.2,7.216,18.115,18.115,0,0,1-4.795,5.515c.769-2.338,1.622-4.463,2.26-6.606a27.992,27.992,0,0,0,1.229-6.345,18.033,18.033,0,0,0-.648-6.226,24.576,24.576,0,0,0-2.841-6.157" transform="translate(759.673 -9179.807)" fill="#dc9b7d"/>
      <path id="Trazado_156321" data-name="Trazado 156321" d="M1597.9,364.138c3.3.726,6.6,1.277,9.914,1.718l2.48.338c.828.1,1.66.175,2.489.263s1.654.195,2.485.258l2.491.2c6.636.534,13.281.7,19.928.648l4.985-.154c.831-.03,1.664-.013,2.493-.081l2.491-.158c1.66-.1,3.325-.172,4.986-.3,1.657-.16,3.318-.3,4.981-.444l2.5-.2c.828-.1,1.656-.207,2.487-.3l4.993-.551c.839-.064,1.666-.19,2.5-.309s1.66-.242,2.495-.343c1.668-.216,3.34-.426,5.028-.592-1.6.546-3.208,1.048-4.824,1.543-.807.255-1.619.484-2.431.725s-1.623.484-2.447.669l-4.947,1.128c-.825.192-1.654.365-2.482.544l-2.5.417q-2.508.407-5.023.786c-.837.14-1.683.2-2.526.288l-2.532.251c-3.373.393-6.773.432-10.164.582a124.355,124.355,0,0,1-20.308-1.426c-1.676-.271-3.351-.542-5.008-.928-.829-.185-1.659-.355-2.484-.55l-2.466-.632a59.284,59.284,0,0,1-9.571-3.4" transform="translate(970.678 -9271.788)" fill="#dc9b7d"/>
    </g>
  </g>
</svg>
