<svg xmlns="http://www.w3.org/2000/svg" width="486" height="293" viewBox="0 0 486 293">
  <g id="Grupo_69505" data-name="Grupo 69505" transform="translate(-2268 8419)">
    <rect id="Rect치ngulo_10382" data-name="Rect치ngulo 10382" width="486" height="293" rx="22" transform="translate(2268 -8419)" fill="#f6dcbe"/>
    <path id="Rect치ngulo_10383" data-name="Rect치ngulo 10383" d="M0,0H486a0,0,0,0,1,0,0V24a22,22,0,0,1-22,22H21A21,21,0,0,1,0,25V0A0,0,0,0,1,0,0Z" transform="translate(2268 -8172)" fill="#d44f4a"/>
    <path id="Trazado_160916" data-name="Trazado 160916" d="M1.514-7.227a18.734,18.734,0,0,1,.745-5.322,14.045,14.045,0,0,1,2.2-4.474,8.2,8.2,0,0,1,3.149-2.7l.684,1.9a8.5,8.5,0,0,0-2.783,4.077A18.878,18.878,0,0,0,4.5-7.3v.378a19.239,19.239,0,0,0,.989,6.47,8.662,8.662,0,0,0,2.8,4.138L7.6,5.554A8.208,8.208,0,0,1,4.51,2.924,13.81,13.81,0,0,1,2.319-1.428,18.622,18.622,0,0,1,1.514-6.58ZM20.251-2.942h7.776V0H16.589V-17.773h3.662Zm21.948-4a17.777,17.777,0,0,1-.793,5.31,14.414,14.414,0,0,1-2.283,4.5,8.224,8.224,0,0,1-3.186,2.686l-.684-1.868A8.584,8.584,0,0,0,37.988-.342,18.654,18.654,0,0,0,39.026-6.6v-.647a19.076,19.076,0,0,0-.995-6.433,8.948,8.948,0,0,0-2.777-4.175l.684-1.868a8.227,8.227,0,0,1,3.131,2.612,14.228,14.228,0,0,1,2.283,4.407A17.65,17.65,0,0,1,42.2-7.5Z" transform="translate(2489 -8140)" fill="#fff"/>
    <g id="Grupo_69454" data-name="Grupo 69454" transform="translate(1335.001 440.7)">
      <path id="Trazado_156260" data-name="Trazado 156260" d="M265.514,830.256c-5.064-16.874-17.559-47.973-46.815-62.516-13.477-6.7-28.679-7.233-59.085-8.3-34.981-1.229-52.472-1.844-67.874,5.372C61.248,779.094,48.656,811.976,44,827.4c11.107,13.6,33.948,37.21,67.683,45.511,19.415,4.777,40.4,3.945,47.37,3.718a189.933,189.933,0,0,0,33.989-4.157c33.213-7.627,57.977-27.763,72.471-42.22" transform="translate(1020.998 -9547.473)" fill="#9f1d2e"/>
      <path id="Trazado_156261" data-name="Trazado 156261" d="M170.31,885.289c-2.569-31.551,23.454-55.916,48.55-54.069,23.954,1.763,45.547,27.3,40.915,57.031,0,0-51.842,23.4-89.464-2.962" transform="translate(956.38 -9584.582)" fill="#dd3d59"/>
      <path id="Trazado_156262" data-name="Trazado 156262" d="M104.72,764.863c3.436-2.886,12.048-9.408,33.856-14a167.536,167.536,0,0,1,44.413-3.219,169.567,169.567,0,0,1,45.435,5.254c6.748,1.762,12.687,3.584,19.044,7.568a57.664,57.664,0,0,1,15.859,14.844,19.367,19.367,0,0,1-3.162,4.872c-4.385,4.912-10.259,6.24-13.429,6.9a228.176,228.176,0,0,1-36.867,4.394c-14.664.314-22,.471-27.346.488,0,0-40.76.131-66.9-4.639a38.988,38.988,0,0,1-12.941-4.639,37.858,37.858,0,0,1-8.246-6.494,57.2,57.2,0,0,1,10.281-11.329" transform="translate(995.159 -9541.665)" fill="#fff5f0"/>
      <path id="Trazado_156263" data-name="Trazado 156263" d="M243.67,929.139a20.918,20.918,0,0,1,10.557-.222,18.856,18.856,0,0,1,4.234,1.643c4.373,2.009,8.442,6.13,10.567,7.8a122.049,122.049,0,0,1-39.42,22.993c-18.606,6.558-33.939,6.827-43.948,6.918-9.656.087-27.569.087-49.075-7.651a130.313,130.313,0,0,1-36.023-19.891c1.467-2.585,3.994-4.877,8.175-7.839a31.137,31.137,0,0,1,6.8-3.484c11.292-3.969,44.482,4.647,68.641,5.077,17.51.312,51.666-3.294,59.488-5.34" transform="translate(992.022 -9634.386)" fill="#fff5f0"/>
      <path id="Trazado_156264" data-name="Trazado 156264" d="M216.309,1048.923c4.826.443,9.535.792,14.246,1.034s9.386.4,14.069.366c.585,0,1.171.029,1.755.011l1.755-.047c1.17-.026,2.344,0,3.513-.068,1.17-.046,2.341-.107,3.516-.131l.882-.024.877-.063,1.761-.107c1.172-.085,2.361-.081,3.534-.2,1.175-.1,2.358-.187,3.546-.262,2.382-.127,4.739-.452,7.189-.5-1.1.509-2.221.963-3.35,1.41a34.113,34.113,0,0,1-3.429,1.215c-1.161.343-2.327.678-3.5.994-.293.078-.585.167-.881.234l-.89.185-1.784.361a73.938,73.938,0,0,1-14.491,1.395,75.352,75.352,0,0,1-14.493-1.343,52.817,52.817,0,0,1-13.825-4.451" transform="translate(932.725 -9696.161)" fill="#dc9b7d"/>
      <path id="Trazado_156265" data-name="Trazado 156265" d="M221.649,705.126a44.11,44.11,0,0,1,13.012-6.147,50.645,50.645,0,0,1,14.4-2.152c1.224-.01,2.45.066,3.674.131,1.222.136,2.445.234,3.656.46,1.214.184,2.414.471,3.607.757,1.183.342,2.367.664,3.512,1.116a32.193,32.193,0,0,1,12.183,7.787,65.348,65.348,0,0,0-13.159-4.473c-1.1-.269-2.229-.425-3.336-.639-1.126-.132-2.234-.339-3.364-.417a60.063,60.063,0,0,0-6.769-.329,89.517,89.517,0,0,0-13.641,1.117c-4.563.7-9.123,1.642-13.77,2.788" transform="translate(929.99 -9515.783)" fill="#dc9b7d"/>
    </g>
  </g>
</svg>
