<svg xmlns="http://www.w3.org/2000/svg" width="486" height="293" viewBox="0 0 486 293">
  <g id="Grupo_69507" data-name="Grupo 69507" transform="translate(-2268 7666)">
    <rect id="Rect치ngulo_10386" data-name="Rect치ngulo 10386" width="486" height="293" rx="22" transform="translate(2268 -7666)" fill="#f6dcbe"/>
    <path id="Rect치ngulo_10387" data-name="Rect치ngulo 10387" d="M0,0H486a0,0,0,0,1,0,0V24a22,22,0,0,1-22,22H21A21,21,0,0,1,0,25V0A0,0,0,0,1,0,0Z" transform="translate(2268 -7419)" fill="#d44f4a"/>
    <path id="Trazado_160918" data-name="Trazado 160918" d="M1.514-7.227a18.734,18.734,0,0,1,.745-5.322,14.045,14.045,0,0,1,2.2-4.474,8.2,8.2,0,0,1,3.149-2.7l.684,1.9a8.5,8.5,0,0,0-2.783,4.077A18.878,18.878,0,0,0,4.5-7.3v.378a19.239,19.239,0,0,0,.989,6.47,8.662,8.662,0,0,0,2.8,4.138L7.6,5.554A8.208,8.208,0,0,1,4.51,2.924,13.81,13.81,0,0,1,2.319-1.428,18.622,18.622,0,0,1,1.514-6.58Zm25.769-.037H20.251V0H16.589V-17.773H28.162v2.966h-7.91v4.59h7.031ZM43.14-6.189H36.267V-9.033H43.14ZM59-4.407l4.028-13.367H67.1L60.913,0H57.092L50.928-17.773h4.065ZM80.847-6.946a17.777,17.777,0,0,1-.793,5.31,14.414,14.414,0,0,1-2.283,4.5,8.224,8.224,0,0,1-3.186,2.686L73.9,3.687A8.584,8.584,0,0,0,76.636-.342,18.654,18.654,0,0,0,77.673-6.6v-.647a19.076,19.076,0,0,0-.995-6.433A8.948,8.948,0,0,0,73.9-17.859l.684-1.868a8.227,8.227,0,0,1,3.131,2.612A14.228,14.228,0,0,1,80-12.708,17.65,17.65,0,0,1,80.847-7.5Z" transform="translate(2470 -7387)" fill="#fff"/>
    <g id="Grupo_69457" data-name="Grupo 69457" transform="translate(1002.073 1222.069)">
      <path id="Trazado_156266" data-name="Trazado 156266" d="M1676.425,925.255a104.99,104.99,0,0,0-29.1-31.2c-25.79-18.116-52.694-19.084-61.347-19.28-11.341-.258-10.675,1.479-28.044,2.1-26.476.95-33.377-2.893-51.181-3.155-7.119-.1-60.19-.16-88.691,35.055a76.885,76.885,0,0,0-10.166,16.476,210.306,210.306,0,0,1,20.733-3.837c3.994-.533,9.487-1.149,16.038-1.517,5-.281,9.291-.343,12.539-.331,0,0,2.443.008,5.026.076,6.382.168,25.649,1.237,51.532,2.892,22.9.688,39.947.691,46.088.386,2.863-.141,5.268-.3,5.268-.3,4.287-.314,9.055-.782,19.982-1.578,13.554-.986,25.2-1.651,28.54-1.8,9.835-.456,29.334-.282,62.779,6.012" transform="translate(-32.974 -9640.357)" fill="#9f1d2e"/>
      <path id="Trazado_156267" data-name="Trazado 156267" d="M1634.527,872.4a95.479,95.479,0,0,0-13.277.324c-4.125.426-5.539.88-9.86,1.458a120.34,120.34,0,0,1-15.2.972,197.548,197.548,0,0,1-21.734-.864c-27.272-2.5-40.909-3.758-54.686-.432-6.562,1.584-17.6,2.587-29.292,10.728a60.741,60.741,0,0,0,16.029,19.3c17.124,13.363,38.439,14.047,77.59,14.816,7.182.141,11.734.22,18.229-.175,20.88-1.271,42.011-2.557,56.035-16.917a46.96,46.96,0,0,0,11.129-19.272c-2.5-1.405-20.92-9.123-34.957-9.935" transform="translate(-74.727 -9639.414)" fill="#fff5f0"/>
      <path id="Trazado_156268" data-name="Trazado 156268" d="M1607.875,828.351a164.59,164.59,0,0,0,18.174,4.994,107.428,107.428,0,0,0,18.312,2.387,74.522,74.522,0,0,0,9.161-.144c1.529-.067,3.034-.306,4.559-.452,1.5-.261,3.029-.441,4.521-.784a76.656,76.656,0,0,0,17.673-6,44.439,44.439,0,0,1-16.728,9.6c-1.549.539-3.144.9-4.736,1.293-1.6.311-3.216.633-4.843.811-1.623.237-3.259.3-4.892.419-1.635.027-3.271.062-4.9-.014a69.451,69.451,0,0,1-19.1-3.535,72.744,72.744,0,0,1-8.948-3.638c-1.439-.718-2.865-1.454-4.242-2.284a40.6,40.6,0,0,1-4.012-2.651" transform="translate(-134.092 -9617.42)" fill="#dc9b7d"/>
      <path id="Trazado_156269" data-name="Trazado 156269" d="M1616.738,999.605c5.372,1.332,10.66,2.425,15.961,3.267a120.523,120.523,0,0,0,15.881,1.519c2.644.071,5.289.053,7.924-.117l.99-.048.986-.088c.656-.069,1.32-.1,1.976-.172,1.311-.161,2.632-.29,3.939-.51,1.32-.166,2.615-.454,3.935-.674l1.957-.432.985-.208.974-.258c2.636-.6,5.193-1.48,7.864-2.28a36.783,36.783,0,0,1-3.4,2.409c-.588.375-1.191.726-1.793,1.088-.614.331-1.239.641-1.862.964l-.942.47-.964.419c-.644.277-1.293.55-1.945.813-1.323.464-2.647.969-4.01,1.323a50.6,50.6,0,0,1-8.293,1.654c-.7.081-1.4.162-2.106.213l-2.112.134c-.7.039-1.409.027-2.114.042s-1.409.01-2.113-.014a65.183,65.183,0,0,1-16.574-2.63,64,64,0,0,1-7.847-2.868c-1.27-.569-2.525-1.167-3.743-1.842a33.73,33.73,0,0,1-3.554-2.176" transform="translate(-138.574 -9704.017)" fill="#dc9b7d"/>
    </g>
  </g>
</svg>
