<svg xmlns="http://www.w3.org/2000/svg" width="486" height="293" viewBox="0 0 486 293">
  <g id="Grupo_69510" data-name="Grupo 69510" transform="translate(-2268 6576)">
    <rect id="Rect치ngulo_10392" data-name="Rect치ngulo 10392" width="486" height="293" rx="22" transform="translate(2268 -6576)" fill="#f6dcbe"/>
    <path id="Rect치ngulo_10393" data-name="Rect치ngulo 10393" d="M0,0H486a0,0,0,0,1,0,0V24a22,22,0,0,1-22,22H21A21,21,0,0,1,0,25V0A0,0,0,0,1,0,0Z" transform="translate(2268 -6329)" fill="#d44f4a"/>
    <path id="Trazado_160921" data-name="Trazado 160921" d="M1.514-7.227a18.734,18.734,0,0,1,.745-5.322,14.045,14.045,0,0,1,2.2-4.474,8.2,8.2,0,0,1,3.149-2.7l.684,1.9a8.5,8.5,0,0,0-2.783,4.077A18.878,18.878,0,0,0,4.5-7.3v.378a19.239,19.239,0,0,0,.989,6.47,8.662,8.662,0,0,0,2.8,4.138L7.6,5.554A8.208,8.208,0,0,1,4.51,2.924,13.81,13.81,0,0,1,2.319-1.428,18.622,18.622,0,0,1,1.514-6.58Zm21.655.72H20.251V0H16.589V-17.773h6.6a7.465,7.465,0,0,1,4.858,1.4A4.845,4.845,0,0,1,29.761-12.4a5.468,5.468,0,0,1-.787,3.033,5.37,5.37,0,0,1-2.386,1.935L30.432-.171V0H26.5ZM20.251-9.473h2.954a3.025,3.025,0,0,0,2.136-.7,2.509,2.509,0,0,0,.757-1.935,2.685,2.685,0,0,0-.714-1.978,2.968,2.968,0,0,0-2.191-.72H20.251ZM44.617-6.946a17.777,17.777,0,0,1-.793,5.31,14.414,14.414,0,0,1-2.283,4.5,8.224,8.224,0,0,1-3.186,2.686l-.684-1.868A8.584,8.584,0,0,0,40.405-.342,18.654,18.654,0,0,0,41.443-6.6v-.647a19.076,19.076,0,0,0-.995-6.433,8.948,8.948,0,0,0-2.777-4.175l.684-1.868a8.227,8.227,0,0,1,3.131,2.612,14.228,14.228,0,0,1,2.283,4.407A17.65,17.65,0,0,1,44.617-7.5Z" transform="translate(2488 -6297)" fill="#fff"/>
    <g id="Grupo_69462" data-name="Grupo 69462" transform="translate(713.305 422.102)">
      <path id="Trazado_156292" data-name="Trazado 156292" d="M1415.967,1492.376c11.24,13.286,18.725,24.338,44.708,31.717,26.587,7.55,35.458-2.391,80.654-1.761,48.518.677,59.253,11.986,86.734,4.16,24.007-6.835,40.991-23.21,51.053-36.207-24.969-21.575-47.143-28.5-63.828-30.41-29.7-3.4-36.985,9.67-75.685,9.049-36.877-.592-45.134-12.7-71.16-7.815-24.1,4.52-41.576,19.5-52.476,31.267" transform="translate(247.851 -8363.27)" fill="#9f1d2e"/>
      <path id="Trazado_156293" data-name="Trazado 156293" d="M1661.645,1570.356c-12.151,4.4-21.961,2.466-35.973.616-9.555-1.262-32.049-4.231-53.873-4.049-13.71.114-28.882,1.486-45.795,3.015-12.344,1.117-20.344,2.091-31.125-.274a72.431,72.431,0,0,1-24.72-10.666,108.616,108.616,0,0,1,21.605-10.854c4.7-1.733,14.894-5.12,41.644-7.272,5.658-.455,17.108-1.261,39.488-1.371,22.177-.108,33.266-.163,44.423.823,32.8,2.9,48.449,9.752,59.2,16.489,1.413.885,2.552,1.65,3.294,2.158a52.541,52.541,0,0,1-18.172,11.385" transform="translate(218.945 -8406.011)" fill="#fff5f0"/>
      <path id="Trazado_156294" data-name="Trazado 156294" d="M1649.024,1456.424c-32.94-5.663-40.782,9.948-76.234,8.775-33.088-1.095-44.064-15.282-72.668-7.952a83.385,83.385,0,0,0-23.991,10.469,47.293,47.293,0,0,0,7.672,7.243c12.442,9.595,26.072,11.089,33.318,11.791,36.526,3.544,70.475,3.017,70.475,3.017s54.362-.844,79.867-10.215a57.785,57.785,0,0,0,15.013-8.432c.83-.682,1.46-1.2,1.972-1.645a106.469,106.469,0,0,0-35.425-13.05" transform="translate(215.76 -8361.053)" fill="#fff5f0"/>
      <path id="Trazado_156295" data-name="Trazado 156295" d="M1627.309,1411.3c.535.354,1.067.7,1.608,1.034s1.074.67,1.614.994c1.09.637,2.172,1.267,3.272,1.86a70.369,70.369,0,0,0,6.684,3.217,43.389,43.389,0,0,0,13.929,3.5,29.72,29.72,0,0,0,13.859-2.349,47.876,47.876,0,0,0,12.332-8.254c-.712,1.077-1.421,2.183-2.233,3.2a30.642,30.642,0,0,1-2.607,2.926c-.471.454-.935.921-1.422,1.364l-1.537,1.238c-.263.2-.507.427-.785.6l-.827.543-.831.544a7.387,7.387,0,0,1-.853.508l-1.763.921c-.593.3-1.223.511-1.836.771-.309.121-.615.256-.929.364l-.955.284a19.348,19.348,0,0,1-1.927.513,27.245,27.245,0,0,1-7.912.585,35.685,35.685,0,0,1-14.908-4.583,44.464,44.464,0,0,1-6.443-4.345,37.082,37.082,0,0,1-5.53-5.436" transform="translate(135.124 -8337.663)" fill="#dc9b7d"/>
      <path id="Trazado_156296" data-name="Trazado 156296" d="M1632.744,1640.909c4.579.42,9.047.752,13.516.98s8.906.384,13.349.348c.555,0,1.111.027,1.666.01l1.666-.044c1.11-.024,2.223,0,3.333-.064,1.11-.044,2.221-.1,3.337-.125l.836-.023.833-.06,1.671-.1c1.113-.081,2.241-.077,3.354-.193,1.115-.1,2.236-.177,3.364-.249,2.26-.121,4.5-.429,6.821-.478-1.043.482-2.107.914-3.178,1.337a32.254,32.254,0,0,1-3.254,1.153c-1.1.326-2.208.644-3.321.943-.279.075-.556.159-.836.223l-.844.175-1.692.342a70.071,70.071,0,0,1-13.75,1.324,71.431,71.431,0,0,1-13.751-1.273,50.15,50.15,0,0,1-13.118-4.223" transform="translate(132.225 -8460.132)" fill="#dc9b7d"/>
      <path id="Trazado_156297" data-name="Trazado 156297" d="M1388.43,1497.3a46.056,46.056,0,0,0-3.686,7.485,21.724,21.724,0,0,0-1.449,7.492,17.086,17.086,0,0,0,.371,3.735c.089.63.306,1.234.444,1.866l.307.925a8.113,8.113,0,0,0,.332.928,61.734,61.734,0,0,0,3.68,7.518,18.373,18.373,0,0,1-7.631-8.093,17.482,17.482,0,0,1-1.366-4.511l-.121-1.189c-.037-.4-.03-.8-.041-1.194a16.84,16.84,0,0,1,2.654-8.893,18.6,18.6,0,0,1,2.872-3.5,14.352,14.352,0,0,1,3.633-2.573" transform="translate(267.424 -8383.532)" fill="#dc9b7d"/>
      <path id="Trazado_156298" data-name="Trazado 156298" d="M2009.094,1498.246a13.333,13.333,0,0,1,6.168,5.841,15.825,15.825,0,0,1,1.853,8.619,19.3,19.3,0,0,1-2.519,8.278,20.787,20.787,0,0,1-5.5,6.328c.882-2.683,1.861-5.121,2.594-7.579a32.088,32.088,0,0,0,1.411-7.281,20.683,20.683,0,0,0-.745-7.143,28.173,28.173,0,0,0-3.26-7.064" transform="translate(-68.515 -8384.037)" fill="#dc9b7d"/>
    </g>
  </g>
</svg>
