<svg xmlns="http://www.w3.org/2000/svg" width="486" height="293" viewBox="0 0 486 293">
  <g id="Grupo_69511" data-name="Grupo 69511" transform="translate(-2268 6170)">
    <rect id="Rect치ngulo_10394" data-name="Rect치ngulo 10394" width="486" height="293" rx="22" transform="translate(2268 -6170)" fill="#f6dcbe"/>
    <path id="Rect치ngulo_10395" data-name="Rect치ngulo 10395" d="M0,0H486a0,0,0,0,1,0,0V24a22,22,0,0,1-22,22H21A21,21,0,0,1,0,25V0A0,0,0,0,1,0,0Z" transform="translate(2268 -5923)" fill="#d44f4a"/>
    <path id="Trazado_160922" data-name="Trazado 160922" d="M1.514-7.227a18.734,18.734,0,0,1,.745-5.322,14.045,14.045,0,0,1,2.2-4.474,8.2,8.2,0,0,1,3.149-2.7l.684,1.9a8.5,8.5,0,0,0-2.783,4.077A18.878,18.878,0,0,0,4.5-7.3v.378a19.239,19.239,0,0,0,.989,6.47,8.662,8.662,0,0,0,2.8,4.138L7.6,5.554A8.208,8.208,0,0,1,4.51,2.924,13.81,13.81,0,0,1,2.319-1.428,18.622,18.622,0,0,1,1.514-6.58ZM30.042-17.773V-6.067a5.994,5.994,0,0,1-1.825,4.614A7.036,7.036,0,0,1,23.23.244,7.115,7.115,0,0,1,18.286-1.4a5.891,5.891,0,0,1-1.868-4.529V-17.773h3.662V-6.042A3.386,3.386,0,0,0,20.917-3.5a3.21,3.21,0,0,0,2.313.8q3.088,0,3.137-3.247V-17.773ZM45.117-6.946a17.777,17.777,0,0,1-.793,5.31,14.414,14.414,0,0,1-2.283,4.5,8.224,8.224,0,0,1-3.186,2.686l-.684-1.868A8.584,8.584,0,0,0,40.906-.342,18.654,18.654,0,0,0,41.943-6.6v-.647a19.076,19.076,0,0,0-.995-6.433,8.948,8.948,0,0,0-2.777-4.175l.684-1.868a8.227,8.227,0,0,1,3.131,2.612,14.228,14.228,0,0,1,2.283,4.407A17.65,17.65,0,0,1,45.117-7.5Z" transform="translate(2488 -5891)" fill="#fff"/>
    <g id="Grupo_69464" data-name="Grupo 69464" transform="translate(568.657 830.556)">
      <path id="Trazado_156299" data-name="Trazado 156299" d="M2422.553,1445.674a122.4,122.4,0,0,0-42.905-48.409,124.169,124.169,0,0,0-63.333-19.58c-11.019-.321-36.415-.721-62.936,15.135-27.6,16.5-39.778,40.652-43.923,50.038a201.56,201.56,0,0,0,50.588,24.392,175.455,175.455,0,0,0,53.322,9.257c20.326.25,35.474-3.258,46.658-5.924a235.239,235.239,0,0,0,62.53-24.909" transform="translate(-374.112 -8303.143)" fill="#9f1d2e"/>
      <path id="Trazado_156300" data-name="Trazado 156300" d="M2403.88,1409.045a87.343,87.343,0,0,0,25.842-2.617,81.641,81.641,0,0,0-6.331-6.984c-24.552-24.121-57.845-26.019-69.122-26.661-12.2-.695-42.265-2.409-69.368,16.787a90,90,0,0,0-16.195,14.764,48.7,48.7,0,0,0,6.247,2.065,51.981,51.981,0,0,0,20.163,1c15.11-1.946,31.634-3.371,36.592-3.733a186.288,186.288,0,0,1,36.343,1c10.6,1.34,22.27,3.79,35.828,4.39" transform="translate(-408.474 -8300.136)" fill="#fff5f0"/>
      <path id="Trazado_156301" data-name="Trazado 156301" d="M2406.527,1582.267c7.318-2.029,15.059-4.937,15.059-4.937,6.773-2.545,12.462-5.133,16.888-7.317a22.079,22.079,0,0,0-3.211-1.9,17.887,17.887,0,0,0-4.074-1.622,19.638,19.638,0,0,0-10.156.219c-7.525,2.019-40.384,5.579-57.228,5.272-23.242-.425-55.171-8.93-66.034-5.013a29.713,29.713,0,0,0-6.545,3.439l-.092.068a144.63,144.63,0,0,0,15.415,7.105,152,152,0,0,0,55.3,10.121c2.261.03,24.367.2,44.682-5.431" transform="translate(-421.48 -8412.357)" fill="#fff5f0"/>
      <path id="Trazado_156302" data-name="Trazado 156302" d="M2408.923,1662.336c4.122.377,8.145.676,12.167.883s8.018.345,12.018.313c.5,0,1,.024,1.5.009l1.5-.04c1-.022,2,0,3-.058s2-.092,3-.113l.753-.021.75-.055,1.5-.09c1-.073,2.017-.07,3.018-.174,1-.088,2.014-.16,3.029-.225,2.035-.108,4.047-.386,6.14-.43-.939.434-1.9.823-2.861,1.2a29.1,29.1,0,0,1-2.93,1.039c-.991.293-1.988.579-2.99.849-.25.067-.5.142-.753.2l-.76.158-1.524.308a63.112,63.112,0,0,1-12.378,1.191,64.294,64.294,0,0,1-12.379-1.146,45.154,45.154,0,0,1-11.809-3.8" transform="translate(-489.792 -8468.277)" fill="#dc9b7d"/>
      <path id="Trazado_156303" data-name="Trazado 156303" d="M2426.783,1338.688a19.251,19.251,0,0,1,3.9-2.375,28.074,28.074,0,0,1,13.342-2.593,24.109,24.109,0,0,1,8.924,2.194c.176.081.352.156.524.242l.51.277c.337.187.679.361,1.007.564a21.517,21.517,0,0,1,1.9,1.311,17.949,17.949,0,0,1,3.267,3.226,54.772,54.772,0,0,0-8.144-2.906,41.728,41.728,0,0,0-8.2-1.257,57.344,57.344,0,0,0-8.388.178c-2.834.248-5.678.653-8.645,1.138" transform="translate(-500.149 -8277.676)" fill="#dc9b7d"/>
    </g>
  </g>
</svg>
