<svg xmlns="http://www.w3.org/2000/svg" width="820" height="218" viewBox="0 0 820 218">
  <g id="Grupo_69390" data-name="Grupo 69390" transform="translate(8895 8580)">
    <ellipse id="Elipse_4082" data-name="Elipse 4082" cx="38.5" cy="5" rx="38.5" ry="5" transform="translate(-8857 -8372)" fill="#afafaf"/>
    <ellipse id="Elipse_4083" data-name="Elipse 4083" cx="60" cy="5" rx="60" ry="5" transform="translate(-8210 -8372)" fill="#afafaf"/>
    <g id="Grupo_69007" data-name="Grupo 69007" transform="translate(-2783 192)">
      <g id="Rectángulo_9413" data-name="Rectángulo 9413" transform="translate(-5964 -8771)" fill="#fff" stroke="#d44f4a" stroke-width="2" stroke-dasharray="4">
        <rect width="512" height="217" rx="32" stroke="none"/>
        <rect x="1" y="1" width="510" height="215" rx="31" fill="none"/>
      </g>
      <path id="Trazado_154331" data-name="Trazado 154331" d="M42.432,56.791a6.133,6.133,0,1,0,6.133-6.133,6.133,6.133,0,0,0-6.133,6.133" transform="translate(-6072.714 -8770.465)" fill="#fbc0a4"/>
      <path id="Trazado_154332" data-name="Trazado 154332" d="M46.558,85.146a5.2,5.2,0,1,0,5.2-5.2,5.2,5.2,0,0,0-5.2,5.2" transform="translate(-6072.589 -8769.577)" fill="#fbc0a4"/>
      <path id="Trazado_154333" data-name="Trazado 154333" d="M42.625,58.195c2.155,9.966,3.914,25.474,4.051,27.708h10.4s-.047-22.33-2.619-30.926Z" transform="translate(-6072.708 -8770.334)" fill="#fbc0a4"/>
      <path id="Trazado_154334" data-name="Trazado 154334" d="M56.016,110.276a2.7,2.7,0,1,0,1.93-3.289,2.7,2.7,0,0,0-1.93,3.289" transform="translate(-6072.305 -8768.761)" fill="#fbc0a4"/>
      <path id="Trazado_154335" data-name="Trazado 154335" d="M56.143,110.2c-.021,2.029-3.379,4.051-4.16,5.461s.524,3.1.524,3.1a13.059,13.059,0,0,0,.375,2.727c.313.949,1.383,1,2.4.054s1.544.569,2.9.245,1.662-1.552,3.3-.978-.038-11.353-.038-11.353Z" transform="translate(-6072.432 -8768.683)" fill="#fbc0a4"/>
      <path id="Trazado_154336" data-name="Trazado 154336" d="M46.726,86.455a5.2,5.2,0,1,0,3.721-6.342,5.2,5.2,0,0,0-3.721,6.342" transform="translate(-6072.589 -8769.577)" fill="#fbc0a4"/>
      <path id="Trazado_154337" data-name="Trazado 154337" d="M56.016,110.276a2.7,2.7,0,1,0,1.93-3.289,2.7,2.7,0,0,0-1.93,3.289" transform="translate(-6072.305 -8768.761)" fill="#fbc0a4"/>
      <path id="Trazado_154338" data-name="Trazado 154338" d="M56.295,110.979c-.578-3.427-3.654-9.622-6.193-15.513a76.33,76.33,0,0,1-3.381-9.123l10.063-2.62s4.63,23.123,4.816,26.514Z" transform="translate(-6072.584 -8769.463)" fill="#fbc0a4"/>
      <path id="Trazado_154339" data-name="Trazado 154339" d="M46.286,80.78c-.724-5.085-2.232-15.871-3.657-22.454h0a6.128,6.128,0,0,1,11.826-3.217h0c1.526,5.1,2.619,12.972,3.944,22.209-3.272,1.956-11.036,3.3-12.119,3.463" transform="translate(-6072.714 -8770.465)" fill="#ff9300"/>
      <path id="Trazado_154340" data-name="Trazado 154340" d="M19.487,200.787l1.081-5.777,6.585.959-.354,5.422a5.292,5.292,0,0,1-4.7,2.487,2.358,2.358,0,0,1-2.616-3.092" transform="translate(-6073.412 -8766.09)" fill="#403433"/>
      <path id="Trazado_154341" data-name="Trazado 154341" d="M46.594,197.137l.393,4.7,1.655,3.059,5.211-1.73.737-3.486-.3-5.414Z" transform="translate(-6072.588 -8766.113)" fill="#403433"/>
      <path id="Trazado_154342" data-name="Trazado 154342" d="M67.843,204.969c-1.795-.842-7.359-2.459-11.489-5.427a1.971,1.971,0,0,0-1.51-.353l-.281.053a4.066,4.066,0,0,1-2.816,3.407c-1.784.6-4.771-.962-4.771-.962l.355,6.662H68.781a1.044,1.044,0,0,0,.484-.69s.865-1.617-1.423-2.689" transform="translate(-6072.577 -8765.965)" fill="#403433"/>
      <path id="Trazado_154343" data-name="Trazado 154343" d="M25.5,201.565a3.526,3.526,0,0,0-4.9-.384l-.985-.557c-1.427,2.142-4.169,4.7-4.514,5.959-.656,2.383.508,5.157,4.347,5.157,3.744,0,7.35-2.288,7.755-4.148.243-1.113-.152-4.124-.276-6.363Z" transform="translate(-6073.547 -8765.928)" fill="#403433"/>
      <path id="Trazado_154344" data-name="Trazado 154344" d="M31.527,107.646A8.948,8.948,0,1,1,22.579,98.7a8.948,8.948,0,0,1,8.948,8.948" transform="translate(-6073.587 -8769.009)" fill="#623a33"/>
      <path id="Trazado_154345" data-name="Trazado 154345" d="M14.817,152.57l2.316,48.365s6.406,1.843,12.04.206l.808-48.571Z" transform="translate(-6073.551 -8767.376)" fill="#623a33"/>
      <path id="Trazado_154346" data-name="Trazado 154346" d="M30.018,153.939l1.51-46.556h-17.9l1.223,46.556Z" transform="translate(-6073.587 -8768.746)" fill="#623a33"/>
      <path id="Trazado_154347" data-name="Trazado 154347" d="M29.982,152.793a7.582,7.582,0,1,1-7.582-7.582,7.582,7.582,0,0,1,7.582,7.582" transform="translate(-6073.551 -8767.6)" fill="#623a33"/>
      <path id="Trazado_154348" data-name="Trazado 154348" d="M49.649,106.617a8.948,8.948,0,1,1-9.918-7.86,8.949,8.949,0,0,1,9.918,7.86" transform="translate(-6073.036 -8769.009)" fill="#623a33"/>
      <path id="Trazado_154349" data-name="Trazado 154349" d="M38.222,152.967l6.529,47.977s6.543,1.278,12.012-.846l-3.435-48.455Z" transform="translate(-6072.842 -8767.404)" fill="#623a33"/>
      <path id="Trazado_154350" data-name="Trazado 154350" d="M53.5,152.805l-3.852-46.421L31.87,108.441l6.566,46.107Z" transform="translate(-6073.034 -8768.776)" fill="#623a33"/>
      <path id="Trazado_154351" data-name="Trazado 154351" d="M53.329,151.847a7.582,7.582,0,1,1-8.216-6.892,7.584,7.584,0,0,1,8.216,6.892" transform="translate(-6072.843 -8767.608)" fill="#623a33"/>
      <path id="Trazado_154352" data-name="Trazado 154352" d="M50.29,98.7H22.616l-.037,0-.037,0H13.631v9.007h0a8.945,8.945,0,0,0,8.945,8.887H41.311v0a8.9,8.9,0,0,0,8.942-8.883h.037Z" transform="translate(-6073.587 -8769.009)" fill="#623a33"/>
      <path id="Trazado_154353" data-name="Trazado 154353" d="M50.29,98.7H22.616l-.037,0-.037,0H13.631v9.007h0a8.945,8.945,0,0,0,8.945,8.887H41.311v0a8.9,8.9,0,0,0,8.942-8.883h.037Z" transform="translate(-6073.587 -8769.009)" fill="#623a33"/>
      <path id="Trazado_154354" data-name="Trazado 154354" d="M53.814,53.618a6.134,6.134,0,1,1-8.423-2.075,6.134,6.134,0,0,1,8.423,2.075" transform="translate(-6072.714 -8770.465)" fill="#ff9300"/>
      <path id="Trazado_154355" data-name="Trazado 154355" d="M16.36,58.254a6.133,6.133,0,1,1-6.133-6.133,6.133,6.133,0,0,1,6.133,6.133" transform="translate(-6073.876 -8770.421)" fill="#ff9300"/>
      <path id="Trazado_154356" data-name="Trazado 154356" d="M11.335,62.068l4.028,19.91-3.08,25.184s19.494,7.391,39.526,1.18c0,0-1.051-29.087-2.92-51.893l5.025-3.885C49.5,48.47,34.006,43.05,29.664,43.736c-6.834,1.08-23.8,9.1-24.313,11.014Z" transform="translate(-6073.838 -8770.677)" fill="#ff9300"/>
      <path id="Trazado_154357" data-name="Trazado 154357" d="M24.878,45.859,23.337,30.9l11.4,5.806-.109.545-.318,7.525c-.091,2.152,0,4.326-2.265,4.689-2.707.434-6.914-1.128-7.17-3.607" transform="translate(-6073.293 -8771.063)" fill="#fbc0a4"/>
      <path id="Trazado_154358" data-name="Trazado 154358" d="M34.434,41.922l.2-4.67.108-.545L23.338,30.9l.727,7.058c2.037,3.059,6.06,3.977,10.369,3.964" transform="translate(-6073.293 -8771.063)" fill="#f69d7d"/>
      <path id="Trazado_154359" data-name="Trazado 154359" d="M42.636,25.436c-.05-3.565.165-8.691-1.26-12.419l0-.008,0-.008A7.31,7.31,0,0,0,38.36,9.154C36.8,8.028,34.619,7.3,31.352,7.04c-6.865-.547-11.328,2.026-14.314,6.494-2.225,3.331-1.277,7.7-.822,9.278-1.269.114-3.035.881-2.631,4.357.616,5.311,4.461,5.417,5.6,5.646,0,0,2.116,9.459,13.784,8.554s9.756-9.941,9.67-15.933" transform="translate(-6073.59 -8771.789)" fill="#fbc0a4"/>
      <path id="Trazado_154360" data-name="Trazado 154360" d="M43.059,13.943c3.124-2.681,4.974-6.431,3.853-10.769-1.694.764-3.295,1.389-4.99,2.154A5.755,5.755,0,0,0,43.957,0S22.931,4.512,18.466,7.922A7,7,0,0,0,16,10.884l-3.2-3.929S10.9,11.7,14.627,13.332A4.913,4.913,0,0,0,12.7,16.289c-1.029,4.04,1.977,7.3,1.977,7.3a3.04,3.04,0,0,1,2.665-.261c1.354.478,2.87,2.89,2.793,5.278l1.243-.164-.161-5.025s1.647-1.217,3.067-5.406a12.429,12.429,0,0,0,6.984,1.305l-3.885-3.772a17.569,17.569,0,0,0,10.627,3.722c4.332.208,8.935-1.667,11.141-5.4-1.866.1-4.226-.026-6.092.078" transform="translate(-6073.626 -8772)" fill="#403433"/>
      <path id="Trazado_154361" data-name="Trazado 154361" d="M34.032,28.858a.4.4,0,0,1,.129.482,1.165,1.165,0,0,1-1.46.7c-.222-.093-.317-.256-.294-.4.072-.3.387-.492.687-.649a1.187,1.187,0,0,1,.938-.127" transform="translate(-6073.018 -8771.127)" fill="#f69d7d"/>
      <path id="Trazado_154362" data-name="Trazado 154362" d="M30.989,19.565l-.012-.022c-1.02-.515-4.2-.136-6.344,1.021A1.345,1.345,0,0,0,25.7,21.8a3.871,3.871,0,0,0,1.736-.064c1.011-.192,1.933-.5,2.9-.745a1,1,0,0,0,.656-1.428" transform="translate(-6073.253 -8771.415)" fill="#403433"/>
      <path id="Trazado_154363" data-name="Trazado 154363" d="M34.5,19.524l.006-.011a7.233,7.233,0,0,1,5.822.614,1.426,1.426,0,0,1-.982,1.287,3.315,3.315,0,0,1-1.595.045c-.884-.122-1.694-.348-2.536-.53a1,1,0,0,1-.716-1.405" transform="translate(-6072.958 -8771.42)" fill="#403433"/>
      <path id="Trazado_154364" data-name="Trazado 154364" d="M26.452,24.628a1.523,1.523,0,1,0,1.59-1.452,1.523,1.523,0,0,0-1.59,1.452" transform="translate(-6073.198 -8771.298)" fill="#403433"/>
      <path id="Trazado_154365" data-name="Trazado 154365" d="M34.313,24.628a1.522,1.522,0,1,0,1.59-1.452,1.523,1.523,0,0,0-1.59,1.452" transform="translate(-6072.96 -8771.298)" fill="#403433"/>
      <path id="Trazado_154366" data-name="Trazado 154366" d="M41.7,29.626a2.875,2.875,0,1,1-3-2.742,2.875,2.875,0,0,1,3,2.742" transform="translate(-6072.911 -8771.186)" fill="#f9b092"/>
      <path id="Trazado_154367" data-name="Trazado 154367" d="M27.549,30.026a2.875,2.875,0,1,1-3-2.742,2.875,2.875,0,0,1,3,2.742" transform="translate(-6073.339 -8771.173)" fill="#f9b092"/>
      <path id="Trazado_154368" data-name="Trazado 154368" d="M15.061,24.74c-.406,1.405.17,2.888.737,4.237a2.294,2.294,0,0,0,.713,1.069.792.792,0,0,0,1.134-.184c.182-.378-.088-.806-.3-1.169s-.33-.911.024-1.138c.165-.106.38-.1.553-.189.377-.2.374-.736.277-1.151a6.415,6.415,0,0,0-.633-1.644c-.279-.506-.721-1.024-1.3-1.014-.6.01-1.041.6-1.209,1.184" transform="translate(-6073.548 -8771.286)" fill="#f9b092"/>
      <path id="Trazado_154369" data-name="Trazado 154369" d="M34.294,32.185c.074.124-.14.438-.671.689a3.224,3.224,0,0,1-4.038-1.287c-.286-.513-.28-.893-.147-.951.277-.128.979.9,2.262,1.3,1.274.42,2.442-.013,2.594.251" transform="translate(-6073.11 -8771.072)" fill="#f69d7d"/>
      <path id="Trazado_154370" data-name="Trazado 154370" d="M24.7,43.082s5.8,6.445,7.418,6.018,2.325-6.127,2.325-6.127,3.529.761,3.928,1.455.61,7.466-.57,8.705-5.051-2.242-5.051-2.242S29.423,55.2,27.57,54.784s-6.093-8.622-6.368-9.6S24.7,43.082,24.7,43.082" transform="translate(-6073.358 -8770.697)" fill="#fff"/>
      <path id="Trazado_154371" data-name="Trazado 154371" d="M16.36,58.254a6.133,6.133,0,1,1-6.133-6.133,6.133,6.133,0,0,1,6.133,6.133" transform="translate(-6073.876 -8770.421)" fill="#fbc0a4"/>
      <path id="Trazado_154372" data-name="Trazado 154372" d="M12.179,86.609a5.2,5.2,0,1,1-5.2-5.2,5.2,5.2,0,0,1,5.2,5.2" transform="translate(-6073.946 -8769.533)" fill="#fbc0a4"/>
      <path id="Trazado_154373" data-name="Trazado 154373" d="M16.232,59.658c-2.156,9.966-3.915,25.474-4.053,27.708H1.781S1.828,65.036,4.4,56.44Z" transform="translate(-6073.946 -8770.29)" fill="#fbc0a4"/>
      <path id="Trazado_154374" data-name="Trazado 154374" d="M9.064,112.018a2.7,2.7,0,1,1-2.7-2.7,2.7,2.7,0,0,1,2.7,2.7" transform="translate(-6073.889 -8768.688)" fill="#fbc0a4"/>
      <path id="Trazado_154375" data-name="Trazado 154375" d="M9.061,111.939c.53,1.958,4.289,3.069,5.4,4.237s.273,3.133.273,3.133a12.956,12.956,0,0,1,.324,2.734c-.064,1-1.085,1.319-2.307.654s-1.351.941-2.746.968-2-1.082-3.444-.113-2.822-11-2.822-11Z" transform="translate(-6073.887 -8768.607)" fill="#fbc0a4"/>
      <path id="Trazado_154376" data-name="Trazado 154376" d="M12.179,86.609a5.2,5.2,0,1,1-5.2-5.2,5.2,5.2,0,0,1,5.2,5.2" transform="translate(-6073.946 -8769.533)" fill="#fbc0a4"/>
      <path id="Trazado_154377" data-name="Trazado 154377" d="M9.064,112.018a2.7,2.7,0,1,1-2.7-2.7,2.7,2.7,0,0,1,2.7,2.7" transform="translate(-6073.889 -8768.688)" fill="#fbc0a4"/>
      <path id="Trazado_154378" data-name="Trazado 154378" d="M9.121,112.711c-.3-3.462,1.112-10.232,2.084-16.573a76.482,76.482,0,0,0,.974-9.681H1.78S3.127,110,3.8,113.328Z" transform="translate(-6073.946 -8769.38)" fill="#fbc0a4"/>
      <path id="Trazado_154379" data-name="Trazado 154379" d="M13.662,82.229s1.2-15.857,2.623-22.44h0A6.128,6.128,0,0,0,4.457,56.571h0C2.928,61.67,0,70.2,0,78.674c0,0,7.034,4.186,13.662,3.555" transform="translate(-6074 -8770.421)" fill="#ff9300"/>
      <g id="Grupo_69006" data-name="Grupo 69006" transform="translate(-59.488 8.558)">
        <path id="Trazado_154417" data-name="Trazado 154417" d="M304.486,118.759a9.222,9.222,0,1,1-12.878-2.063,9.222,9.222,0,0,1,12.878,2.063" transform="translate(-6109.587 -8763.241)" fill="#fbc0a4"/>
        <path id="Trazado_154418" data-name="Trazado 154418" d="M322.064,153.343a7.817,7.817,0,1,1-10.916-1.749,7.817,7.817,0,0,1,10.916,1.749" transform="translate(-6107.941 -8760.364)" fill="#fbc0a4"/>
        <path id="Trazado_154419" data-name="Trazado 154419" d="M305.555,120.359c6.159,14.04,16.314,32.575,18.114,35.418L311,164.944s-18.251-25.336-22.7-38.074Z" transform="translate(-6109.545 -8762.798)" fill="#fbc0a4"/>
        <path id="Trazado_154420" data-name="Trazado 154420" d="M315.419,151.425c1.471-.743,2.967-1.44,4.436-2.193,0,0-10.19-19.156-14.258-28.43h0a9.215,9.215,0,0,0-17.241,6.509h0c2.636,7.555,8.47,18.418,14.377,30.562,3.618-1.488,9.192-4.681,12.693-6.45" transform="translate(-6109.587 -8763.241)" fill="#ff9300"/>
        <path id="Trazado_154421" data-name="Trazado 154421" d="M313.453,150.448a7.817,7.817,0,1,1-5.2,9.757,7.818,7.818,0,0,1,5.2-9.757" transform="translate(-6107.941 -8760.365)" fill="#fbc0a4"/>
        <path id="Trazado_154422" data-name="Trazado 154422" d="M347.317,144.5a4.054,4.054,0,1,1-2.7,5.06,4.054,4.054,0,0,1,2.7-5.06" transform="translate(-6104.952 -8760.838)" fill="#fbc0a4"/>
        <path id="Trazado_154423" data-name="Trazado 154423" d="M349.887,144.484c-4.847,1.955-12.957,2.2-22.5,3.581a114.772,114.772,0,0,0-14.35,2.843l4.558,14.955s31.025-11.569,35.515-14Z" transform="translate(-6107.522 -8760.823)" fill="#fbc0a4"/>
        <path id="Trazado_154424" data-name="Trazado 154424" d="M363.989,158.236H349.44l-1.823-27.749h18.2Z" transform="translate(-6104.692 -8761.97)" fill="#623a33"/>
        <path id="Trazado_154425" data-name="Trazado 154425" d="M364.4,150.886l.9-13.65H348.061l.9,13.65Z" transform="translate(-6104.656 -8761.417)" fill="#efeeff"/>
        <path id="Trazado_154426" data-name="Trazado 154426" d="M366.684,130.283v-1.59h-8.823l-.367-2.357h-7.957l-.367,2.357H347v1.59h-.935v2.022h21.554v-2.022Z" transform="translate(-6104.819 -8762.31)" fill="#403433"/>
        <path id="Trazado_154427" data-name="Trazado 154427" d="M348.233,144.377a4.054,4.054,0,1,1-3.872,4.229,4.054,4.054,0,0,1,3.872-4.229" transform="translate(-6104.959 -8760.833)" fill="#fbc0a4"/>
        <path id="Trazado_154428" data-name="Trazado 154428" d="M365.812,150.476c-.2-.5-.732-.816-.907-1.325a1.651,1.651,0,0,1,.711-1.708c.515-.408,1.145-.658,1.644-1.085a1.56,1.56,0,0,0,.576-1.742c-.3-.626-1.171-.851-1.39-1.509a1.6,1.6,0,0,1,.672-1.578,3.665,3.665,0,0,0,1.2-1.339c.385-1.088-.814-2.206-1.968-2.208-1.3,0-2.231.8-3.413,1.156-1.513.451-1.883-1.367-3.043-2.235a2.941,2.941,0,0,0-1.874-.728c-.981.062-2.29,2.033-2.856,2.837a20.407,20.407,0,0,1-3.646,3.613c-.32.268-3.546,2.223-3.555,2.424l-.316,8.072a98.381,98.381,0,0,0,12.244-.076c1.546-.118,3.565-.019,4.993-.709a1.585,1.585,0,0,0,.927-1.86" transform="translate(-6104.689 -8761.504)" fill="#fbc0a4"/>
        <path id="Trazado_154429" data-name="Trazado 154429" d="M517.049,90.97a9.222,9.222,0,1,1-9.223-9.223,9.223,9.223,0,0,1,9.223,9.223" transform="translate(-6092.337 -8765.958)" fill="#fbc0a4"/>
        <path id="Trazado_154430" data-name="Trazado 154430" d="M510.929,129.334a7.818,7.818,0,1,1-7.817-7.817,7.818,7.818,0,0,1,7.817,7.817" transform="translate(-6092.609 -8762.703)" fill="#fbc0a4"/>
        <path id="Trazado_154431" data-name="Trazado 154431" d="M517.021,92.77c-3.243,14.984-5.885,35.953-6.094,39.311H495.294s.07-31.225,3.938-44.149Z" transform="translate(-6092.609 -8765.451)" fill="#fbc0a4"/>
        <path id="Trazado_154432" data-name="Trazado 154432" d="M507.2,123.843c1.627.261,3.249.573,4.879.824,0,0,2.977-21.493,5.119-31.391h0a9.215,9.215,0,0,0-17.782-4.836h0c-2.295,7.667-3.938,19.885-6.273,33.187,3.8.915,10.192,1.6,14.065,2.218" transform="translate(-6092.785 -8765.958)" fill="#ff9300"/>
        <path id="Trazado_154433" data-name="Trazado 154433" d="M532.217,111.03a4.054,4.054,0,1,1-1.862,5.422,4.055,4.055,0,0,1,1.862-5.422" transform="translate(-6089.774 -8763.595)" fill="#fbc0a4"/>
        <path id="Trazado_154434" data-name="Trazado 154434" d="M532.045,112.128c2.295-2.01,1.312-7.823,2.156-10.093s4.051-2.44,4.051-2.44a19.605,19.605,0,0,1,3.48-2.243c1.388-.572,2.5.6,2.408,2.684s2.16,1.2,3.121,3.07-.142,3.415,2.119,4.726-12.991,11.074-12.991,11.074Z" transform="translate(-6089.602 -8764.692)" fill="#fbc0a4"/>
        <path id="Trazado_154435" data-name="Trazado 154435" d="M499.678,122.311a7.817,7.817,0,1,1-3.591,10.456,7.816,7.816,0,0,1,3.591-10.456" transform="translate(-6092.608 -8762.704)" fill="#fbc0a4"/>
        <path id="Trazado_154436" data-name="Trazado 154436" d="M532.217,111.03a4.054,4.054,0,1,1-1.862,5.422,4.055,4.055,0,0,1,1.862-5.422" transform="translate(-6089.774 -8763.595)" fill="#fbc0a4"/>
        <path id="Trazado_154437" data-name="Trazado 154437" d="M534.721,111c-4.476,2.7-12.446,4.221-21.654,7.095a114.821,114.821,0,0,0-13.721,5.077l6.866,14.046s28.8-16.33,32.854-19.439Z" transform="translate(-6092.277 -8763.563)" fill="#fbc0a4"/>
        <path id="Trazado_154438" data-name="Trazado 154438" d="M584.529,66.515a9.222,9.222,0,1,1-12.878-2.063,9.223,9.223,0,0,1,12.878,2.063" transform="translate(-6086.673 -8767.517)" fill="#fbc0a4"/>
        <path id="Trazado_154439" data-name="Trazado 154439" d="M602.107,101.1a7.817,7.817,0,1,1-10.916-1.749,7.817,7.817,0,0,1,10.916,1.749" transform="translate(-6085.026 -8764.64)" fill="#fbc0a4"/>
        <path id="Trazado_154440" data-name="Trazado 154440" d="M585.6,68.114c6.159,14.04,16.314,32.575,18.114,35.418L591.046,112.7s-18.252-25.336-22.7-38.074Z" transform="translate(-6086.631 -8767.073)" fill="#fbc0a4"/>
        <path id="Trazado_154441" data-name="Trazado 154441" d="M595.462,99.181c1.471-.743,2.968-1.44,4.436-2.193,0,0-10.19-19.156-14.258-28.43h0a9.215,9.215,0,0,0-17.241,6.508l0,0c2.636,7.555,8.47,18.417,14.378,30.562,3.618-1.489,9.192-4.681,12.693-6.45" transform="translate(-6086.672 -8767.517)" fill="#ff9300"/>
        <path id="Trazado_154442" data-name="Trazado 154442" d="M588.876,102.005A7.817,7.817,0,1,1,592.1,112.58a7.818,7.818,0,0,1-3.223-10.575" transform="translate(-6085.026 -8764.64)" fill="#fbc0a4"/>
        <path id="Trazado_154443" data-name="Trazado 154443" d="M608.733,73.567a4.054,4.054,0,1,1,1.671,5.485,4.055,4.055,0,0,1-1.671-5.485" transform="translate(-6083.366 -8766.803)" fill="#fbc0a4"/>
        <path id="Trazado_154444" data-name="Trazado 154444" d="M610.325,73.4c-2.045,4.81-7.607,10.718-13.38,18.443a114.764,114.764,0,0,0-8.138,12.159l13.8,7.352s13.759-30.118,15.216-35.011Z" transform="translate(-6084.957 -8766.641)" fill="#fbc0a4"/>
        <path id="Trazado_154445" data-name="Trazado 154445" d="M608.7,75.164a77.644,77.644,0,0,0,4.38-11.51c.875-3.33,2.987-6.129,3.971-5.751s-2.012,6.131.275,6.513,4.394-2.126,6.359-4.571,6.125-9.159,7.128-7.748c1.085,1.526-6.138,10.426-5.18,11.238.669.566,8.345-8.181,9.954-7.143,1.7,1.1-8.524,8.469-8.142,10.079.392,1.658,9.265-6.677,10.321-5.053s-9.657,8.3-9.63,9.509,7.922-4.114,8.221-2.552c.316,1.654-7.554,5.7-11.589,7.722S614.6,80.5,613.49,80.937Z" transform="translate(-6083.33 -8768.399)" fill="#fbc0a4"/>
        <path id="Trazado_154446" data-name="Trazado 154446" d="M610.473,71.861a4.054,4.054,0,1,1-1.775,5.451,4.055,4.055,0,0,1,1.775-5.451" transform="translate(-6083.366 -8766.803)" fill="#fbc0a4"/>
        <path id="Trazado_154447" data-name="Trazado 154447" d="M596.277,126.919a9.222,9.222,0,1,1-9.223-9.223,9.223,9.223,0,0,1,9.223,9.223" transform="translate(-6085.854 -8763.017)" fill="#fbc0a4"/>
        <path id="Trazado_154448" data-name="Trazado 154448" d="M590.156,165.282a7.817,7.817,0,1,1-7.817-7.817,7.817,7.817,0,0,1,7.817,7.817" transform="translate(-6086.125 -8759.763)" fill="#fbc0a4"/>
        <path id="Trazado_154449" data-name="Trazado 154449" d="M596.249,128.719c-3.243,14.984-5.885,35.953-6.094,39.311H574.522s.07-31.225,3.938-44.149Z" transform="translate(-6086.125 -8762.511)" fill="#fbc0a4"/>
        <path id="Trazado_154450" data-name="Trazado 154450" d="M586.428,159.792c1.627.261,3.249.573,4.879.824,0,0,2.977-21.493,5.119-31.391h0a9.215,9.215,0,0,0-17.782-4.836h0c-2.294,7.667-3.938,19.885-6.272,33.187,3.8.915,10.191,1.6,14.064,2.218" transform="translate(-6086.303 -8763.017)" fill="#ff9300"/>
        <path id="Trazado_154451" data-name="Trazado 154451" d="M578.907,158.26a7.817,7.817,0,1,1-3.591,10.456,7.816,7.816,0,0,1,3.591-10.456" transform="translate(-6086.126 -8759.763)" fill="#fbc0a4"/>
        <path id="Trazado_154452" data-name="Trazado 154452" d="M611.445,146.979a4.054,4.054,0,1,1-1.862,5.422,4.055,4.055,0,0,1,1.862-5.422" transform="translate(-6083.291 -8760.654)" fill="#fbc0a4"/>
        <path id="Trazado_154453" data-name="Trazado 154453" d="M613.949,146.948c-4.476,2.7-12.446,4.221-21.654,7.095a114.837,114.837,0,0,0-13.721,5.077l6.866,14.046s28.8-16.33,32.854-19.439Z" transform="translate(-6085.794 -8760.623)" fill="#fbc0a4"/>
        <line id="Línea_146" data-name="Línea 146" x1="12.372" y1="1.906" transform="translate(-5470.065 -8623.037)" fill="none" stroke="#403433" stroke-linecap="round" stroke-miterlimit="10" stroke-width="2.172"/>
        <path id="Trazado_154454" data-name="Trazado 154454" d="M611.445,146.979a4.054,4.054,0,1,1-1.862,5.422,4.055,4.055,0,0,1,1.862-5.422" transform="translate(-6083.291 -8760.654)" fill="#fbc0a4"/>
        <path id="Trazado_154455" data-name="Trazado 154455" d="M611.273,147.835c3.024-2.06,6.513-11.16,8.258-11.65s12.987,1.381,13.181,2.869-1.55,2.213-.968,2.917.968,1.583-.582,2.985-5.427,6.021-8.723,6.716a24.618,24.618,0,0,0-6.82,2.943Z" transform="translate(-6083.119 -8761.509)" fill="#fbc0a4"/>
        <path id="Trazado_154456" data-name="Trazado 154456" d="M511.062,18.726a9.222,9.222,0,1,1-11.755-5.648,9.222,9.222,0,0,1,11.755,5.648" transform="translate(-6092.786 -8771.619)" fill="#fbc0a4"/>
        <path id="Trazado_154457" data-name="Trazado 154457" d="M518.018,56.912a7.817,7.817,0,1,1-9.965-4.788,7.818,7.818,0,0,1,9.965,4.788" transform="translate(-6091.993 -8768.418)" fill="#fbc0a4"/>
        <path id="Trazado_154458" data-name="Trazado 154458" d="M511.542,20.362c1.9,15.213,6.351,35.874,7.268,39.111l-14.753,5.178s-10.272-29.487-10.9-42.964Z" transform="translate(-6092.784 -8770.98)" fill="#fbc0a4"/>
        <path id="Trazado_154459" data-name="Trazado 154459" d="M512.23,53.154c1.622-.293,3.255-.534,4.877-.837,0,0-4.308-21.267-5.564-31.316h0a9.215,9.215,0,0,0-18.38,1.325h0c.374,7.994,2.868,20.068,5.069,33.392,3.891-.395,10.146-1.866,14.005-2.564" transform="translate(-6092.785 -8771.619)" fill="#ff9300"/>
        <path id="Trazado_154460" data-name="Trazado 154460" d="M505.077,54.009a7.817,7.817,0,1,1,.075,11.055,7.817,7.817,0,0,1-.075-11.055" transform="translate(-6091.993 -8768.418)" fill="#fbc0a4"/>
        <path id="Trazado_154461" data-name="Trazado 154461" d="M532.123,32.48a4.054,4.054,0,1,1,.039,5.734,4.055,4.055,0,0,1-.039-5.734" transform="translate(-6089.691 -8770.088)" fill="#fbc0a4"/>
        <path id="Trazado_154462" data-name="Trazado 154462" d="M534.255,32.389c-3.33,4.028-10.347,8.105-18.083,13.865a114.851,114.851,0,0,0-11.266,9.334l11.13,10.981S537.809,41.62,540.6,37.346Z" transform="translate(-6091.822 -8769.997)" fill="#fbc0a4"/>
        <path id="Trazado_154463" data-name="Trazado 154463" d="M533.44,31.6a4.054,4.054,0,1,1-2.163,5.31,4.054,4.054,0,0,1,2.163-5.31" transform="translate(-6089.69 -8770.087)" fill="#fbc0a4"/>
        <path id="Trazado_154464" data-name="Trazado 154464" d="M551.973,31.731c-.36-.4-.97-.511-1.311-.928a1.651,1.651,0,0,1,.073-1.848c.342-.563.846-1.015,1.166-1.589a1.559,1.559,0,0,0-.067-1.833c-.5-.485-1.392-.393-1.827-.933a1.607,1.607,0,0,1,.082-1.715,3.661,3.661,0,0,0,.661-1.673c-.017-1.154-1.53-1.786-2.613-1.386-2.008.741-2.84,3.12-4.795,3.954-.792.339-2.008.46-2.329-.536a4.029,4.029,0,0,1,.263-2.43,3.422,3.422,0,0,0-.472-2.966,4.688,4.688,0,0,0-2.046-1.632,1.01,1.01,0,0,0-.847-.106c-.4.193-.4.752-.333,1.19q.227,1.6.455,3.212a15.716,15.716,0,0,1-.279,4.679c-1.069,3.946-2.412,4.458-5.721,8.533l3.824,6.794c4.609-2.3,7.748-2.618,11.454-4.324,1.41-.648,3.336-1.257,4.435-2.4a1.585,1.585,0,0,0,.224-2.066" transform="translate(-6089.602 -8771.334)" fill="#fbc0a4"/>
        <path id="Trazado_154465" data-name="Trazado 154465" d="M546.816,13.982,543.141,36l-3.319-.013,4.2-22.966Z" transform="translate(-6088.965 -8771.581)" fill="#403433"/>
        <path id="Trazado_154466" data-name="Trazado 154466" d="M547.361,19.542c-2.978,1.768-5.666,5.439-5.247,6.443s1.888.241.884,2.338.876,1.683-.839,4.767.388,2.618,2.384,2.72,2.818-16.267,2.818-16.267" transform="translate(-6088.826 -8771.049)" fill="#fbc0a4"/>
        <path id="Trazado_154467" data-name="Trazado 154467" d="M336.959,25.446a9.222,9.222,0,1,0,5.13-11.991,9.223,9.223,0,0,0-5.13,11.991" transform="translate(-6105.619 -8771.601)" fill="#fbc0a4"/>
        <path id="Trazado_154468" data-name="Trazado 154468" d="M357.553,60.828A7.817,7.817,0,1,0,361.9,50.665a7.818,7.818,0,0,0-4.349,10.164" transform="translate(-6103.926 -8768.547)" fill="#fbc0a4"/>
        <path id="Trazado_154469" data-name="Trazado 154469" d="M337.958,27.205c8.583,12.7,19.71,33.366,21.152,36.406L373.622,57.8s-12.553-31.139-20.951-41.7Z" transform="translate(-6105.482 -8771.329)" fill="#fbc0a4"/>
        <path id="Trazado_154470" data-name="Trazado 154470" d="M350.081,91.285a4.054,4.054,0,1,1-1.635-5.5,4.055,4.055,0,0,1,1.635,5.5" transform="translate(-6105.114 -8765.667)" fill="#fbc0a4"/>
        <path id="Trazado_154471" data-name="Trazado 154471" d="M350.429,91.058c-.7,2.969,3.476,7.129,4.108,9.469s-1.88,4.338-1.88,4.338a19.649,19.649,0,0,1-1.53,3.847c-.8,1.272-2.38.966-3.519-.785s-2.459.276-4.324-.686-1.869-2.864-4.471-2.617,4.141-16.559,4.141-16.559Z" transform="translate(-6105.462 -8765.441)" fill="#fbc0a4"/>
        <path id="Trazado_154472" data-name="Trazado 154472" d="M371.743,61.643a7.817,7.817,0,1,1-3.151-10.6,7.818,7.818,0,0,1,3.151,10.6" transform="translate(-6103.92 -8768.547)" fill="#fbc0a4"/>
        <path id="Trazado_154473" data-name="Trazado 154473" d="M350.093,91.285a4.054,4.054,0,1,1-1.635-5.5,4.055,4.055,0,0,1,1.635,5.5" transform="translate(-6105.113 -8765.667)" fill="#fbc0a4"/>
        <path id="Trazado_154474" data-name="Trazado 154474" d="M350.082,93.855c2.076-4.8,8.8-12.732,14.623-20.418a114.714,114.714,0,0,0,8.22-12.1l-13.748-7.445s-15.08,32.09-16.57,36.974Z" transform="translate(-6105.102 -8768.237)" fill="#fbc0a4"/>
        <path id="Trazado_154475" data-name="Trazado 154475" d="M355.754,56.77c-3.855-6.691-11.99-20.9-17.661-29.295l0,0a9.214,9.214,0,0,1,14.707-11.1l0,0c4.982,6.263,10.91,16.638,17.926,28.791-3.474,4.559-13.558,10.772-14.979,11.611" transform="translate(-6105.619 -8771.601)" fill="#ff9300"/>
        <path id="Trazado_154476" data-name="Trazado 154476" d="M315.261,25.188a9.222,9.222,0,1,1-5.487-11.832,9.222,9.222,0,0,1,5.487,11.832" transform="translate(-6108.803 -8771.601)" fill="#fbc0a4"/>
        <path id="Trazado_154477" data-name="Trazado 154477" d="M295.527,61.175a7.817,7.817,0,1,1-4.651-10.03,7.817,7.817,0,0,1,4.651,10.03" transform="translate(-6110.195 -8768.501)" fill="#fbc0a4"/>
        <path id="Trazado_154478" data-name="Trazado 154478" d="M315.542,26.963c-8.2,12.955-18.7,33.941-20.052,37.023l-14.68-5.378S292.424,27.107,300.5,16.3Z" transform="translate(-6110.159 -8771.313)" fill="#fbc0a4"/>
        <path id="Trazado_154479" data-name="Trazado 154479" d="M308.484,88.51a4.054,4.054,0,1,1-5.512-1.576,4.054,4.054,0,0,1,5.512,1.576" transform="translate(-6108.516 -8765.575)" fill="#fbc0a4"/>
        <path id="Trazado_154480" data-name="Trazado 154480" d="M308.4,88.352c2.127,2.186,7.88.9,10.193,1.627s2.647,3.918,2.647,3.918a19.563,19.563,0,0,1,2.421,3.358c.644,1.357-.464,2.526-2.554,2.544s-1.089,2.221-2.9,3.277-3.419.037-4.61,2.364-11.737-12.394-11.737-12.394Z" transform="translate(-6108.436 -8765.417)" fill="#fbc0a4"/>
        <path id="Trazado_154481" data-name="Trazado 154481" d="M295.021,54.691a7.817,7.817,0,1,1-10.629-3.04,7.817,7.817,0,0,1,10.629,3.04" transform="translate(-6110.195 -8768.501)" fill="#fbc0a4"/>
        <path id="Trazado_154482" data-name="Trazado 154482" d="M308.484,88.51a4.054,4.054,0,1,1-5.512-1.576,4.054,4.054,0,0,1,5.512,1.576" transform="translate(-6108.516 -8765.575)" fill="#fbc0a4"/>
        <path id="Trazado_154483" data-name="Trazado 154483" d="M310.088,91.131c-2.927-4.329-6.005-14.263-9.356-23.308a114.72,114.72,0,0,0-5.787-13.437l-13.669,7.59s18.953,29.967,22.268,33.849Z" transform="translate(-6110.121 -8768.196)" fill="#fbc0a4"/>
        <path id="Trazado_154484" data-name="Trazado 154484" d="M300.083,57.575s9.893-21.767,15.31-30.325l0,0a9.214,9.214,0,0,0-15.033-10.657l0,0c-4.791,6.411-13.337,16.937-17.72,28.9,0,0,7.765,9.548,17.45,12.085" transform="translate(-6110.009 -8771.601)" fill="#ff9300"/>
        <path id="Trazado_154485" data-name="Trazado 154485" d="M449.144,167.08c-1.089-7.645-3.355-23.863-5.5-33.762h0a9.215,9.215,0,0,1,17.782-4.836h0c2.293,7.667,3.938,19.5,5.931,33.394-4.92,2.939-16.593,4.955-18.223,5.206" transform="translate(-6096.859 -8762.683)" fill="#ff9300"/>
        <path id="Trazado_154486" data-name="Trazado 154486" d="M405.8,164.792s.777-18.71,1-29.378h0a9.215,9.215,0,0,0-17.782-4.837h0c-2.293,7.667-3.191,19.629-3.01,34.479a137.283,137.283,0,0,0,19.8-.263" transform="translate(-6101.554 -8762.51)" fill="#ff9300"/>
        <path id="Trazado_154487" data-name="Trazado 154487" d="M465.75,160.548c0,7.664-1.1,14.009-3.132,15.935-2.936,2.773-11.333,2.246-21.095.672s-29.394-4.331-29.394-4.331,14.633-8.083,26.639-10.327a43.715,43.715,0,0,1,12.627-.7,18.416,18.416,0,0,1,5.333,1.163,76.964,76.964,0,0,0,9.021-2.408" transform="translate(-6099.413 -8759.51)" fill="#fbc0a4"/>
        <path id="Trazado_154488" data-name="Trazado 154488" d="M418.679,173.745c1.874.268,3.992.573,6.21.9,8.382-3.928,25.831-9.476,25.426-12.943l-5.708-.089Z" transform="translate(-6098.877 -8759.424)" fill="#f69d7d"/>
        <path id="Trazado_154489" data-name="Trazado 154489" d="M458.535,163.16s-34.761,9.858-44.6,14.025c-12.154,5.149-17.545,3.159-20.482-1.858-2.314-3.935-2.673-5.835-3.4-12.907A115.909,115.909,0,0,0,405.463,162s18.115-2.648,29.812-3.609c15.4-1.265,20.863,1.284,23.26,4.772" transform="translate(-6101.22 -8759.713)" fill="#fbc0a4"/>
        <path id="Trazado_154490" data-name="Trazado 154490" d="M390.657,22.014a9.222,9.222,0,1,0,9.223-9.223,9.223,9.223,0,0,0-9.223,9.223" transform="translate(-6101.17 -8771.601)" fill="#fbc0a4"/>
        <path id="Trazado_154491" data-name="Trazado 154491" d="M396.565,62.549a7.817,7.817,0,1,0,7.817-7.817,7.817,7.817,0,0,0-7.817,7.817" transform="translate(-6100.687 -8768.169)" fill="#fbc0a4"/>
        <path id="Trazado_154492" data-name="Trazado 154492" d="M390.933,23.814c3.243,14.984,4.194,36.131,6.346,43.63l15.381-1.969s-.07-33.574-3.938-46.5Z" transform="translate(-6101.148 -8771.094)" fill="#fbc0a4"/>
        <path id="Trazado_154493" data-name="Trazado 154493" d="M410.115,98.4a4.054,4.054,0,1,0,2.9-4.945,4.055,4.055,0,0,0-2.9,4.945" transform="translate(-6099.589 -8765.011)" fill="#fbc0a4"/>
        <path id="Trazado_154494" data-name="Trazado 154494" d="M410.606,98.1c-.031,3.05-5.08,6.091-6.255,8.21s.788,4.663.788,4.663a19.594,19.594,0,0,0,.565,4.1c.471,1.426,2.079,1.507,3.606.079s2.321.856,4.362.369,2.5-2.332,4.968-1.47-.058-17.07-.058-17.07Z" transform="translate(-6100.08 -8764.71)" fill="#fbc0a4"/>
        <path id="Trazado_154495" data-name="Trazado 154495" d="M396.818,64.518a7.817,7.817,0,1,0,5.6-9.534,7.816,7.816,0,0,0-5.6,9.534" transform="translate(-6100.687 -8768.169)" fill="#fbc0a4"/>
        <path id="Trazado_154496" data-name="Trazado 154496" d="M410.115,98.4a4.054,4.054,0,1,0,2.9-4.945,4.055,4.055,0,0,0-2.9,4.945" transform="translate(-6099.589 -8765.011)" fill="#fbc0a4"/>
        <path id="Trazado_154497" data-name="Trazado 154497" d="M411.194,101.12c-.869-5.153-5.495-14.467-9.311-23.325A114.618,114.618,0,0,1,396.8,64.076l15.129-3.939s6.96,34.768,7.24,39.865Z" transform="translate(-6100.668 -8767.727)" fill="#fbc0a4"/>
        <path id="Trazado_154498" data-name="Trazado 154498" d="M394.177,58.979c-1.089-7.645-1.08-24.761-3.222-34.659h0a9.215,9.215,0,0,1,17.782-4.836h0c2.294,7.667,3.939,19.5,5.932,33.393-4.92,2.939-18.869,5.854-20.5,6.1" transform="translate(-6101.17 -8771.601)" fill="#ff9300"/>
        <path id="Trazado_154499" data-name="Trazado 154499" d="M461.931,22.014a9.222,9.222,0,1,1-9.223-9.223,9.223,9.223,0,0,1,9.223,9.223" transform="translate(-6096.847 -8771.601)" fill="#fbc0a4"/>
        <path id="Trazado_154500" data-name="Trazado 154500" d="M455.809,62.549a7.817,7.817,0,1,1-7.817-7.817,7.817,7.817,0,0,1,7.817,7.817" transform="translate(-6097.119 -8768.169)" fill="#fbc0a4"/>
        <path id="Trazado_154501" data-name="Trazado 154501" d="M461.9,23.814c-3.243,14.984-5.885,38.3-6.094,41.661H440.176s.07-33.574,3.938-46.5Z" transform="translate(-6097.119 -8771.094)" fill="#fbc0a4"/>
        <path id="Trazado_154502" data-name="Trazado 154502" d="M450.989,98.754a4.054,4.054,0,1,1-4.054-4.054,4.054,4.054,0,0,1,4.054,4.054" transform="translate(-6096.897 -8764.897)" fill="#fbc0a4"/>
        <path id="Trazado_154503" data-name="Trazado 154503" d="M450.981,98.447c.8,2.944,6.451,4.614,8.121,6.37s.413,4.711.413,4.711a19.584,19.584,0,0,1,.486,4.111c-.1,1.5-1.631,1.983-3.468.984s-2.031,1.414-4.129,1.456-3.006-1.627-5.177-.171-4.245-16.534-4.245-16.534Z" transform="translate(-6096.889 -8764.592)" fill="#fbc0a4"/>
        <path id="Trazado_154504" data-name="Trazado 154504" d="M455.809,62.549a7.817,7.817,0,1,1-7.817-7.817,7.817,7.817,0,0,1,7.817,7.817" transform="translate(-6097.119 -8768.169)" fill="#fbc0a4"/>
        <path id="Trazado_154505" data-name="Trazado 154505" d="M450.989,98.754a4.054,4.054,0,1,1-4.054-4.054,4.054,4.054,0,0,1,4.054,4.054" transform="translate(-6096.897 -8764.897)" fill="#fbc0a4"/>
        <path id="Trazado_154506" data-name="Trazado 154506" d="M451.211,101.433c-.458-5.206,1.674-15.385,3.135-24.919a114.767,114.767,0,0,0,1.464-14.557H440.175s2.023,35.4,3.037,40.4Z" transform="translate(-6097.119 -8767.577)" fill="#fbc0a4"/>
        <path id="Trazado_154507" data-name="Trazado 154507" d="M458.167,58.06s1.8-23.842,3.944-33.74h0a9.215,9.215,0,0,0-17.782-4.837h0c-2.293,7.668-6.7,20.492-6.7,33.234,0,0,10.576,6.3,20.542,5.345" transform="translate(-6097.328 -8771.601)" fill="#ff9300"/>
      </g>
      <path id="Trazado_154508" data-name="Trazado 154508" d="M735.948,84.947a6.145,6.145,0,1,0,7.833-3.764,6.145,6.145,0,0,0-7.833,3.764" transform="translate(-6109.708 -8769.551)" fill="#fbc0a4"/>
      <path id="Trazado_154509" data-name="Trazado 154509" d="M730.935,111.695a5.209,5.209,0,1,0,6.639-3.19,5.208,5.208,0,0,0-6.639,3.19" transform="translate(-6109.858 -8768.721)" fill="#fbc0a4"/>
      <path id="Trazado_154510" data-name="Trazado 154510" d="M735.768,86.3c-1.267,10.137-4.232,23.9-4.842,26.062l9.83,3.449s6.844-19.648,7.265-28.628Z" transform="translate(-6109.85 -8769.385)" fill="#fbc0a4"/>
      <path id="Trazado_154511" data-name="Trazado 154511" d="M735.278,107.888c-1.081-.2-2.169-.356-3.25-.558,0,0,2.87-14.17,3.707-20.866h0a6.139,6.139,0,0,1,12.246.883h0c-.249,5.327-1.911,13.371-3.377,22.249-2.593-.263-6.761-1.244-9.332-1.708" transform="translate(-6109.816 -8769.55)" fill="#ff9300"/>
      <path id="Trazado_154512" data-name="Trazado 154512" d="M739.558,109.761a5.209,5.209,0,1,0-.049,7.368,5.21,5.21,0,0,0,.049-7.368" transform="translate(-6109.858 -8768.721)" fill="#fbc0a4"/>
      <path id="Trazado_154513" data-name="Trazado 154513" d="M720.451,94.736a2.7,2.7,0,1,0-.026,3.82,2.7,2.7,0,0,0,.026-3.82" transform="translate(-6110.307 -8769.153)" fill="#fbc0a4"/>
      <path id="Trazado_154514" data-name="Trazado 154514" d="M720.439,94.712c2.219,2.683,6.894,5.4,12.049,9.238a76.477,76.477,0,0,1,7.506,6.22l-7.415,7.316s-14.508-16.623-16.368-19.471Z" transform="translate(-6110.295 -8769.13)" fill="#fbc0a4"/>
      <path id="Trazado_154515" data-name="Trazado 154515" d="M719.574,94.146a2.7,2.7,0,1,0,1.44,3.538,2.7,2.7,0,0,0-1.44-3.538" transform="translate(-6110.307 -8769.153)" fill="#fbc0a4"/>
      <path id="Trazado_154516" data-name="Trazado 154516" d="M706.667,92.947c.24-.267.647-.34.874-.618a1.1,1.1,0,0,0-.049-1.231c-.228-.375-.564-.677-.776-1.059a1.039,1.039,0,0,1,.043-1.222c.331-.322.928-.261,1.218-.62a1.072,1.072,0,0,0-.055-1.143,2.436,2.436,0,0,1-.44-1.115c.011-.769,1.019-1.19,1.741-.923a9.726,9.726,0,0,1,2.436,1.637c.452.352,1.549,1.439,2.16,1.128a1.144,1.144,0,0,0,.536-.78,8.663,8.663,0,0,0,.108-.97,3.739,3.739,0,0,1,1.33-2.425,1.11,1.11,0,0,1,.931-.317.9.9,0,0,1,.587.822,3.232,3.232,0,0,1-.174,1.059,9.48,9.48,0,0,0,.488,6.044c.653,1.446,2.125,2.632,3.109,3.845l-2.548,4.526c-3.07-1.53-5.945-2.527-8.415-3.663a9.779,9.779,0,0,1-2.955-1.6,1.055,1.055,0,0,1-.149-1.376" transform="translate(-6110.59 -8769.477)" fill="#fbc0a4"/>
      <path id="Trazado_154517" data-name="Trazado 154517" d="M713.114,193.041l-.394,4.706-1.657,3.065-5.222-1.734-.739-3.491.3-5.426Z" transform="translate(-6110.632 -8766.237)" fill="#403433"/>
      <path id="Trazado_154518" data-name="Trazado 154518" d="M692.252,200.887c1.8-.844,7.373-2.463,11.511-5.437a1.981,1.981,0,0,1,1.512-.354l.282.054a4.075,4.075,0,0,0,2.821,3.413c1.789.6,4.781-.964,4.781-.964l-.357,6.674H691.311a1.044,1.044,0,0,1-.485-.691s-.867-1.62,1.426-2.694" transform="translate(-6111.069 -8766.089)" fill="#403433"/>
      <path id="Trazado_154519" data-name="Trazado 154519" d="M721.812,147.27,716.835,196.9s-8.12,1.279-13.6-.848l3.442-50.111Z" transform="translate(-6110.688 -8767.577)" fill="#623a33"/>
      <path id="Trazado_154520" data-name="Trazado 154520" d="M706.577,146.148a7.6,7.6,0,1,0,8.23-6.9,7.6,7.6,0,0,0-8.23,6.9" transform="translate(-6110.588 -8767.781)" fill="#623a33"/>
      <rect id="Rectángulo_9410" data-name="Rectángulo 9410" width="48.878" height="62.579" transform="translate(-5381.894 -8624.394)" fill="#fdc964"/>
      <rect id="Rectángulo_9411" data-name="Rectángulo 9411" width="21.023" height="62.579" transform="translate(-5333.022 -8624.394)" fill="#f9db9e"/>
      <path id="Trazado_154521" data-name="Trazado 154521" d="M736.407,83.8a6.145,6.145,0,1,0,8.438-2.079,6.146,6.146,0,0,0-8.438,2.079" transform="translate(-6109.71 -8769.551)" fill="#ff9300"/>
      <path id="Trazado_154522" data-name="Trazado 154522" d="M773.931,88.447a6.145,6.145,0,1,0,6.145-6.145,6.145,6.145,0,0,0-6.145,6.145" transform="translate(-6108.546 -8769.506)" fill="#ff9300"/>
      <path id="Trazado_154523" data-name="Trazado 154523" d="M780.035,92.268C782.6,110,782.6,130.93,782.6,130.93s-21.039-.279-36.728-3.211l.306-15.512-3.764-25.57-5.035-3.891c4.42-4.1,19.947-9.53,24.3-8.843,6.846,1.081,23.848,9.111,24.357,11.033Z" transform="translate(-6109.654 -8769.763)" fill="#ff9300"/>
      <path id="Trazado_154524" data-name="Trazado 154524" d="M765.371,76.028l1.544-14.986-11.424,5.816.109.547.318,7.54c.091,2.155,0,4.333,2.269,4.7,2.712.436,6.928-1.13,7.183-3.613" transform="translate(-6109.105 -8770.15)" fill="#fbc0a4"/>
      <path id="Trazado_154525" data-name="Trazado 154525" d="M755.8,72.084l-.2-4.679-.109-.546,11.425-5.817-.729,7.071c-2.041,3.064-6.072,3.984-10.389,3.971" transform="translate(-6109.105 -8770.15)" fill="#f69d7d"/>
      <path id="Trazado_154526" data-name="Trazado 154526" d="M748.107,55.567c.05-3.571-.165-8.706,1.263-12.443l0-.008,0-.008a7.327,7.327,0,0,1,3.015-3.853c1.567-1.127,3.748-1.857,7.022-2.117,6.877-.548,11.349,2.029,14.34,6.506,2.23,3.337,1.28,7.715.824,9.294,1.271.115,3.04.883,2.636,4.365-.618,5.322-4.47,5.428-5.607,5.657,0,0-2.121,9.476-13.811,8.568s-9.773-9.959-9.688-15.961" transform="translate(-6109.334 -8770.877)" fill="#fbc0a4"/>
      <path id="Trazado_154527" data-name="Trazado 154527" d="M747.906,44.053c-3.13-2.686-4.984-6.442-3.861-10.789,1.7.767,3.3,1.392,5,2.158a5.762,5.762,0,0,1-2.037-5.338s21.065,4.52,25.538,7.936a7.024,7.024,0,0,1,2.466,2.967l3.2-3.936s1.912,4.756-1.824,6.389a4.923,4.923,0,0,1,1.931,2.962c1.031,4.048-1.981,7.313-1.981,7.313a3.045,3.045,0,0,0-2.671-.262c-1.356.478-2.875,2.9-2.8,5.288l-1.245-.164.161-5.033s-1.65-1.22-3.072-5.417a12.458,12.458,0,0,1-7,1.308l3.893-3.779a17.6,17.6,0,0,1-10.646,3.73c-4.341.208-8.951-1.67-11.161-5.412,1.87.1,4.234-.026,6.1.078" transform="translate(-6109.52 -8771.088)" fill="#403433"/>
      <path id="Trazado_154528" data-name="Trazado 154528" d="M755.917,58.995a1.2,1.2,0,0,1,.94.128c.3.157.616.349.689.651.024.147-.073.31-.295.4a1.167,1.167,0,0,1-1.463-.7.4.4,0,0,1,.129-.484" transform="translate(-6109.097 -8770.214)" fill="#f69d7d"/>
      <path id="Trazado_154529" data-name="Trazado 154529" d="M759.1,49.685l.012-.022c1.022-.516,4.208-.136,6.356,1.023a1.349,1.349,0,0,1-1.067,1.239,3.89,3.89,0,0,1-1.74-.064c-1.012-.193-1.936-.5-2.9-.746a1,1,0,0,1-.657-1.431" transform="translate(-6108.999 -8770.502)" fill="#403433"/>
      <path id="Trazado_154530" data-name="Trazado 154530" d="M755.568,49.644l-.006-.011a7.252,7.252,0,0,0-5.834.615,1.429,1.429,0,0,0,.985,1.289,3.324,3.324,0,0,0,1.6.045c.886-.122,1.7-.349,2.541-.531a1,1,0,0,0,.717-1.407" transform="translate(-6109.28 -8770.507)" fill="#403433"/>
      <path id="Trazado_154531" data-name="Trazado 154531" d="M763.548,54.758a1.525,1.525,0,1,1-1.593-1.455,1.525,1.525,0,0,1,1.593,1.455" transform="translate(-6108.953 -8770.385)" fill="#403433"/>
      <path id="Trazado_154532" data-name="Trazado 154532" d="M755.673,54.758a1.525,1.525,0,1,1-1.594-1.455,1.526,1.526,0,0,1,1.594,1.455" transform="translate(-6109.192 -8770.385)" fill="#403433"/>
      <path id="Trazado_154533" data-name="Trazado 154533" d="M748.352,59.765a2.88,2.88,0,1,0,3.008-2.747,2.88,2.88,0,0,0-3.008,2.747" transform="translate(-6109.321 -8770.272)" fill="#f9b092"/>
      <path id="Trazado_154534" data-name="Trazado 154534" d="M762.529,60.165a2.88,2.88,0,1,0,3.008-2.747,2.881,2.881,0,0,0-3.008,2.747" transform="translate(-6108.892 -8770.26)" fill="#f9b092"/>
      <path id="Trazado_154535" data-name="Trazado 154535" d="M774.969,54.869c.407,1.408-.17,2.893-.738,4.245a2.3,2.3,0,0,1-.715,1.07A.793.793,0,0,1,772.381,60c-.183-.38.087-.808.3-1.172s.33-.912-.024-1.141c-.165-.106-.381-.1-.554-.189-.378-.2-.375-.738-.278-1.153a6.463,6.463,0,0,1,.634-1.647c.28-.507.722-1.026,1.3-1.016.607.01,1.044.6,1.212,1.186" transform="translate(-6108.612 -8770.373)" fill="#f9b092"/>
      <path id="Trazado_154536" data-name="Trazado 154536" d="M755.747,62.329c.152-.265,1.323.169,2.6-.252,1.285-.395,1.989-1.427,2.267-1.3.133.058.139.439-.149.952a3.229,3.229,0,0,1-4.045,1.29c-.532-.252-.747-.566-.672-.69" transform="translate(-6109.098 -8770.158)" fill="#f69d7d"/>
      <path id="Trazado_154537" data-name="Trazado 154537" d="M765.734,73.246s-5.815,6.457-7.433,6.029-2.33-6.139-2.33-6.139-3.535.762-3.935,1.458-.611,7.479.571,8.72,5.06-2.246,5.06-2.246,3.329,4.315,5.186,3.9,6.106-8.637,6.381-9.614-3.5-2.11-3.5-2.11" transform="translate(-6109.219 -8769.783)" fill="#fff"/>
      <path id="Trazado_154538" data-name="Trazado 154538" d="M712.27,139.4a7.6,7.6,0,1,0,9.237,5.486,7.6,7.6,0,0,0-9.237-5.486" transform="translate(-6110.588 -8767.782)" fill="#623a33"/>
      <path id="Trazado_154539" data-name="Trazado 154539" d="M746.811,126.409a8.965,8.965,0,1,0,10.9,6.474,8.965,8.965,0,0,0-10.9-6.474" transform="translate(-6109.573 -8768.178)" fill="#623a33"/>
      <path id="Trazado_154540" data-name="Trazado 154540" d="M712.1,139.787,747.657,126.4l4.426,17.375L715.852,154.51Z" transform="translate(-6110.42 -8768.17)" fill="#623a33"/>
      <path id="Trazado_154541" data-name="Trazado 154541" d="M745.619,126.134h27.725l.037,0,.037,0h8.929v9.024h0a8.964,8.964,0,0,1-8.963,8.9H754.616v0a9.18,9.18,0,0,1-1.031-.056,8.961,8.961,0,0,1-7.928-8.844h-.037Z" transform="translate(-6109.404 -8768.178)" fill="#403433"/>
      <path id="Trazado_154542" data-name="Trazado 154542" d="M745.619,126.134h27.725l.037,0,.037,0h8.929v9.024h0a8.964,8.964,0,0,1-8.963,8.9H754.616v0a9.18,9.18,0,0,1-1.031-.056,8.961,8.961,0,0,1-7.928-8.844h-.037Z" transform="translate(-6109.404 -8768.178)" fill="#623a33"/>
      <path id="Trazado_154543" data-name="Trazado 154543" d="M744.964,193.041l.816,4.706-.871,3.065-5.667-1.734-1.635-3.491-1.091-5.426Z" transform="translate(-6109.68 -8766.237)" fill="#403433"/>
      <path id="Trazado_154544" data-name="Trazado 154544" d="M725.308,200.887c1.581-.844,7.523-2.463,10.9-5.437a1.677,1.677,0,0,1,1.421-.354l.3.054a5.744,5.744,0,0,0,3.7,3.413c1.942.6,4.532-.964,4.532-.964l1.358,6.674H725.237a1.484,1.484,0,0,1-.663-.691,1.7,1.7,0,0,1,.734-2.694" transform="translate(-6110.054 -8766.089)" fill="#403433"/>
      <path id="Trazado_154545" data-name="Trazado 154545" d="M741.664,145.5l4.835,49.834s-6.077,2.772-11.9,1.979l-7.961-49.577Z" transform="translate(-6109.979 -8767.591)" fill="#623a33"/>
      <path id="Trazado_154546" data-name="Trazado 154546" d="M726.638,147.928a7.6,7.6,0,1,0,6.4-8.632,7.6,7.6,0,0,0-6.4,8.632" transform="translate(-6109.982 -8767.781)" fill="#623a33"/>
      <path id="Trazado_154547" data-name="Trazado 154547" d="M732.277,139.4a7.6,7.6,0,1,0,9.237,5.486,7.6,7.6,0,0,0-9.237-5.486" transform="translate(-6109.982 -8767.782)" fill="#623a33"/>
      <path id="Trazado_154548" data-name="Trazado 154548" d="M770.616,126.409a8.965,8.965,0,1,0,10.9,6.474,8.965,8.965,0,0,0-10.9-6.474" transform="translate(-6108.852 -8768.178)" fill="#623a33"/>
      <path id="Trazado_154549" data-name="Trazado 154549" d="M732.109,139.787,771.578,126.4,776,143.776,735.86,154.51Z" transform="translate(-6109.813 -8768.17)" fill="#623a33"/>
      <path id="Trazado_154550" data-name="Trazado 154550" d="M774.114,88.447a6.145,6.145,0,1,0,6.145-6.145,6.145,6.145,0,0,0-6.145,6.145" transform="translate(-6108.541 -8769.506)" fill="#fbc0a4"/>
      <path id="Trazado_154551" data-name="Trazado 154551" d="M778.247,116.854a5.209,5.209,0,1,0,5.209-5.209,5.209,5.209,0,0,0-5.209,5.209" transform="translate(-6108.416 -8768.616)" fill="#fbc0a4"/>
      <path id="Trazado_154552" data-name="Trazado 154552" d="M774.307,89.853c2.161,9.985,3.921,25.522,4.06,27.759h10.417s-.047-22.371-2.624-30.983Z" transform="translate(-6108.535 -8769.375)" fill="#fbc0a4"/>
      <path id="Trazado_154553" data-name="Trazado 154553" d="M777.81,112.363c-.726-5.093-2.07-15.783-3.5-22.38h0a6.14,6.14,0,0,1,11.849-3.222h0c1.529,5.108,2.624,13,3.952,22.25-3.278,1.959-11.222,3.186-12.309,3.352" transform="translate(-6108.541 -8769.506)" fill="#ff9300"/>
      <path id="Trazado_154554" data-name="Trazado 154554" d="M782.2,112.044a5.209,5.209,0,1,0,6.305,3.809,5.209,5.209,0,0,0-6.305-3.809" transform="translate(-6108.416 -8768.609)" fill="#fbc0a4"/>
      <path id="Trazado_154555" data-name="Trazado 154555" d="M758.07,121.048a2.7,2.7,0,1,0,3.27,1.975,2.7,2.7,0,0,0-3.27-1.975" transform="translate(-6109.089 -8768.334)" fill="#fbc0a4"/>
      <path id="Trazado_154556" data-name="Trazado 154556" d="M758.01,121.319c3.441-.535,9.686-3.539,15.619-6.008a76.465,76.465,0,0,1,9.183-3.271l2.5,10.115s-23.223,4.344-26.622,4.487Z" transform="translate(-6109.029 -8768.604)" fill="#fbc0a4"/>
      <path id="Trazado_154557" data-name="Trazado 154557" d="M758.674,120.972a2.7,2.7,0,1,0,2.673,2.73,2.7,2.7,0,0,0-2.673-2.73" transform="translate(-6109.091 -8768.334)" fill="#fbc0a4"/>
      <path id="Trazado_154558" data-name="Trazado 154558" d="M759.048,121.109c-2.409-.374-7.113-4.852-8.3-4.646s-7.419,4.548-7.11,5.5,1.566.887,1.418,1.477-.13,1.23,1.2,1.629,4.989,2.071,7.171,1.545a16.406,16.406,0,0,1,4.945-.181Z" transform="translate(-6109.465 -8768.471)" fill="#fbc0a4"/>
      <path id="Trazado_154559" data-name="Trazado 154559" d="M768.241,125.381h-21.1v2.455h19.984a1.117,1.117,0,0,0,1.117-1.117Z" transform="translate(-6109.358 -8768.2)" fill="#636363"/>
      <path id="Trazado_154560" data-name="Trazado 154560" d="M712.825,128.64h37.162a.972.972,0,0,0,.985-1.117l-3.137-26.444a2.587,2.587,0,0,0-2.5-2.234H710.406a1.944,1.944,0,0,0-1.969,2.234l3.137,26.444a1.292,1.292,0,0,0,1.25,1.117" transform="translate(-6110.531 -8769.005)" fill="#afafaf"/>
      <path id="Trazado_154561" data-name="Trazado 154561" d="M725.976,112.689a2.231,2.231,0,1,0,2.231-2.231,2.23,2.23,0,0,0-2.231,2.231" transform="translate(-6110 -8768.652)" fill="#fff"/>
      <rect id="Rectángulo_9412" data-name="Rectángulo 9412" width="820" height="217.812" transform="translate(-6112 -8772)" fill="none"/>
    </g>
  </g>
</svg>
