<svg xmlns="http://www.w3.org/2000/svg" xmlns:xlink="http://www.w3.org/1999/xlink" width="355" height="220" viewBox="0 0 355 220">
  <defs>
    <clipPath id="clip-path">
      <rect id="Rectángulo_8940" data-name="Rectángulo 8940" width="209.581" height="220" fill="none"/>
    </clipPath>
    <clipPath id="clip-path-3">
      <rect id="Rectángulo_8929" data-name="Rectángulo 8929" width="72.092" height="10.937" fill="none"/>
    </clipPath>
    <clipPath id="clip-path-5">
      <rect id="Rectángulo_8935" data-name="Rectángulo 8935" width="94.096" height="181.857" fill="#fff"/>
    </clipPath>
    <clipPath id="clip-path-6">
      <rect id="Rectángulo_8936" data-name="Rectángulo 8936" width="16.149" height="23.463" fill="#fff"/>
    </clipPath>
    <clipPath id="clip-path-7">
      <rect id="Rectángulo_8937" data-name="Rectángulo 8937" width="8.011" height="12.549" fill="#fff"/>
    </clipPath>
    <clipPath id="clip-path-8">
      <rect id="Rectángulo_8941" data-name="Rectángulo 8941" width="76" height="175" transform="translate(1043 1657)" fill="#fff" stroke="#707070" stroke-width="1"/>
    </clipPath>
  </defs>
  <g id="Grupo_66659" data-name="Grupo 66659" transform="translate(-1020 -1627)">
    <g id="Grupo_66657" data-name="Grupo 66657" transform="translate(1165.419 1627)">
      <g id="Grupo_66656" data-name="Grupo 66656" clip-path="url(#clip-path)">
        <g id="Grupo_66655" data-name="Grupo 66655">
          <g id="Grupo_66654" data-name="Grupo 66654" clip-path="url(#clip-path)">
            <g id="Grupo_66626" data-name="Grupo 66626" transform="translate(10.174 209.063)" opacity="0.1">
              <g id="Grupo_66625" data-name="Grupo 66625">
                <g id="Grupo_66624" data-name="Grupo 66624" clip-path="url(#clip-path-3)">
                  <path id="Trazado_138300" data-name="Trazado 138300" d="M81.066,189.887c0,3.02-16.138,5.469-36.046,5.469s-36.046-2.449-36.046-5.469,16.138-5.469,36.046-5.469,36.046,2.449,36.046,5.469" transform="translate(-8.975 -184.418)" fill="#32324c"/>
                </g>
              </g>
            </g>
            <path id="Trazado_138305" data-name="Trazado 138305" d="M25.106,98.091A39.677,39.677,0,0,1,26.96,85.417c12.183-.787,31.343,0,31.343,0,.027.074.053.146.079.22A46.189,46.189,0,0,1,59.2,98.091c-11.853,7.341-23.276,6.857-34.092,0" transform="translate(3.355 11.368)" fill="#32324c"/>
            <path id="Trazado_138306" data-name="Trazado 138306" d="M56.918,96.556s2.847,40.176,2.539,49.088l2.351,46.791-7.784-.463c-1.365-24.14-5.938-35.077-4.5-46.021-4.358-14.361-6.625-31.382-7.354-44.915,0,0,6.939-4.325,14.744-4.48" transform="translate(5.636 12.903)" fill="#32324c"/>
            <path id="Trazado_138307" data-name="Trazado 138307" d="M52.878,180.874a4.406,4.406,0,0,1,5.77-3.982c2.741.75,3.071,5.324,3.071,5.324a14.377,14.377,0,0,1,4.078,8.248c.019.117.037.234.05.356a1.851,1.851,0,0,1-1.536,2.028,41.126,41.126,0,0,1-14.142.037,1.838,1.838,0,0,1-1.5-2.041c.006-.037.006-.074.012-.111.307-2.33.939-6.6,3.791-8.189Z" transform="translate(6.502 23.614)" fill="#3555af"/>
            <path id="Trazado_138308" data-name="Trazado 138308" d="M53.366,183.667l-.246-.562c.17-.074,4.206-1.8,7.148.116l-.336.514c-2.666-1.74-6.527-.084-6.566-.067" transform="translate(7.099 24.364)" fill="#fff"/>
            <path id="Trazado_138309" data-name="Trazado 138309" d="M53.945,183.534a.69.69,0,1,1-.567-.794.688.688,0,0,1,.567.794" transform="translate(7.026 24.419)" fill="#fff"/>
            <path id="Trazado_138310" data-name="Trazado 138310" d="M60.063,183.387a.69.69,0,1,1-.567-.794.689.689,0,0,1,.567.794" transform="translate(7.843 24.4)" fill="#fff"/>
            <path id="Trazado_138311" data-name="Trazado 138311" d="M53.427,182.139l-.246-.562c.17-.074,4.206-1.8,7.148.116l-.336.514c-2.666-1.74-6.527-.084-6.566-.067" transform="translate(7.107 24.16)" fill="#fff"/>
            <path id="Trazado_138312" data-name="Trazado 138312" d="M54.007,182a.69.69,0,1,1-.567-.794.688.688,0,0,1,.567.794" transform="translate(7.034 24.215)" fill="#fff"/>
            <path id="Trazado_138313" data-name="Trazado 138313" d="M60.125,181.859a.69.69,0,1,1-.567-.794.689.689,0,0,1,.567.794" transform="translate(7.852 24.195)" fill="#fff"/>
            <path id="Trazado_138314" data-name="Trazado 138314" d="M53.366,185.19l-.246-.562c.17-.074,4.206-1.8,7.148.116l-.336.514c-2.666-1.74-6.527-.084-6.566-.067" transform="translate(7.099 24.568)" fill="#fff"/>
            <path id="Trazado_138315" data-name="Trazado 138315" d="M53.945,185.057a.69.69,0,1,1-.567-.794.688.688,0,0,1,.567.794" transform="translate(7.026 24.623)" fill="#fff"/>
            <path id="Trazado_138316" data-name="Trazado 138316" d="M60.063,184.91a.69.69,0,1,1-.567-.794.688.688,0,0,1,.567.794" transform="translate(7.843 24.603)" fill="#fff"/>
            <path id="Trazado_138317" data-name="Trazado 138317" d="M58.288,178.651a5.587,5.587,0,0,0-3.841.154,2.007,2.007,0,0,0,0,1.414,14.137,14.137,0,0,1,3.893-.09,2.158,2.158,0,0,0-.05-1.478" transform="translate(7.259 23.837)" fill="#fff"/>
            <path id="Trazado_138318" data-name="Trazado 138318" d="M64.31,191.226a41.126,41.126,0,0,1-14.142.037,1.838,1.838,0,0,1-1.5-2.041c.007-.037.007-.074.012-.111a30.828,30.828,0,0,0,17.117-.271c.018.117.037.234.049.357a1.85,1.85,0,0,1-1.536,2.028" transform="translate(6.502 25.236)" fill="#3986d7"/>
            <path id="Trazado_138319" data-name="Trazado 138319" d="M48.069,104.643a2.593,2.593,0,1,0,3.01-2.1A2.593,2.593,0,0,0,48.069,104.643Z" transform="translate(6.418 13.698)" fill="none" stroke="#fff" stroke-miterlimit="10" stroke-width="0.391"/>
            <path id="Trazado_138320" data-name="Trazado 138320" d="M49.836,104.762a.553.553,0,1,0,.643-.448.554.554,0,0,0-.643.448" transform="translate(6.659 13.939)" fill="#fff"/>
            <path id="Trazado_138321" data-name="Trazado 138321" d="M51.464,139.829a2.593,2.593,0,1,0,3.01-2.1A2.593,2.593,0,0,0,51.464,139.829Z" transform="translate(6.872 18.4)" fill="none" stroke="#fff" stroke-miterlimit="10" stroke-width="0.391"/>
            <path id="Trazado_138322" data-name="Trazado 138322" d="M53.231,139.948a.553.553,0,1,0,.643-.448.554.554,0,0,0-.643.448" transform="translate(7.112 18.641)" fill="#fff"/>
            <path id="Trazado_138323" data-name="Trazado 138323" d="M53.264,173.009a2.593,2.593,0,1,0,3.01-2.1A2.593,2.593,0,0,0,53.264,173.009Z" transform="translate(7.112 22.834)" fill="none" stroke="#fff" stroke-miterlimit="10" stroke-width="0.391"/>
            <path id="Trazado_138324" data-name="Trazado 138324" d="M55.031,173.128a.553.553,0,1,0,.643-.448.554.554,0,0,0-.643.448" transform="translate(7.353 23.075)" fill="#fff"/>
            <path id="Trazado_138325" data-name="Trazado 138325" d="M50.316,104.794l3.849,39.888L56.31,182.3" transform="translate(6.724 14.004)" fill="none" stroke="#fff" stroke-miterlimit="10" stroke-width="0.391"/>
            <path id="Trazado_138326" data-name="Trazado 138326" d="M25.651,96.556s-2.58,40.176-2.273,49.088l-2.351,46.791,7.784-.463c.47-18.276,6.583-33.008,4.5-46.021,3.883-12.571,5.913-29.891,6.665-44.915a30.115,30.115,0,0,0-14.321-4.48" transform="translate(2.81 12.903)" fill="#32324c"/>
            <path id="Trazado_138327" data-name="Trazado 138327" d="M29.672,180.874a4.406,4.406,0,0,0-5.77-3.982c-2.741.75-3.071,5.324-3.071,5.324a14.377,14.377,0,0,0-4.078,8.248c-.019.117-.037.234-.05.356a1.851,1.851,0,0,0,1.536,2.028,41.126,41.126,0,0,0,14.142.037,1.838,1.838,0,0,0,1.5-2.041c-.006-.037-.006-.074-.012-.111-.307-2.33-.939-6.6-3.791-8.189Z" transform="translate(2.231 23.614)" fill="#3555af"/>
            <path id="Trazado_138328" data-name="Trazado 138328" d="M28,183.667l.246-.562c-.17-.074-4.206-1.8-7.148.116l.336.514c2.666-1.74,6.527-.084,6.566-.067" transform="translate(2.819 24.364)" fill="#fff"/>
            <path id="Trazado_138329" data-name="Trazado 138329" d="M26.74,183.534a.69.69,0,1,0,.567-.794.688.688,0,0,0-.567.794" transform="translate(3.572 24.419)" fill="#fff"/>
            <path id="Trazado_138330" data-name="Trazado 138330" d="M20.622,183.387a.69.69,0,1,0,.567-.794.689.689,0,0,0-.567.794" transform="translate(2.755 24.4)" fill="#fff"/>
            <path id="Trazado_138331" data-name="Trazado 138331" d="M27.938,182.139l.246-.562c-.17-.074-4.206-1.8-7.148.116l.336.514c2.666-1.74,6.527-.084,6.566-.067" transform="translate(2.811 24.16)" fill="#fff"/>
            <path id="Trazado_138332" data-name="Trazado 138332" d="M26.678,182a.69.69,0,1,0,.567-.794.688.688,0,0,0-.567.794" transform="translate(3.564 24.215)" fill="#fff"/>
            <path id="Trazado_138333" data-name="Trazado 138333" d="M20.56,181.859a.69.69,0,1,0,.567-.794.689.689,0,0,0-.567.794" transform="translate(2.746 24.195)" fill="#fff"/>
            <path id="Trazado_138334" data-name="Trazado 138334" d="M28,185.19l.246-.562c-.17-.074-4.206-1.8-7.148.116l.336.514c2.666-1.74,6.527-.084,6.566-.067" transform="translate(2.819 24.568)" fill="#fff"/>
            <path id="Trazado_138335" data-name="Trazado 138335" d="M26.74,185.057a.69.69,0,1,0,.567-.794.688.688,0,0,0-.567.794" transform="translate(3.572 24.623)" fill="#fff"/>
            <path id="Trazado_138336" data-name="Trazado 138336" d="M20.622,184.91a.69.69,0,1,0,.567-.794.688.688,0,0,0-.567.794" transform="translate(2.755 24.603)" fill="#fff"/>
            <path id="Trazado_138337" data-name="Trazado 138337" d="M22.721,178.651a5.587,5.587,0,0,1,3.841.154,2.007,2.007,0,0,1,0,1.414,14.137,14.137,0,0,0-3.893-.09,2.158,2.158,0,0,1,.05-1.478" transform="translate(3.015 23.837)" fill="#fff"/>
            <path id="Trazado_138338" data-name="Trazado 138338" d="M18.24,191.226a41.126,41.126,0,0,0,14.142.037,1.838,1.838,0,0,0,1.5-2.041c-.007-.037-.007-.074-.012-.111a30.828,30.828,0,0,1-17.117-.271c-.018.117-.037.234-.049.357a1.85,1.85,0,0,0,1.536,2.028" transform="translate(2.231 25.236)" fill="#3986d7"/>
            <path id="Trazado_138339" data-name="Trazado 138339" d="M33.065,104.643a2.593,2.593,0,1,1-3.01-2.1A2.593,2.593,0,0,1,33.065,104.643Z" transform="translate(3.731 13.698)" fill="none" stroke="#fff" stroke-miterlimit="10" stroke-width="0.391"/>
            <path id="Trazado_138340" data-name="Trazado 138340" d="M30.816,104.762a.553.553,0,1,1-.643-.448.554.554,0,0,1,.643.448" transform="translate(3.971 13.939)" fill="#fff"/>
            <path id="Trazado_138341" data-name="Trazado 138341" d="M29.67,139.829a2.593,2.593,0,1,1-3.01-2.1A2.593,2.593,0,0,1,29.67,139.829Z" transform="translate(3.277 18.4)" fill="none" stroke="#fff" stroke-miterlimit="10" stroke-width="0.391"/>
            <path id="Trazado_138342" data-name="Trazado 138342" d="M27.422,139.948a.554.554,0,1,1-.644-.448.556.556,0,0,1,.644.448" transform="translate(3.518 18.641)" fill="#fff"/>
            <path id="Trazado_138343" data-name="Trazado 138343" d="M27.87,173.009a2.593,2.593,0,1,1-3.01-2.1A2.593,2.593,0,0,1,27.87,173.009Z" transform="translate(3.037 22.834)" fill="none" stroke="#fff" stroke-miterlimit="10" stroke-width="0.391"/>
            <path id="Trazado_138344" data-name="Trazado 138344" d="M25.621,173.128a.553.553,0,1,1-.643-.448.554.554,0,0,1,.643.448" transform="translate(3.277 23.075)" fill="#fff"/>
            <path id="Trazado_138345" data-name="Trazado 138345" d="M30.912,104.794l-3.849,39.888L24.919,182.3" transform="translate(3.33 14.004)" fill="none" stroke="#fff" stroke-miterlimit="10" stroke-width="0.391"/>
            <path id="Trazado_138346" data-name="Trazado 138346" d="M54.876,69.034l3.831,23.484a41.253,41.253,0,0,1-16.647,3.95A32.539,32.539,0,0,1,26.2,92.518L30.03,69.034l-.5-10.208c-3.081-2.316-2.025-8.6-2.025-8.6l-1.3-9.445,12.138-5.159,7.8-.086,12.638,4.7-1.368,9.99s1.3,5.808-1.671,8.517Z" transform="translate(3.501 4.749)" fill="#ff9300"/>
            <path id="Trazado_138347" data-name="Trazado 138347" d="M52.52,56.9s-8.573,6.06-20.914.37c0,0,11.529,3.1,20.914-.37" transform="translate(4.224 7.604)" fill="#cf691f"/>
            <path id="Trazado_138348" data-name="Trazado 138348" d="M16.264,98.329a36.3,36.3,0,0,0,1.43,3.885c.752,1.635.236,2.9.686,4.372s-1.315,1.367-1.655-.181-.195-2.281-.518-2.331-1.245,3.724-1.377,4.808.088,3.8-.317,4.219-1.383-1.1-1.074-3.928.082-2.764.082-2.764-.266,1.1-.546,2.275a12.761,12.761,0,0,0-.23,3.421c.053.8-.767,1.205-1.01.773a10.28,10.28,0,0,1-.3-4.341c.326-1.1.723-2.983.723-2.983s-1.079,2.527-1.264,3.179.124,3.14-.446,3.595c-.236.187-.99-.062-.862-3.608a19.537,19.537,0,0,1,.633-2.8,6.267,6.267,0,0,0-.864,1.876,17.394,17.394,0,0,0-.47,2.9c-.083.958-.913.831-.914-.859a11.275,11.275,0,0,1,.758-4.456c.475-.9,1.169-6.164,2.576-8.094Z" transform="translate(1.065 13.001)" fill="#ffaf82"/>
            <path id="Trazado_138349" data-name="Trazado 138349" d="M31.821,49.569S27.646,68.9,24.254,75.383c0,0-1.739,8.534-8.221,30.923,0,0-3.386,1.347-5.362-1.224,0,0,3.626-24.722,5.516-32.593,0,0,6.1-27.733,12.092-32.324a17.1,17.1,0,0,1,3.541,9.4" transform="translate(1.426 5.367)" fill="#ff9300"/>
            <path id="Trazado_138350" data-name="Trazado 138350" d="M28.919,47.2A2.593,2.593,0,1,1,26.326,44.6,2.594,2.594,0,0,1,28.919,47.2Z" transform="translate(3.172 5.961)" fill="none" stroke="#000" stroke-miterlimit="10" stroke-width="0.391"/>
            <path id="Trazado_138351" data-name="Trazado 138351" d="M26.64,46.956a.554.554,0,1,1-.553-.553.553.553,0,0,1,.553.553" transform="translate(3.412 6.201)"/>
            <path id="Trazado_138352" data-name="Trazado 138352" d="M22.4,69.924a2.593,2.593,0,1,1-2.593-2.594A2.594,2.594,0,0,1,22.4,69.924Z" transform="translate(2.301 8.998)" fill="none" stroke="#000" stroke-miterlimit="10" stroke-width="0.391"/>
            <path id="Trazado_138353" data-name="Trazado 138353" d="M20.124,69.683a.554.554,0,1,1-.553-.553.553.553,0,0,1,.553.553" transform="translate(2.541 9.238)"/>
            <path id="Trazado_138354" data-name="Trazado 138354" d="M15.491,101.4A2.593,2.593,0,1,1,12.9,98.809,2.594,2.594,0,0,1,15.491,101.4Z" transform="translate(1.377 13.204)" fill="none" stroke="#000" stroke-miterlimit="10" stroke-width="0.391"/>
            <path id="Trazado_138355" data-name="Trazado 138355" d="M13.212,101.162a.554.554,0,1,1-.553-.553.553.553,0,0,1,.553.553" transform="translate(1.618 13.445)"/>
            <path id="Trazado_138356" data-name="Trazado 138356" d="M27.815,46.891,20.428,72.656l-7.836,35.686" transform="translate(1.683 6.266)" fill="none" stroke="#000" stroke-miterlimit="10" stroke-width="0.391"/>
            <path id="Trazado_138357" data-name="Trazado 138357" d="M66.046,98.329a36.3,36.3,0,0,1-1.43,3.885c-.752,1.635-.236,2.9-.686,4.372s1.315,1.367,1.655-.181.195-2.281.518-2.331,1.245,3.724,1.377,4.808-.088,3.8.317,4.219,1.383-1.1,1.074-3.928-.082-2.764-.082-2.764.266,1.1.546,2.275a12.761,12.761,0,0,1,.23,3.421c-.053.8.767,1.205,1.01.773a10.28,10.28,0,0,0,.3-4.341c-.326-1.1-.723-2.983-.723-2.983s1.079,2.527,1.264,3.179-.124,3.14.446,3.595c.236.187.99-.062.862-3.608a19.706,19.706,0,0,0-.633-2.8,6.267,6.267,0,0,1,.864,1.876,17.394,17.394,0,0,1,.47,2.9c.083.958.913.831.914-.859a11.275,11.275,0,0,0-.758-4.456c-.475-.9-1.169-6.164-2.576-8.094Z" transform="translate(8.534 13.001)" fill="#ffaf82"/>
            <path id="Trazado_138358" data-name="Trazado 138358" d="M51.747,49.633S55.8,68.375,59.188,74.859c0,0,1.865,9.121,8.347,31.511,0,0,3.386,1.347,5.362-1.224,0,0-3.132-24.613-5.022-32.484,0,0-8.084-27.943-12.51-32.976a20.022,20.022,0,0,0-3.619,9.948" transform="translate(6.915 5.303)" fill="#ff9300"/>
            <path id="Trazado_138359" data-name="Trazado 138359" d="M52.767,47.2A2.593,2.593,0,1,0,55.361,44.6,2.594,2.594,0,0,0,52.767,47.2Z" transform="translate(7.052 5.961)" fill="none" stroke="#fff" stroke-miterlimit="10" stroke-width="0.391"/>
            <path id="Trazado_138360" data-name="Trazado 138360" d="M54.566,46.956a.554.554,0,1,0,.553-.553.553.553,0,0,0-.553.553" transform="translate(7.292 6.201)" fill="#fff"/>
            <path id="Trazado_138361" data-name="Trazado 138361" d="M59.283,69.924a2.593,2.593,0,1,0,2.593-2.594A2.593,2.593,0,0,0,59.283,69.924Z" transform="translate(7.922 8.998)" fill="none" stroke="#fff" stroke-miterlimit="10" stroke-width="0.391"/>
            <path id="Trazado_138362" data-name="Trazado 138362" d="M61.082,69.683a.554.554,0,1,0,.553-.553.553.553,0,0,0-.553.553" transform="translate(8.163 9.238)" fill="#fff"/>
            <path id="Trazado_138363" data-name="Trazado 138363" d="M66.195,101.4a2.593,2.593,0,1,0,2.594-2.594A2.594,2.594,0,0,0,66.195,101.4Z" transform="translate(8.846 13.204)" fill="none" stroke="#fff" stroke-miterlimit="10" stroke-width="0.391"/>
            <path id="Trazado_138364" data-name="Trazado 138364" d="M67.994,101.162a.554.554,0,1,0,.553-.553.553.553,0,0,0-.553.553" transform="translate(9.086 13.445)" fill="#fff"/>
            <path id="Trazado_138365" data-name="Trazado 138365" d="M55.054,46.891l7.387,25.764,7.836,35.686" transform="translate(7.357 6.266)" fill="none" stroke="#fff" stroke-miterlimit="10" stroke-width="0.391"/>
            <path id="Trazado_138366" data-name="Trazado 138366" d="M60.339,23.5c.614,1.247,1.248,2.536,1.874,3.9,1.993,4.354-2.12,4.9-2.12,4.9s1.8,2.967.041,5.341-4.633,1.1-4.633,1.1-.774,1.292-3.3,1.453c-3.668.235-5.243-1.25-5.243-1.25l-3.976-.694a10.029,10.029,0,0,1-4.815,1.631,8.3,8.3,0,0,1-5.012-1.094c-.692,1.926-6.052,1.91-7.042-1.14-.93-2.865.227-4.038.37-4.171-2.145,1.7-6.855-2.9-3.269-7.261a34.45,34.45,0,0,0,2.8-3.488c-1.856.457-4.208-1.782-3.646-3.738.727-2.522,2.91-1.517,4.345-5.136,1.906-4.808,3.674-6.449,3.777-6.542l0,0A16.334,16.334,0,0,1,43.682,2.2a14.512,14.512,0,0,1,9.708,4.914A11.558,11.558,0,0,1,56.4,13.112q.119.684.281,1.348c.9,1.589,2.667,4.409,4.384,5.265,2.332,1.167,1.6,4.256-.724,3.776" transform="translate(2.927 0.29)" fill="#32324c"/>
            <path id="Trazado_138367" data-name="Trazado 138367" d="M32.384,19.415s-2.185-2.137-3.929-.743c-2.061,1.647.094,7.578,3.751,6.95Z" transform="translate(3.695 2.432)" fill="#ffa378"/>
            <path id="Trazado_138368" data-name="Trazado 138368" d="M31.074,24.62a1.045,1.045,0,1,1-1.045-1.045,1.045,1.045,0,0,1,1.045,1.045" transform="translate(3.873 3.15)" fill="#fff"/>
            <path id="Trazado_138369" data-name="Trazado 138369" d="M31.688,23.432a5.657,5.657,0,0,0-3.2-3.547s2.214,2.087,2.382,3.7a.4.4,0,0,0,.408.368h.049a.4.4,0,0,0,.364-.521" transform="translate(3.807 2.657)" fill="#f88968"/>
            <path id="Trazado_138370" data-name="Trazado 138370" d="M48.1,19.415s2.183-2.137,3.929-.743c2.06,1.647-.094,7.578-3.752,6.95Z" transform="translate(6.427 2.432)" fill="#ffa378"/>
            <path id="Trazado_138371" data-name="Trazado 138371" d="M51.516,24.62a1.045,1.045,0,1,1-1.045-1.045,1.045,1.045,0,0,1,1.045,1.045" transform="translate(6.605 3.15)" fill="#fff"/>
            <path id="Trazado_138372" data-name="Trazado 138372" d="M48.613,23.432a5.657,5.657,0,0,1,3.2-3.547s-2.214,2.087-2.382,3.7a.4.4,0,0,1-.408.368h-.049a.4.4,0,0,1-.364-.521" transform="translate(6.494 2.657)" fill="#f88968"/>
            <path id="Trazado_138373" data-name="Trazado 138373" d="M45.209,30.454l-.152,2.866-.192,3.591s-.713,1.351-3.931,1.351-3.877-.924-3.877-.924l-.13-1.593-.432-5.292Z" transform="translate(4.877 4.07)" fill="#ffaf82"/>
            <path id="Trazado_138374" data-name="Trazado 138374" d="M45.209,30.454l-.152,2.866c-1.343,1.006-4.521,2.981-8.13,2.426l-.432-5.292Z" transform="translate(4.877 4.07)" fill="#f88968"/>
            <path id="Trazado_138375" data-name="Trazado 138375" d="M53.09,18.779c-.029.342-.065.7-.1,1.052-.756,7.373-3.032,16.691-11.162,16.691-7.94,0-11.068-8.791-12.091-15.981-.07-.526-.136-1.035-.189-1.537A11.683,11.683,0,0,1,40.993,6.073h.616a11.68,11.68,0,0,1,10.9,7.917,11.371,11.371,0,0,1,.438,1.673,11.6,11.6,0,0,1,.142,3.115" transform="translate(3.94 0.812)" fill="#ffaf82"/>
            <path id="Trazado_138376" data-name="Trazado 138376" d="M36.26,20.307a1.331,1.331,0,0,1-1.507-1.13,1.312,1.312,0,0,1,.1-.73c-1.091-.128-1.068-.79-1.068-.79.17.283,1.443.118,1.971.036h0l.156-.025h.007a.389.389,0,0,1,.063-.006,1.331,1.331,0,0,1,.27,2.646" transform="translate(4.515 2.36)" fill="#32324c"/>
            <path id="Trazado_138377" data-name="Trazado 138377" d="M40.543,30.244a4.98,4.98,0,0,1-1.785-.55.3.3,0,0,1,.3-.526,3.989,3.989,0,0,0,3.928-.066.3.3,0,0,1,.326.51,4.179,4.179,0,0,1-2.772.631" transform="translate(5.159 3.883)" fill="#f88968"/>
            <path id="Trazado_138378" data-name="Trazado 138378" d="M41.366,24.239H39.79a.324.324,0,0,1,0-.647h1.576a.067.067,0,0,0,.058-.029.07.07,0,0,0,.012-.063L40.127,19.02a.324.324,0,0,1,.622-.181l1.308,4.479a.72.72,0,0,1-.692.922" transform="translate(5.274 2.486)" fill="#f88968"/>
            <path id="Trazado_138379" data-name="Trazado 138379" d="M38.147,14.825h0a.621.621,0,0,1-.6.695c-1.216.032-3.756.264-4.986,1.566,0,0,.406-2.25,4.888-2.8a.621.621,0,0,1,.694.542" transform="translate(4.352 1.908)" fill="#32324c"/>
            <path id="Trazado_138380" data-name="Trazado 138380" d="M43.073,14.709h0a.619.619,0,0,0,.616.676c1.218,0,3.763.155,5.031,1.42,0,0-.473-2.238-4.969-2.658a.622.622,0,0,0-.678.562" transform="translate(5.756 1.89)" fill="#32324c"/>
            <path id="Trazado_138381" data-name="Trazado 138381" d="M44.5,20.159a1.333,1.333,0,0,0,1.507-1.131,1.314,1.314,0,0,0-.1-.73c1.091-.128,1.068-.79,1.068-.79-.17.283-1.443.118-1.971.037h0l-.156-.026h-.007a.389.389,0,0,0-.063-.006,1.331,1.331,0,0,0-.27,2.647" transform="translate(5.794 2.34)" fill="#32324c"/>
            <path id="Trazado_138382" data-name="Trazado 138382" d="M45.4,25.019a4.247,4.247,0,1,1-8.493.112V25.1l8.492-.112v.035" transform="translate(4.932 3.339)" fill="#920e08"/>
            <path id="Trazado_138383" data-name="Trazado 138383" d="M45.4,25.019a4.211,4.211,0,0,1-.058.761l-8.357.11a4.186,4.186,0,0,1-.078-.758V25.1l8.492-.112v.035" transform="translate(4.932 3.339)" fill="#fff"/>
            <path id="Trazado_138384" data-name="Trazado 138384" d="M44.178,27.7a4.247,4.247,0,0,1-6.241.082,4.666,4.666,0,0,1,6.241-.082" transform="translate(5.07 3.548)" fill="#f85c66"/>
            <path id="Trazado_138385" data-name="Trazado 138385" d="M51.707,15.574c-3.045-.26-10.906-2.679-18.057-5.268,0,0,.627,7.307-3.617,10.991a2.385,2.385,0,0,0-.3-.756c-.071-.526-.136-1.035-.189-1.537A11.683,11.683,0,0,1,40.994,6.073h.614a11.679,11.679,0,0,1,10.9,7.916,11.408,11.408,0,0,1,.438,1.673s-.449-.017-1.241-.088" transform="translate(3.94 0.812)" fill="#32324c"/>
            <path id="Trazado_138386" data-name="Trazado 138386" d="M50.473,17.845c-.029.342-.065.7-.1,1.052-.958-.55-1.218-2.826-1.282-4.257-.036-.7-.024-1.2-.024-1.2s.053-.249.828-.384a11.371,11.371,0,0,1,.438,1.673,11.6,11.6,0,0,1,.142,3.115" transform="translate(6.557 1.745)" fill="#32324c"/>
            <g id="Grupo_66641" data-name="Grupo 66641" transform="translate(123.531 209.063)" opacity="0.1">
              <g id="Grupo_66640" data-name="Grupo 66640">
                <g id="Grupo_66639" data-name="Grupo 66639" clip-path="url(#clip-path-3)">
                  <path id="Trazado_138387" data-name="Trazado 138387" d="M181.061,189.887c0,3.02-16.138,5.469-36.046,5.469s-36.046-2.449-36.046-5.469,16.138-5.469,36.046-5.469,36.046,2.449,36.046,5.469" transform="translate(-108.969 -184.418)" fill="#32324c"/>
                </g>
              </g>
            </g>
            <g id="Grupo_66644" data-name="Grupo 66644" transform="translate(115.485 15.009)" opacity="0.1">
              <g id="Grupo_66643" data-name="Grupo 66643">
                <g id="Grupo_66642" data-name="Grupo 66642" clip-path="url(#clip-path-5)">
                  <path id="Trazado_138388" data-name="Trazado 138388" d="M195.755,148.68c-3.048,44.934-59.743,63.145-87.73,27.859-5.716-7.207-7.083-24.583-5.6-33.749,5.969-36.943,24.915-40.718,10.771-64.087S97.735,12.911,136.785,13.242s13.877,62.747,40.777,80.2c12.3,7.984,19.781,31.832,18.194,55.234" transform="translate(-101.871 -13.24)" fill="#fff"/>
                </g>
              </g>
            </g>
            <g id="Grupo_66647" data-name="Grupo 66647" transform="translate(182.393 61.984)" opacity="0.1">
              <g id="Grupo_66646" data-name="Grupo 66646">
                <g id="Grupo_66645" data-name="Grupo 66645" clip-path="url(#clip-path-6)">
                  <path id="Trazado_138389" data-name="Trazado 138389" d="M173.067,77.807a5.96,5.96,0,0,1-6.568-1.889c-2.54-3.079-6.6-9.3-5.388-16.531,1.724-10.335,14.821-2.084,15.852,9.533.515,5.809-1.626,8.074-3.9,8.887" transform="translate(-160.892 -54.677)" fill="#fff"/>
                </g>
              </g>
            </g>
            <g id="Grupo_66650" data-name="Grupo 66650" transform="translate(178.508 45.531)" opacity="0.1">
              <g id="Grupo_66649" data-name="Grupo 66649">
                <g id="Grupo_66648" data-name="Grupo 66648" clip-path="url(#clip-path-7)">
                  <path id="Trazado_138390" data-name="Trazado 138390" d="M159.578,52.566a3.109,3.109,0,0,1-2.106-2.877c-.063-2.08.249-5.94,3.056-8.539,4.012-3.712,6.779,3.875,3.494,8.994-1.643,2.561-3.249,2.811-4.444,2.421" transform="translate(-157.465 -40.164)" fill="#fff"/>
                </g>
              </g>
            </g>
            <path id="Trazado_138392" data-name="Trazado 138392" d="M163.96,86.5a20.9,20.9,0,0,1,3.809,1.213c1.706.779,3.752,1.779,4.8,2.277,1.255.6.164,1.713-1.615.977s-2.192-.9-2.192-.9,5.973,4.474,6.985,6.207c.924,1.58-2.493-.722-5.424-2.47,0,0,5.017,5.324,4.708,6.529-.406,1.581-6.465-4.886-6.465-4.886s3.759,5.434,3.047,5.792c-.794.4-5.322-4.691-5.322-4.691s2.253,3.961,1.7,4.03c-1.1.137-7.5-7.146-7.72-11.574,0,0,2.619-2.508,3.7-2.506" transform="translate(21.416 11.56)" fill="#ffaf82"/>
            <path id="Trazado_138393" data-name="Trazado 138393" d="M169.268,91.638a8.76,8.76,0,0,1-5.233,3.353s3.146,1,5.233-3.353" transform="translate(21.921 12.246)" fill="#f88968"/>
            <path id="Trazado_138394" data-name="Trazado 138394" d="M165.881,92.236s-3.792-1.543-2.339-4.852c0,0-2.835,3.2,2.339,4.852" transform="translate(21.751 11.678)" fill="#f88968"/>
            <path id="Trazado_138395" data-name="Trazado 138395" d="M153.142,68.833c-2.89-24.866-8.327-34.162-8.327-34.162-5.09,20.819-1.3,31.482.406,36.912s17.446,25,17.446,25a8.338,8.338,0,0,1,4.4-2.991s-4.986-8.79-6.752-12.082-7.171-12.677-7.171-12.677" transform="translate(19.01 4.633)" fill="#e88105"/>
            <path id="Trazado_138396" data-name="Trazado 138396" d="M155.062,144.673,151.07,192.9h-7.036c-1.628-18.795-5.138-43.671.357-50.358-9.725-22.7-6.852-45.659-6.852-45.659,5.369-2.458,13.768-5.244,13.768-5.244,2.856,16.221,3.756,53.035,3.756,53.035" transform="translate(18.327 12.246)" fill="#211931"/>
            <path id="Trazado_138397" data-name="Trazado 138397" d="M166.8,193.233H143.794a2.131,2.131,0,0,1-2.113-1.846,2.189,2.189,0,0,1-.012-.449l.934-12.085a13.393,13.393,0,0,1,2.3-.758,2.33,2.33,0,0,0,1.706-1.549c.017-.057.032-.116.046-.175.528-2.326,3.882-3.066,4.5-.794q.121.442.21.855c.015.067.029.137.042.2.1.489.171.939.222,1.332l0,.025a13.051,13.051,0,0,1,.115,1.643q.456.582.883,1.142c.146.186.286.373.425.554.3.393.6.775.885,1.144.134.173.266.34.4.506.319.4.634.778.949,1.13.142.161.283.317.43.468a6.62,6.62,0,0,0,3.8,2.3c2.5.342,6.572.618,8.54,4.279a1.383,1.383,0,0,1,.1.232,1.42,1.42,0,0,1-1.354,1.846" transform="translate(18.931 23.28)" fill="#3555af"/>
            <path id="Trazado_138398" data-name="Trazado 138398" d="M166.8,191.208H143.792a2.131,2.131,0,0,1-2.113-1.846h26.475a1.42,1.42,0,0,1-1.354,1.846" transform="translate(18.933 25.305)" fill="#3986d7"/>
            <path id="Trazado_138399" data-name="Trazado 138399" d="M152.033,180.557a4,4,0,0,1-1.9,1.3q-.281.114-.61.222l-.2-.6c.218-.071.415-.144.592-.215,1.258-.508,1.6-1.007,1.7-1.262.146.186.286.372.425.553" transform="translate(19.954 24.055)" fill="#fff"/>
            <path id="Trazado_138400" data-name="Trazado 138400" d="M150.205,181.656a.714.714,0,1,1-.713-.713.713.713,0,0,1,.713.713" transform="translate(19.882 24.18)" fill="#fff"/>
            <path id="Trazado_138401" data-name="Trazado 138401" d="M153.142,182.007a4.5,4.5,0,0,1-1.575.992c-.22.1-.461.184-.73.272l-.2-.6q.374-.124.672-.247a3.619,3.619,0,0,0,1.432-.921c.133.173.265.341.4.506" transform="translate(20.131 24.255)" fill="#fff"/>
            <path id="Trazado_138402" data-name="Trazado 138402" d="M151.627,182.881a.714.714,0,1,1-.713-.713.713.713,0,0,1,.713.713" transform="translate(20.072 24.344)" fill="#fff"/>
            <path id="Trazado_138403" data-name="Trazado 138403" d="M154.353,183.412a4.58,4.58,0,0,1-1.527.949q-.332.143-.739.278l-.2-.6c.252-.083.476-.167.677-.252a3.935,3.935,0,0,0,1.357-.839c.142.161.283.317.43.467" transform="translate(20.298 24.448)" fill="#fff"/>
            <path id="Trazado_138404" data-name="Trazado 138404" d="M152.885,184.256a.714.714,0,1,1-.713-.713.714.714,0,0,1,.713.713" transform="translate(20.24 24.528)" fill="#fff"/>
            <path id="Trazado_138405" data-name="Trazado 138405" d="M150.7,177.682a16.225,16.225,0,0,0-2.051.116l.012-1.152a5.2,5.2,0,0,1,1.816-.3c.1.489.171.939.222,1.332" transform="translate(19.864 23.567)" fill="#fff"/>
            <path id="Trazado_138406" data-name="Trazado 138406" d="M141.561,96.5S139.9,122.24,136.526,144.4c-.721,4.735-1.606,35.086-3.794,48.124h-7.046l-1.356-47.364s-3.806-30.234-.3-50.685Z" transform="translate(16.376 12.625)" fill="#32324c"/>
            <path id="Trazado_138407" data-name="Trazado 138407" d="M138.872,191.463c-.2,4.054-12.878,2.657-14.906,1.441a2.87,2.87,0,0,1-1.172-2.472,19.321,19.321,0,0,1,.975-5.741c.812-2.857.7-2.8,1.264-4.756,0,0-.146-3.175,4.006-4.387s5.677,6.692,6.386,8.212c.65,1.393,3.173,3.3,3.435,6.726a8.194,8.194,0,0,1,.012.977" transform="translate(16.408 23.442)" fill="#3555af"/>
            <path id="Trazado_138408" data-name="Trazado 138408" d="M126.351,181.9l-.332-.51c.154-.1,3.82-2.45,7.009-1.051l-.244.557c-2.892-1.269-6.4.982-6.433,1" transform="translate(16.841 24.041)" fill="#fff"/>
            <path id="Trazado_138409" data-name="Trazado 138409" d="M126.67,185.014l-.332-.509c.154-.1,3.82-2.451,7.009-1.053l-.244.558c-2.893-1.269-6.4.982-6.433,1" transform="translate(16.883 24.456)" fill="#fff"/>
            <path id="Trazado_138410" data-name="Trazado 138410" d="M126.511,183.458l-.332-.509c.154-.1,3.82-2.452,7.009-1.053l-.244.558c-2.893-1.269-6.4.982-6.433,1" transform="translate(16.862 24.248)" fill="#fff"/>
            <path id="Trazado_138411" data-name="Trazado 138411" d="M126.9,181.606a.684.684,0,1,1-.684-.684.685.685,0,0,1,.684.684" transform="translate(16.775 24.178)" fill="#fff"/>
            <path id="Trazado_138412" data-name="Trazado 138412" d="M126.93,183.081a.684.684,0,1,1-.685-.685.684.684,0,0,1,.685.685" transform="translate(16.779 24.374)" fill="#fff"/>
            <path id="Trazado_138413" data-name="Trazado 138413" d="M127.249,184.556a.684.684,0,1,1-.684-.685.684.684,0,0,1,.684.685" transform="translate(16.822 24.572)" fill="#fff"/>
            <path id="Trazado_138414" data-name="Trazado 138414" d="M133.178,183.684a.684.684,0,1,1-.685-.684.685.685,0,0,1,.685.684" transform="translate(17.614 24.455)" fill="#fff"/>
            <path id="Trazado_138415" data-name="Trazado 138415" d="M133.018,182.075a.684.684,0,1,1-.684-.684.684.684,0,0,1,.684.684" transform="translate(17.593 24.24)" fill="#fff"/>
            <path id="Trazado_138416" data-name="Trazado 138416" d="M132.859,180.466a.684.684,0,1,1-.684-.684.685.685,0,0,1,.684.684" transform="translate(17.572 24.025)" fill="#fff"/>
            <path id="Trazado_138417" data-name="Trazado 138417" d="M138.87,189.694c-.2,4.054-12.878,2.657-14.906,1.441a2.87,2.87,0,0,1-1.172-2.472,14.916,14.916,0,0,0,7.185,1.77c4.3.077,7.4-.792,8.881-1.715a8.194,8.194,0,0,1,.012.977" transform="translate(16.409 25.212)" fill="#3986d7"/>
            <path id="Trazado_138418" data-name="Trazado 138418" d="M130.3,176.64a6.765,6.765,0,0,0-3.566.71l.186,1.283a14.008,14.008,0,0,1,3.818-.574,3.018,3.018,0,0,0-.438-1.419" transform="translate(16.936 23.603)" fill="#fff"/>
            <path id="Trazado_138419" data-name="Trazado 138419" d="M124.493,89.753a34.6,34.6,0,0,0,.553,15.984s12.939,3.215,22.04-4.012c5.954-4.73,6.234-10.264,6.164-11.972Z" transform="translate(16.546 11.994)" fill="#32324c"/>
            <path id="Trazado_138420" data-name="Trazado 138420" d="M116.3,91.731a13.991,13.991,0,0,1,2.561,3.186c.875,1.659,1.723,3.43,2.245,4.462.627,1.242-.693,1.323-1.605.439a5.16,5.16,0,0,1-1.581-2.33s2,7.191,1.742,9.18c-.235,1.816-1.534-2.094-2.789-5.267,0,0,.723,7.278-.257,8.045-1.287,1-2.137-7.819-2.137-7.819s-.34,6.6-1.123,6.449c-.873-.169-1.35-6.966-1.35-6.966s-.635,4.512-1.118,4.227c-.956-.565-1.58-10.242.952-13.881,0,0,3.606-.385,4.461.274" transform="translate(14.707 12.207)" fill="#ffaf82"/>
            <path id="Trazado_138421" data-name="Trazado 138421" d="M129.249,48.845a91.273,91.273,0,0,1-9.932,21.837c-.11,1.618-.651,9.282-1.62,16.533a122.221,122.221,0,0,0-.958,12.42,6.97,6.97,0,0,1-5.754,0c-.835-12.283-.192-22.3,1.527-29.741-.1-9.7,10.032-33.425,10.032-33.425,4.842,3.56,6.705,12.376,6.705,12.376" transform="translate(14.783 4.874)" fill="#ff9300"/>
            <path id="Trazado_138422" data-name="Trazado 138422" d="M153.105,21.153c.435,1.281.885,2.6,1.314,4.007,1.365,4.472-2.941,5.036-2.941,5.036a5.338,5.338,0,0,1-.791,5.483,4.271,4.271,0,0,1-4.923,1.13,4.908,4.908,0,0,1-3.616,1.492c-3.8.24-5.183-1.286-5.183-1.286l-3.97-.712c-.523.292-.93,2.233-5.129,2.724a6.721,6.721,0,0,1-5.782-1.843c-1.009,1.977-5.761,1.63-6.3-1.5-.506-2.943.863-4.147,1.03-4.284-2.466,1.747-6.581-2.977-2.222-7.456a44.425,44.425,0,0,0,3.417-3.581,2.887,2.887,0,0,1-3.157-3.838c1.139-2.59,3.223-1.559,5.259-5.275,2.7-4.937,4.775-6.622,4.9-6.717l0,0C128.5,1.214,133.664-.3,139.311.049c4.8.3,7.6,2.262,9.222,4.281a10.129,10.129,0,0,1,2.15,6.155c.01.468.037.928.078,1.384.672,1.632,2.048,4.528,3.675,5.406a2.066,2.066,0,0,1-1.332,3.878" transform="translate(15.058 0)" fill="#32324c"/>
            <path id="Trazado_138423" data-name="Trazado 138423" d="M142.352,16s2.489-2.842,4.521-.373c1.785,2.172.673,7.92-3.679,7.76Z" transform="translate(19.023 1.954)" fill="#f88968"/>
            <path id="Trazado_138424" data-name="Trazado 138424" d="M146.031,22.162a1.045,1.045,0,1,1-1.044-1.045,1.044,1.044,0,0,1,1.044,1.045" transform="translate(19.236 2.822)" fill="#fff"/>
            <path id="Trazado_138425" data-name="Trazado 138425" d="M139.486,36.195c-.22,2.605-5.606,4.138-8.667-.283L130.5,30.2,130.26,26l9.834,1.908-.486,6.617Z" transform="translate(17.407 3.475)" fill="#ffaf82"/>
            <path id="Trazado_138426" data-name="Trazado 138426" d="M139.55,35.323c-3.358.046-7.107-2.268-8.982-3.865L130.261,26l9.834,1.909Z" transform="translate(17.407 3.475)" fill="#f88968"/>
            <path id="Trazado_138427" data-name="Trazado 138427" d="M136.542,33.765c-10.381-2.375-12.266-15.981-12.266-15.981a15.005,15.005,0,0,1,.139-2.237,17.261,17.261,0,0,1,.507-2.483,9.816,9.816,0,0,1,5.754-6.895q.16-.061.323-.119c5.66-2.007,13.937-1.068,16.454,6.427a12.5,12.5,0,0,1,.383,1.45c.06.295.113.6.159.917,1.128,7.737-2.123,21.055-11.453,18.92" transform="translate(16.607 0.686)" fill="#ffaf82"/>
            <path id="Trazado_138428" data-name="Trazado 138428" d="M133.564,18.443a1.333,1.333,0,0,1-1.507-1.131,1.314,1.314,0,0,1,.1-.73c-1.091-.128-1.068-.79-1.068-.79.17.283,1.443.118,1.971.037h0l.156-.026h.007a.389.389,0,0,1,.063-.006,1.331,1.331,0,0,1,.27,2.647" transform="translate(17.519 2.11)" fill="#32324c"/>
            <path id="Trazado_138429" data-name="Trazado 138429" d="M126.455,16.61s-3.726-2.042-4.919,1.349c-1.049,2.981,2.341,8.624,6.877,6.777Z" transform="translate(16.216 2.138)" fill="#ffaf82"/>
            <path id="Trazado_138430" data-name="Trazado 138430" d="M141.5,25.577a3.555,3.555,0,0,1-.658,1,3.658,3.658,0,0,1-2.813,1.059,3.591,3.591,0,0,1-2.68-1.383,7.678,7.678,0,0,1-1.027-1.546,7.9,7.9,0,0,1-.43-.985s5.434-.169,8.034-.552h0a5.544,5.544,0,0,1-.053,1.067,5.028,5.028,0,0,1-.375,1.342" transform="translate(17.893 3.096)" fill="#920e08"/>
            <path id="Trazado_138431" data-name="Trazado 138431" d="M141.873,24.235a50.842,50.842,0,0,1-7.551.469,8.034,8.034,0,0,1-.431-.985s5.434-.17,8.035-.553h0a5.449,5.449,0,0,1-.053,1.068" transform="translate(17.893 3.096)" fill="#fff"/>
            <path id="Trazado_138432" data-name="Trazado 138432" d="M126.472,21.992a6.223,6.223,0,0,0-3.521-3.9s2.434,2.294,2.619,4.071a.442.442,0,0,0,.449.4l.053,0a.435.435,0,0,0,.4-.572" transform="translate(16.431 2.418)" fill="#f88968"/>
            <path id="Trazado_138433" data-name="Trazado 138433" d="M140.668,26.257a3.665,3.665,0,0,1-2.814,1.059,3.591,3.591,0,0,1-2.679-1.383,3.407,3.407,0,0,1,2.786-.161,2.328,2.328,0,0,1,1.392-.2,1.766,1.766,0,0,1,1.314.688" transform="translate(18.064 3.414)" fill="#f85c66"/>
            <path id="Trazado_138434" data-name="Trazado 138434" d="M137.273,28.649a4.993,4.993,0,0,1-1.736-.69.3.3,0,0,1,.343-.5,3.991,3.991,0,0,0,3.92.248.3.3,0,1,1,.286.535,4.186,4.186,0,0,1-2.814.407" transform="translate(18.095 3.662)" fill="#f88968"/>
            <path id="Trazado_138435" data-name="Trazado 138435" d="M138.467,22.74h-1.576a.324.324,0,0,1,0-.647h1.576a.066.066,0,0,0,.058-.028.071.071,0,0,0,.012-.065l-1.309-4.478a.324.324,0,1,1,.622-.181l1.308,4.479a.72.72,0,0,1-.692.921" transform="translate(18.25 2.286)" fill="#f88968"/>
            <path id="Trazado_138436" data-name="Trazado 138436" d="M135.375,13.366h0a.619.619,0,0,1-.545.733c-1.212.119-3.729.529-4.864,1.914,0,0,.247-2.274,4.68-3.139a.621.621,0,0,1,.73.492" transform="translate(17.368 1.719)" fill="#32324c"/>
            <path id="Trazado_138437" data-name="Trazado 138437" d="M139.145,13.345h0a.619.619,0,0,0,.665.627c1.213-.094,3.764-.129,5.123,1.035,0,0-.641-2.2-5.155-2.274a.622.622,0,0,0-.634.612" transform="translate(18.595 1.702)" fill="#32324c"/>
            <path id="Trazado_138438" data-name="Trazado 138438" d="M141.166,18.293a1.333,1.333,0,0,0,1.507-1.131,1.314,1.314,0,0,0-.1-.73c1.091-.128,1.068-.79,1.068-.79-.17.283-1.443.118-1.971.037h0l-.156-.026H141.5a.389.389,0,0,0-.063,0,1.331,1.331,0,0,0-.27,2.646" transform="translate(18.712 2.09)" fill="#32324c"/>
            <path id="Trazado_138439" data-name="Trazado 138439" d="M131.817,7.285s-.521,9.11-4.768,12.787c0,0-.366-2.416-3.673-2.053a14.193,14.193,0,0,1-.8-3.306c-.486-2.741,1.257-14.053,13.8-13.325,0,0,3.989-.809,9.574,3.965s2.276,10,2.276,10a32.924,32.924,0,0,1-16.414-8.067" transform="translate(16.371 0.179)" fill="#32324c"/>
            <path id="Trazado_138440" data-name="Trazado 138440" d="M126.363,24.211a1.045,1.045,0,1,1-1.045-1.045,1.046,1.046,0,0,1,1.045,1.045" transform="translate(16.607 3.096)" fill="#fff"/>
            <path id="Trazado_138441" data-name="Trazado 138441" d="M154.8,97.932c-15.685,7.989-31.36,1.337-31.36,1.337C125.593,85.622,128.2,67.6,128.2,67.6c-4.317-8.259-7.065-30.75-7.065-30.75,2.534-1.569,3.717-1.188,6.613-1.95.816-.218,1.568-.4,2.209-.545,1.313-.3,2.163-.453,2.163-.453a43.555,43.555,0,0,1,11.07.136.564.564,0,0,0,.061.008c2.629.345,4.384.766,4.384.766s1.205,9.1,3.8,13.7.611,7.387,0,9.392a7.045,7.045,0,0,0-.229,1.505c-.172,2.514-.387,14.343-.387,14.343Z" transform="translate(16.188 4.491)" fill="#ff9300"/>
            <path id="Trazado_138442" data-name="Trazado 138442" d="M139.114,42.717c-4.306.133-8.161-4.7-10.194-8.361,1.313-.3,2.163-.453,2.163-.453a43.556,43.556,0,0,1,11.07.136.564.564,0,0,0,.061.008c.524,3.682,1.432,8.531-3.1,8.67" transform="translate(17.228 4.491)" fill="#ffaf82"/>
            <path id="Trazado_138443" data-name="Trazado 138443" d="M149.721,55.043a7.027,7.027,0,0,0-.228,1.5,23.237,23.237,0,0,1-15.483,1.68c10.234-.173,15.711-3.184,15.711-3.184" transform="translate(17.908 7.356)" fill="#cf691f"/>
          </g>
        </g>
      </g>
    </g>
    <g id="Rectángulo_8942" data-name="Rectángulo 8942" transform="translate(1020 1650)" fill="#fff" stroke="#d44f4a" stroke-width="1" stroke-dasharray="4">
      <rect width="87" height="183" stroke="none"/>
      <rect x="0.5" y="0.5" width="86" height="182" fill="none"/>
    </g>
    <path id="Trazado_138453" data-name="Trazado 138453" d="M-6744-10048l79.544,24.337" transform="translate(7853.174 11700)" fill="none" stroke="#d44f4a" stroke-width="1" stroke-dasharray="4"/>
    <path id="Trazado_138454" data-name="Trazado 138454" d="M-6679.229-9956.321-6744-9871.557" transform="translate(7853.174 11700)" fill="none" stroke="#d44f4a" stroke-width="1" stroke-dasharray="4"/>
    <g id="Enmascarar_grupo_116" data-name="Enmascarar grupo 116" transform="translate(-23 -5)" clip-path="url(#clip-path-8)">
      <g id="Grupo_66658" data-name="Grupo 66658" transform="translate(-31.257 -33.247)">
        <path id="Trazado_138444" data-name="Trazado 138444" d="M27.591,99.756a85.867,85.867,0,0,0,3.381,9.189c1.778,3.867.558,6.851,1.622,10.342s-3.111,3.234-3.915-.429-.461-5.4-1.225-5.513-2.944,8.809-3.258,11.372.209,8.98-.751,9.98-3.271-2.609-2.539-9.291.193-6.537.193-6.537-.63,2.593-1.292,5.382a30.185,30.185,0,0,0-.544,8.093c.126,1.9-1.815,2.85-2.389,1.829s-1.486-7.669-.713-10.267,1.711-7.055,1.711-7.055-2.553,5.977-2.99,7.519.292,7.428-1.054,8.5c-.558.442-2.341-.147-2.038-8.535a46.211,46.211,0,0,1,1.5-6.629,14.824,14.824,0,0,0-2.043,4.438A41.144,41.144,0,0,0,10.129,129c-.2,2.266-2.159,1.966-2.161-2.033s.67-8.412,1.794-10.541,2.765-14.579,6.092-19.146Z" transform="translate(1082.065 1728.411)" fill="#ffaf82"/>
        <path id="Trazado_138445" data-name="Trazado 138445" d="M60.7,62.409s-9.876,45.722-17.9,61.06c0,0-4.113,20.186-19.446,73.145,0,0-8.01,3.186-12.683-2.9,0,0,8.578-58.477,13.048-77.095,0,0,14.44-65.6,28.6-76.459L62.676,54.39a50.273,50.273,0,0,1-1.977,8.02" transform="translate(1086.609 1632.367)" fill="#ff9300"/>
        <path id="Trazado_138446" data-name="Trazado 138446" d="M36,50.738A6.134,6.134,0,1,1,29.866,44.6,6.136,6.136,0,0,1,36,50.738Z" transform="translate(1108.573 1639.833)" fill="none" stroke="#000" stroke-miterlimit="10" stroke-width="0.391"/>
        <path id="Trazado_138447" data-name="Trazado 138447" d="M28.152,47.712A1.31,1.31,0,1,1,26.843,46.4a1.309,1.309,0,0,1,1.309,1.309" transform="translate(1111.598 1642.858)"/>
        <path id="Trazado_138448" data-name="Trazado 138448" d="M29.485,73.465a6.134,6.134,0,1,1-6.133-6.135A6.135,6.135,0,0,1,29.485,73.465Z" transform="translate(1097.616 1678.047)" fill="none" stroke="#000" stroke-miterlimit="10" stroke-width="0.391"/>
        <path id="Trazado_138449" data-name="Trazado 138449" d="M21.636,70.439a1.31,1.31,0,1,1-1.309-1.309,1.309,1.309,0,0,1,1.309,1.309" transform="translate(1100.641 1681.073)"/>
        <path id="Trazado_138450" data-name="Trazado 138450" d="M22.573,104.944a6.134,6.134,0,1,1-6.135-6.135A6.136,6.136,0,0,1,22.573,104.944Z" transform="translate(1085.994 1730.976)" fill="none" stroke="#000" stroke-miterlimit="10" stroke-width="0.391"/>
        <path id="Trazado_138451" data-name="Trazado 138451" d="M14.724,101.918a1.31,1.31,0,1,1-1.309-1.309,1.309,1.309,0,0,1,1.309,1.309" transform="translate(1089.02 1734.004)"/>
        <path id="Trazado_138452" data-name="Trazado 138452" d="M48.6,46.891,31.127,107.833l-18.534,84.41" transform="translate(1089.84 1643.68)" fill="none" stroke="#000" stroke-miterlimit="10" stroke-width="0.391"/>
      </g>
    </g>
  </g>
</svg>
