<svg xmlns="http://www.w3.org/2000/svg" xmlns:xlink="http://www.w3.org/1999/xlink" width="820" height="116.805" viewBox="0 0 820 116.805">
  <defs>
    <linearGradient id="linear-gradient" x1="0.961" y1="0.448" x2="0.015" y2="0.455" gradientUnits="objectBoundingBox">
      <stop offset="0" stop-color="#fa9300"/>
      <stop offset="0.337" stop-color="#ed7c19"/>
      <stop offset="1" stop-color="#d44f4a"/>
    </linearGradient>
    <clipPath id="clip-path">
      <rect id="Rectángulo_10284" data-name="Rectángulo 10284" width="610" height="115.805" fill="none"/>
    </clipPath>
  </defs>
  <g id="Grupo_69501" data-name="Grupo 69501" transform="translate(-390 -892.298)">
    <g id="Grupo_69417" data-name="Grupo 69417" transform="translate(495 892.797)">
      <path id="Trazado_155610" data-name="Trazado 155610" d="M720.649,7.738H661.443l-29.6,51.274,29.6,51.274h59.206l29.6-51.274Z" transform="translate(-145.644 -1.784)" fill="#fff"/>
      <g id="Grupo_69402" data-name="Grupo 69402">
        <g id="Grupo_69401" data-name="Grupo 69401" clip-path="url(#clip-path)">
          <path id="Trazado_155613" data-name="Trazado 155613" d="M561.608,7.738H502.4L472.8,59.013l29.6,51.274h59.205l29.6-51.274Z" transform="translate(-108.984 -1.784)" fill="#fff"/>
        </g>
      </g>
      <g id="Grupo_69406" data-name="Grupo 69406">
        <g id="Grupo_69405" data-name="Grupo 69405" clip-path="url(#clip-path)">
          <path id="Trazado_155621" data-name="Trazado 155621" d="M405.956,7.738H346.751l-29.6,51.274,29.6,51.274h59.205l29.6-51.274Z" transform="translate(-68.779 -1.371)" fill="#fff"/>
        </g>
      </g>
      <g id="Grupo_69410" data-name="Grupo 69410">
        <g id="Grupo_69409" data-name="Grupo 69409" clip-path="url(#clip-path)">
          <path id="Trazado_155625" data-name="Trazado 155625" d="M251.747,7.738H192.54l-29.6,51.274,29.6,51.274h59.206l29.6-51.274Z" transform="translate(-37.558 -1.784)" fill="#fff"/>
        </g>
      </g>
      <g id="Grupo_69414" data-name="Grupo 69414">
        <g id="Grupo_69413" data-name="Grupo 69413" clip-path="url(#clip-path)">
          <path id="Trazado_155628" data-name="Trazado 155628" d="M97.826,7.738H38.62L9.016,59.013l29.6,51.274H97.826l29.6-51.274Z" transform="translate(-2.078 -1.784)" fill="#fff"/>
        </g>
      </g>
      <path id="Unión_5" data-name="Unión 5" d="M2315.79,11295.009a6.487,6.487,0,0,1-5.593-3.231l-19.429-33.665a6.469,6.469,0,0,1,0-6.457v-.006a6.46,6.46,0,0,1,11.188,0l15.7,27.2a6.469,6.469,0,0,0,5.593,3.232h44.479a6.473,6.473,0,0,0,5.593-3.232c.145-.289,55.469-96.135,55.631-96.415a6.465,6.465,0,0,1,5.6-3.231h59.389a6.445,6.445,0,0,1,5.593,3.231l19.593,33.931a6.463,6.463,0,0,1-11.194,6.463l-15.854-27.468a6.451,6.451,0,0,0-5.593-3.231h-44.473a6.454,6.454,0,0,0-5.593,3.231s-32.3,56-55.633,96.416a6.461,6.461,0,0,1-5.593,3.231Zm-119.858,0a6.487,6.487,0,0,1-5.593-3.231l-19.429-33.665a6.469,6.469,0,0,1,0-6.457v-.006a6.46,6.46,0,0,1,11.188,0l15.7,27.2a6.469,6.469,0,0,0,5.593,3.232h44.479a6.473,6.473,0,0,0,5.593-3.232c22.6-39.215,31.283-54.229,55.63-96.415a6.466,6.466,0,0,1,5.6-3.231h59.389a6.449,6.449,0,0,1,5.593,3.231l19.593,33.931a6.463,6.463,0,0,1-11.194,6.463l-15.854-27.468a6.455,6.455,0,0,0-5.6-3.231h-44.47a6.454,6.454,0,0,0-5.593,3.231s-33.583,58.225-55.633,96.416a6.461,6.461,0,0,1-5.593,3.231Zm359.516,0a6.465,6.465,0,0,1-5.6-3.231l-19.395-33.6a6.457,6.457,0,0,1-.006-6.446v0a6.462,6.462,0,0,1,11.2-.017l15.664,27.139a6.461,6.461,0,0,0,5.6,3.229h44.47a6.457,6.457,0,0,0,5.593-3.229l22.241-38.515a6.461,6.461,0,0,0,0-6.46l-22.241-38.518a6.458,6.458,0,0,0-5.593-3.229h-44.473a6.458,6.458,0,0,0-5.593,3.229c-28.7,49.692-19.08,33.075-55.656,96.416a6.46,6.46,0,0,1-5.593,3.231h-59.4a6.46,6.46,0,0,1-5.593-3.231l-19.443-33.679a6.458,6.458,0,0,1-.008-6.443l0-.006a6.46,6.46,0,0,1,11.2-.017l15.715,27.221a6.457,6.457,0,0,0,5.593,3.229h44.47a6.458,6.458,0,0,0,5.6-3.229l.313-.543h0v0l9.086-15.739-4.633,8.021c6.854-11.869,21.96-38.038,50.888-88.152a6.457,6.457,0,0,1,5.6-3.229h59.4a6.456,6.456,0,0,1,5.593,3.229l29.7,51.44a6.455,6.455,0,0,1,0,6.457l-29.7,51.441a6.46,6.46,0,0,1-5.593,3.231Zm-49.584-36.366,5.408-9.368Zm-428.708,36.366a6.465,6.465,0,0,1-5.6-3.231l-29.693-51.441a6.428,6.428,0,0,1-.867-3.186v-.085a6.44,6.44,0,0,1,.867-3.187l29.693-51.44a6.46,6.46,0,0,1,5.6-3.229h59.4a6.464,6.464,0,0,1,5.6,3.229l19.392,33.6a6.45,6.45,0,0,1,.009,6.443l0,.006a6.459,6.459,0,0,1-11.2.015l-15.667-27.137a6.454,6.454,0,0,0-5.593-3.231h-44.47a6.462,6.462,0,0,0-5.6,3.229l-22.238,38.518a6.448,6.448,0,0,0,0,6.46l22.238,38.515a6.461,6.461,0,0,0,5.6,3.229h44.47a6.45,6.45,0,0,0,5.593-3.229c13.187-22.827,55.65-96.4,55.656-96.415a6.463,6.463,0,0,1,5.6-3.229h59.4a6.457,6.457,0,0,1,5.6,3.229l19.443,33.679a6.463,6.463,0,0,1,.009,6.446l-.006,0a6.457,6.457,0,0,1-11.194.015l-15.716-27.219a6.458,6.458,0,0,0-5.6-3.231H2203.4a6.454,6.454,0,0,0-5.593,3.231c-44.53,77.14-49.6,85.913-55.656,96.413a6.469,6.469,0,0,1-5.6,3.231Zm417.287-16.583c-.17.295-.264.454-.264.454S2494.264,11278.729,2494.442,11278.423Zm.009-.017-.009.017Zm.028-.049c-.011.018-.02.034-.028.049C2494.459,11278.392,2494.468,11278.375,2494.479,11278.357Zm.009-.014a.055.055,0,0,1-.009.014A.055.055,0,0,0,2494.488,11278.344Zm.011-.022a.24.24,0,0,1-.011.022A.24.24,0,0,0,2494.5,11278.321Zm.011-.014h0a.042.042,0,0,0-.01.014A.028.028,0,0,1,2494.51,11278.308Zm.018-.032-.017.025Zm.026-.045a.259.259,0,0,0-.026.045A.259.259,0,0,1,2494.553,11278.23Zm4.411-7.643c-2.066,3.583-3.708,6.427-4.411,7.643C2495.16,11277.176,2496.552,11274.77,2498.964,11270.588Z" transform="translate(-2041 -11179.203)" stroke="rgba(0,0,0,0)" stroke-miterlimit="10" stroke-width="1" fill="url(#linear-gradient)"/>
    </g>
    <rect id="Rectángulo_10296" data-name="Rectángulo 10296" width="85" height="6" rx="3" transform="translate(390 946)" fill="#d44f4a"/>
    <rect id="Rectángulo_10297" data-name="Rectángulo 10297" width="85" height="6" rx="3" transform="translate(1125 946)" fill="#fa9300"/>
  </g>
</svg>
