<svg id="Grupo_66623" data-name="Grupo 66623" xmlns="http://www.w3.org/2000/svg" xmlns:xlink="http://www.w3.org/1999/xlink" width="357" height="212.595" viewBox="0 0 357 212.595">
  <defs>
    <clipPath id="clip-path">
      <rect id="Rect치ngulo_8928" data-name="Rect치ngulo 8928" width="357" height="212.595" fill="none"/>
    </clipPath>
  </defs>
  <g id="Grupo_66622" data-name="Grupo 66622" clip-path="url(#clip-path)">
    <path id="Trazado_138070" data-name="Trazado 138070" d="M49.692,85.157c-.254-.7-.438-1.244-.521-1.542C48.6,81.6,47.483,53.6,46.819,48.577s-8.289-9.144-8.289-9.144l-.344,14.3-5.1,23.123,4.569,8.3Z" transform="translate(4.041 4.816)" fill="#cf691f"/>
    <path id="Trazado_138071" data-name="Trazado 138071" d="M45.961,84c-1.264-2.99-2.248-5.18-2.248-5.18L43.251,62.2c1.152-3.416.241-10.043-.314-13.281a103.256,103.256,0,0,1-.89,12.165V77.353L39.366,84Z" transform="translate(4.808 5.975)" fill="#cf691f"/>
    <path id="Trazado_138072" data-name="Trazado 138072" d="M57.654,186.935H49.748c-1.708,0-5.236-3.021-5.236-3.021a14.7,14.7,0,0,1-1.936,2.959c-.91.911-.681-8.734-.681-8.734l4.578-.186,9.851,5.846,1.883,1.118a1.085,1.085,0,0,1-.553,2.018" transform="translate(5.114 21.735)" fill="#6c3509"/>
    <path id="Trazado_138073" data-name="Trazado 138073" d="M56.323,183.8c-10.794,3.536-14.43-5.66-14.43-5.66l4.578-.186Z" transform="translate(5.117 21.735)" fill="#fdbd8e"/>
    <path id="Trazado_138074" data-name="Trazado 138074" d="M32.313,183.741c-.349,1.362-3.1,3.357-4.373,4.215a1.02,1.02,0,0,1-1.224-.059c-1.111-.925-3.43-2.974-3.66-4.155a12.372,12.372,0,0,1,1.057-4.178c.922-2.527,2.106-5.192,2.106-5.192l4.578.186s1.063,3.993,1.448,6.818a7.519,7.519,0,0,1,.068,2.365" transform="translate(2.814 21.298)" fill="#fdbd8e"/>
    <path id="Trazado_138075" data-name="Trazado 138075" d="M32.313,183.176c-.349,1.362-3.1,3.357-4.373,4.215a1.02,1.02,0,0,1-1.224-.059c-1.111-.925-3.43-2.974-3.66-4.155A12.372,12.372,0,0,1,24.112,179c.494,1.843,1.5,4.064,3.458,4.178,1.841.1,3.525-1.177,4.674-2.365a7.519,7.519,0,0,1,.068,2.365" transform="translate(2.814 21.863)" fill="#6c3509"/>
    <path id="Trazado_138076" data-name="Trazado 138076" d="M45.074,78.334s.061-11.947.516-14.11,2.992-18.56-2.7-23.342a21.157,21.157,0,0,0-6.19-3.858,9.409,9.409,0,0,0-.913-.283v0a5.476,5.476,0,0,0-1.381-.194l-.011,0c-.046,0-.082,0-.11,0a.068.068,0,0,1-.025,0,.2.2,0,0,0-.033,0H26.635a32.2,32.2,0,0,0-3.244.958c-1.8.64-6.632,3.474-7.187,4.585-.4.8.228,1.76,1.4,7.84,2.012,10.439,6.634,26.352,6.557,29.3,0,0,11.556,6.939,20.913-.911" transform="translate(1.965 4.464)" fill="#ff9300"/>
    <path id="Trazado_138077" data-name="Trazado 138077" d="M42.646,58.04,41.867,58l-2.105-.131a21.09,21.09,0,0,0-6.617.432c-.623.164-1.247.358-1.875.526a15.1,15.1,0,0,1-1.866.393,14.45,14.45,0,0,1-3.216.1,5.5,5.5,0,0,1-1.248-.233,2.832,2.832,0,0,1-.861-.44,1.884,1.884,0,0,1-.41-.435c-.071-.116-.1-.176-.1-.176l.15.13a1.959,1.959,0,0,0,.483.272,3.991,3.991,0,0,0,1.97.108,23.373,23.373,0,0,0,2.969-.61c.549-.149,1.105-.325,1.7-.531s1.224-.424,1.912-.607a11.416,11.416,0,0,1,4-.3,17.736,17.736,0,0,1,3.141.6c.869.246,1.553.487,2.025.659s.729.277.729.277" transform="translate(2.878 6.894)" fill="#cf691f"/>
    <path id="Trazado_138078" data-name="Trazado 138078" d="M44.483,26.2c-.035-.178-.089-.437-.176-.751a6.759,6.759,0,0,0-.4-1.084,4.623,4.623,0,0,0-.807-1.207,4.362,4.362,0,0,0-1.168-.875,5.906,5.906,0,0,0-1.082-.428c-.136-.039-.26-.071-.374-.1-.138-.13-.22-.2-.22-.2l.071.168c-.085-.018-.165-.034-.231-.045-.18-.031-.281-.044-.281-.044l.658.43c.086.2.2.457.322.755a13.427,13.427,0,0,1,.939,2.974,17.76,17.76,0,0,1,.147,3.139c0,.423-.008.768-.009,1.005s.006.374.006.374.055-.123.15-.342.222-.543.357-.952a8.945,8.945,0,0,0,.358-1.479,6.11,6.11,0,0,0,0-1.914,5.739,5.739,0,0,0-.641-1.813,7.591,7.591,0,0,0-.824-1.2,8.363,8.363,0,0,1,1.257,1.076,13.449,13.449,0,0,1,1.416,1.92c.175.268.318.486.417.637l.162.233s-.018-.1-.049-.279" transform="translate(4.863 2.633)" fill="#85441d"/>
    <path id="Trazado_138079" data-name="Trazado 138079" d="M23.539,33.519a14.888,14.888,0,0,1-2.1,3.469c-1.864,2.355-4.475,4.362-7.473,4.558A10.334,10.334,0,0,0,17.92,38.9c-.183.118-.368.235-.557.339a10.029,10.029,0,0,1-6.914,1.1,8.616,8.616,0,0,0,1.926-3.645,12.735,12.735,0,0,0,.424-2.923,41.978,41.978,0,0,0-.692-7.083,68.2,68.2,0,0,1-.768-11.613c.105-3.091,1.109-6.448,3.456-8.585a5.266,5.266,0,0,1,7.858.867,4.888,4.888,0,0,1,.461.788c.2.422.3.746.044,1.131a8.321,8.321,0,0,1-.937,1.025,6.9,6.9,0,0,0-1.683,3.377,4.344,4.344,0,0,1,.414.371,8.927,8.927,0,0,1,1.838,3,26.157,26.157,0,0,1,1.848,9.28,17.42,17.42,0,0,1-1.1,7.191" transform="translate(1.276 0.625)" fill="#85441d"/>
    <path id="Trazado_138080" data-name="Trazado 138080" d="M22.56,7.354a4.581,4.581,0,0,1-.635,1.4A3.8,3.8,0,0,0,18.579,11a9.41,9.41,0,0,0-.756,4.155,38.238,38.238,0,0,0,.471,6.365,39.3,39.3,0,0,1,.867,6.685,7.911,7.911,0,0,1-2.477,6.052,8.962,8.962,0,0,0-.66-3.9,8.561,8.561,0,0,1-3.743,6.333,12.706,12.706,0,0,0,.423-2.922,29.238,29.238,0,0,0-.414-5.173c-.093-.637-.189-1.273-.277-1.91a68.081,68.081,0,0,1-.768-11.613c.1-3.093,1.109-6.448,3.456-8.585A5.36,5.36,0,0,1,19.28,5.215a5.1,5.1,0,0,1,1.29.445,5.4,5.4,0,0,1,1.99,1.694" transform="translate(1.37 0.625)" fill="#965326"/>
    <path id="Trazado_138081" data-name="Trazado 138081" d="M20.571,5.66a9.484,9.484,0,0,0-3.565,3.485,9.3,9.3,0,0,0-.606,2.188,21,21,0,0,0-.428,3.065,51.807,51.807,0,0,0,.444,5.4,17.228,17.228,0,0,1-.777,6.315,11.252,11.252,0,0,0-1.159-2.768,9.79,9.79,0,0,1-2.19,5.249c-.093-.637-.189-1.273-.277-1.91a68.073,68.073,0,0,1-.768-11.613c.1-3.091,1.109-6.448,3.456-8.584A5.361,5.361,0,0,1,19.28,5.214a5.1,5.1,0,0,1,1.29.447" transform="translate(1.37 0.625)" fill="#b5693c"/>
    <path id="Trazado_138082" data-name="Trazado 138082" d="M24.893,9.536a3.073,3.073,0,1,1-3.072-3.074,3.072,3.072,0,0,1,3.072,3.074" transform="translate(2.29 0.789)" fill="#fff0e7"/>
    <path id="Trazado_138083" data-name="Trazado 138083" d="M35.042,37.023l.82,9.214-4.055-2.062-2.115-2.619s-.027-3.355-.018-5h2.9l.033,0a.1.1,0,0,0,.025,0c.028,0,.064,0,.11,0l.011,0a5.4,5.4,0,0,1,1.381.193v0a9.311,9.311,0,0,1,.913.283" transform="translate(3.624 4.464)" fill="#fff0e7"/>
    <path id="Trazado_138084" data-name="Trazado 138084" d="M32.316,45.3l-6.829-7.616c.011-1.131.107-1.558.209-4.357.109-3.115.223-6.034.223-6.034l8.789,3.474a20.738,20.738,0,0,0-1.572,7.087,57.686,57.686,0,0,1-.819,7.445" transform="translate(3.113 3.334)" fill="#fdbd8e"/>
    <path id="Trazado_138085" data-name="Trazado 138085" d="M34.685,30.771a20.705,20.705,0,0,0-1.571,7.087c-.278.116-.55.223-.8.312-1.02.356-4.3-2.554-6.636-4.841.109-3.114.223-6.033.223-6.033Z" transform="translate(3.136 3.334)" fill="#fb9988"/>
    <path id="Trazado_138086" data-name="Trazado 138086" d="M44.176,22.7q-.266,1.22-.687,2.558s.393,4.4-.068,5.387S40,37.784,36.886,37.4c-2.6-.316-8.942-4.119-11.148-6.384a2.6,2.6,0,0,1-.766-1.13c-.3-1.746-1.343-9.447-1.442-10.093-.264-1.746-1-14.97,14.992-11.292a7.7,7.7,0,0,1,5.8,5.779,19.272,19.272,0,0,1-.148,8.418" transform="translate(2.863 0.96)" fill="#fdbd8e"/>
    <path id="Trazado_138087" data-name="Trazado 138087" d="M47.279,15.1a6.772,6.772,0,0,1-.421,2.058,7.374,7.374,0,0,1-2.184,3.574,22.457,22.457,0,0,0-.239-5.347c-3.813,4.155-11.79,5.577-12.115,5.632,1.512-.463,1.965-3.488,1.965-3.488-1.821,4.251-9.805,5.125-9.805,5.125-1.91-1.553-3.24,1.387-3.24,1.387-.646-1.2-1.184-2.277-1.6-3.281-.111-.261-.214-.517-.307-.768a10.808,10.808,0,0,1-.549-2.058C17.718,11.552,22.491,5.3,28.638,3.513a.053.053,0,0,1,.018,0c5.81-1.68,12.679-.14,15.914,3.069a6.708,6.708,0,0,1,1.377,1.909c.048.1.091.2.13.309.013.033.025.064.036.1a4.946,4.946,0,0,1,.314,1.883,6.552,6.552,0,0,1-.137,1.156,6.315,6.315,0,0,1,.989,3.169" transform="translate(2.276 0.345)" fill="#85441d"/>
    <path id="Trazado_138088" data-name="Trazado 138088" d="M46.076,8.8a4.8,4.8,0,0,1-1.092.441c-.771.2-1.579.22-2.348.424a4.9,4.9,0,0,0-2.418,1.5c-1.124,1.281-1.626,3.184-3.144,3.957a4.875,4.875,0,0,1-3.456.062,12.138,12.138,0,0,0-3.454-.713A6.51,6.51,0,0,0,25.518,17.2,5.513,5.513,0,0,1,24.4,18.4a3.583,3.583,0,0,1-2.209.474,8.409,8.409,0,0,1-3.412-.936,11.452,11.452,0,0,1,.668-6.049,14.333,14.333,0,0,1,9.188-8.371.059.059,0,0,1,.019,0A19.164,19.164,0,0,1,40.07,3.9a12.22,12.22,0,0,1,4.5,2.677,6.692,6.692,0,0,1,1.378,1.908c.047.1.091.2.129.31" transform="translate(2.276 0.345)" fill="#965326"/>
    <path id="Trazado_138089" data-name="Trazado 138089" d="M39.982,3.9c-1.876,1.535-2.835,4.219-5.1,5.063a9.006,9.006,0,0,1-4.172.073,5.5,5.5,0,0,0-4.046.7c-.578.456-.97,1.1-1.516,1.6a5.129,5.129,0,0,1-4.39.955,8.093,8.093,0,0,1-1.393-.4,14.333,14.333,0,0,1,9.188-8.371.059.059,0,0,1,.019,0A19.164,19.164,0,0,1,39.982,3.9" transform="translate(2.365 0.345)" fill="#b5693c"/>
    <path id="Trazado_138090" data-name="Trazado 138090" d="M43.239,23.647s.393,4.4-.068,5.386-3.425,7.136-6.534,6.755c-2.6-.316-8.943-4.118-11.148-6.384,2.7,1.876,9.907,6.664,12.02,5.928,2.618-.91,5.577-6.7,5.521-7.278s-.228-4.33-.228-4.33.529-1.186,1.124-2.636q-.266,1.219-.687,2.558" transform="translate(3.113 2.576)" fill="#ffdaba"/>
    <path id="Trazado_138091" data-name="Trazado 138091" d="M25.995,28.238a6.114,6.114,0,0,1-4.251-2.345,4.8,4.8,0,0,1-.423-.632c-.573-1.039-.737-4.645.737-5.483,1.035-.586,1.788.265,2.146.828v0a3.342,3.342,0,0,1,.233.426Z" transform="translate(2.554 2.392)" fill="#ffdaba"/>
    <path id="Trazado_138092" data-name="Trazado 138092" d="M25.968,28.2a6.114,6.114,0,0,1-4.251-2.345c-.067-.1-.127-.2-.177-.291-.573-1.039-.738-4.646.738-5.483a1.416,1.416,0,0,1,1.9.487v0a3.342,3.342,0,0,1,.233.426Z" transform="translate(2.58 2.429)" fill="#fdbd8e"/>
    <path id="Trazado_138093" data-name="Trazado 138093" d="M21.522,22.38a1.551,1.551,0,0,0,.067.873,7.122,7.122,0,0,0,2.769,2.992,3.035,3.035,0,0,1-.406-1.9c.025-.224.073-.448.075-.673.009-.907-2.068-3-2.506-1.3" transform="translate(2.624 2.654)" fill="#fb9988"/>
    <path id="Trazado_138094" data-name="Trazado 138094" d="M24.9,26.59l-.066-.037c-.042-.026-.109-.058-.186-.111a2.636,2.636,0,0,1-.571-.516,2.32,2.32,0,0,1-.469-.961,2.01,2.01,0,0,1,.146-1.27,1.08,1.08,0,0,1,.084-.159l.022-.039c.007-.009,0,0,0,0h0l0-.007-.019-.035-.038-.068c-.027-.045-.054-.091-.082-.135a5.536,5.536,0,0,0-.348-.5c-.121-.154-.248-.3-.371-.426a3.435,3.435,0,0,0-.366-.34.822.822,0,0,0-.375-.166.6.6,0,0,0-.319.053.3.3,0,0,0-.141.129.23.23,0,0,0-.021.061.154.154,0,0,1,0-.064.285.285,0,0,1,.119-.165.657.657,0,0,1,.367-.116,1.026,1.026,0,0,1,.5.143,3.294,3.294,0,0,1,.45.322,5.259,5.259,0,0,1,.444.417,4.345,4.345,0,0,1,.411.511c.033.046.063.093.093.14l.045.073.058.1.042.072a.771.771,0,0,1-.04.072l-.058.1a.806.806,0,0,0-.072.138,2.117,2.117,0,0,0-.187,1.123,2.376,2.376,0,0,0,.306.918,2.6,2.6,0,0,0,.437.558c.062.062.118.1.153.136l.054.048" transform="translate(2.661 2.652)" fill="#fd7d6f"/>
    <path id="Trazado_138095" data-name="Trazado 138095" d="M32.671,44.173l-5.188,4.054L22.6,37.513a32.558,32.558,0,0,1,3.244-.958Z" transform="translate(2.76 4.465)" fill="#fff0e7"/>
    <path id="Trazado_138096" data-name="Trazado 138096" d="M27.694,24.083c-.035-.178-.089-.437-.176-.751a6.72,6.72,0,0,0-.4-1.084,4.623,4.623,0,0,0-.807-1.207,4.362,4.362,0,0,0-1.168-.875,5.906,5.906,0,0,0-1.082-.428c-.136-.039-.259-.071-.374-.1-.137-.131-.22-.2-.22-.2s.026.062.072.168c-.086-.018-.166-.034-.232-.045-.18-.031-.281-.044-.281-.044l.658.43c.086.2.2.457.322.755a13.427,13.427,0,0,1,.939,2.974,17.756,17.756,0,0,1,.147,3.139c0,.423-.007.768-.009,1.005s.007.374.007.374.053-.122.149-.342.222-.543.357-.952a8.946,8.946,0,0,0,.358-1.479,6.1,6.1,0,0,0,0-1.913,5.773,5.773,0,0,0-.64-1.814,7.658,7.658,0,0,0-.825-1.2,8.45,8.45,0,0,1,1.257,1.077,13.449,13.449,0,0,1,1.416,1.92l.417.637c.1.15.162.233.162.233s-.018-.1-.049-.279" transform="translate(2.813 2.374)" fill="#85441d"/>
    <path id="Trazado_138097" data-name="Trazado 138097" d="M43.638,18.474s-2.041-2.732-3.179-1.651-.626,1.2-.626,1.2Z" transform="translate(4.851 2.024)" fill="#965326"/>
    <path id="Trazado_138098" data-name="Trazado 138098" d="M28.815,18.981s3.766-4.337,5.308-2.8c.9.9.274,1.512.274,1.512Z" transform="translate(3.519 1.936)" fill="#965326"/>
    <path id="Trazado_138099" data-name="Trazado 138099" d="M33.667,19.037a2.446,2.446,0,0,1-1.212,1.036,1.032,1.032,0,0,0-.771-.4c-.733,0-1.327.955-1.327,2.132s.595,2.133,1.327,2.133,1.329-.955,1.329-2.133a3.211,3.211,0,0,0-.157-1.008,3.919,3.919,0,0,0,.811-1.763" transform="translate(3.708 2.325)" fill="#161818"/>
    <path id="Trazado_138100" data-name="Trazado 138100" d="M29.226,20.453a2.736,2.736,0,0,0,2.931,1.186,2.73,2.73,0,0,0-2.931-1.186" transform="translate(3.57 2.491)" fill="#fff0e7"/>
    <path id="Trazado_138101" data-name="Trazado 138101" d="M41.569,20.048a1.7,1.7,0,0,1-.832.716.743.743,0,0,0-.518-.236c-.553,0-1,.72-1,1.608s.448,1.608,1,1.608,1-.72,1-1.608a2.325,2.325,0,0,0-.174-.9,2.9,2.9,0,0,0,.523-1.184" transform="translate(4.79 2.449)" fill="#161818"/>
    <path id="Trazado_138102" data-name="Trazado 138102" d="M42,21.216a2.216,2.216,0,0,1-2.086.844A2.21,2.21,0,0,1,42,21.216" transform="translate(4.875 2.589)" fill="#fff0e7"/>
    <path id="Trazado_138103" data-name="Trazado 138103" d="M36.186,25.917a2.344,2.344,0,0,0-1-.263A3.334,3.334,0,0,0,37,27.4a.38.38,0,0,0,.419-.039,3.914,3.914,0,0,0,1.145-1.019.741.741,0,0,0,.147-.273c.079-.336-.151-.261-.351-.184a3.1,3.1,0,0,1-2.172.03" transform="translate(4.298 3.133)" fill="#fb9988"/>
    <path id="Trazado_138104" data-name="Trazado 138104" d="M36.9,27.84c.2-.183.433-.338.643-.516a5.127,5.127,0,0,0,.711-.727c-1.091-.752-1.079-1.891-1.025-3.182a3.752,3.752,0,0,1,1.007-2.408,3.809,3.809,0,0,1,.34-.32,1.352,1.352,0,0,1,.377-.21c-.066.076-.112.165-.173.245a7.125,7.125,0,0,0-.461.622,4.5,4.5,0,0,0-.351.7,4.557,4.557,0,0,0-.327,1.529,3.775,3.775,0,0,0,.245,1.512,2.993,2.993,0,0,0,1.093,1.408s-.745.869-.819.94a3.924,3.924,0,0,1-.618.487,1.361,1.361,0,0,1-.735.292.441.441,0,0,1-.238-.071.814.814,0,0,0,.129-.1l.049-.052c.048-.052.1-.1.153-.147" transform="translate(4.467 2.501)" fill="#fd7d6f"/>
    <path id="Trazado_138105" data-name="Trazado 138105" d="M35.188,30.028a3.188,3.188,0,0,0,2.65.079,1.372,1.372,0,0,1-1.212.654,2.264,2.264,0,0,1-1.439-.733" transform="translate(4.298 3.668)" fill="#fd7d6f"/>
    <path id="Trazado_138106" data-name="Trazado 138106" d="M32.447,27.963a7.967,7.967,0,0,0,7.343,1.008,11.65,11.65,0,0,1-4.009-.009,9.049,9.049,0,0,1-3.334-1" transform="translate(3.963 3.415)" fill="#fd7d6f"/>
    <path id="Trazado_138107" data-name="Trazado 138107" d="M39.742,26.5c.175.467,1.184.521,2.252.121s1.793-1.1,1.619-1.57-1.183-.521-2.252-.121-1.793,1.1-1.619,1.57" transform="translate(4.851 3.012)" fill="#fb9988"/>
    <path id="Trazado_138108" data-name="Trazado 138108" d="M27.757,24.433c-.183.7.977,1.614,2.589,2.031s3.068.185,3.25-.518-.977-1.614-2.589-2.031-3.067-.185-3.25.518" transform="translate(3.388 2.896)" fill="#fb9988"/>
    <path id="Trazado_138109" data-name="Trazado 138109" d="M43.073,18.01a4.072,4.072,0,0,0-4.021,3.475,2.632,2.632,0,0,0-1.956.042,4.448,4.448,0,0,0-8.572-1.08l-5.867-.957-.11.673,5.777.944a4.45,4.45,0,1,0,8.794,1.152,1.951,1.951,0,0,1,1.893-.009,4.067,4.067,0,1,0,4.061-4.241m-10.4,7.8a3.769,3.769,0,1,1,3.77-3.769,3.773,3.773,0,0,1-3.77,3.769m10.4-.347A3.386,3.386,0,1,1,46.46,22.08a3.389,3.389,0,0,1-3.387,3.385" transform="translate(2.754 2.148)" fill="#fff0e7"/>
    <path id="Trazado_138110" data-name="Trazado 138110" d="M51.187,190.6,43,190.933l-.766-42.851-.015-.794.759-11.839L37.8,108.024H35.837L34.654,135.3l-.667,10.4-.153,5.942-.9,35.261-7.857-.321s-3.513-29.724-3.513-37.97a9.658,9.658,0,0,1,.11-1.768l.1-.788,1.861-13.943s-5.412-26.328-5.142-32.9a77.7,77.7,0,0,1,2.1-11.841C22.1,80.916,23.868,74.7,23.868,74.7l20.913-.911c.89,2.423,1.791,5.187,2.638,7.966,2.5,8.185,4.546,16.489,4.546,16.489.378,1.3,1.967,28.565,2.705,41.491.23,4.049.378,6.689.378,6.689.84,3.841-3.861,44.181-3.861,44.181" transform="translate(2.258 9.012)" fill="#2e3032"/>
    <path id="Trazado_138111" data-name="Trazado 138111" d="M33.5,143.78l-.9,35.261-7.857-.321S21.231,149,21.231,140.749a9.692,9.692,0,0,1,.109-1.768l.1-.785a12,12,0,0,0,1.407,2.062,11.373,11.373,0,0,0,7.361,3.868,10.762,10.762,0,0,0,3.287-.346" transform="translate(2.593 16.879)" fill="#1f2123"/>
    <path id="Trazado_138112" data-name="Trazado 138112" d="M48.6,183.423l-8.183.332L39.653,140.9a69.037,69.037,0,0,0,12.432-8.351c.23,4.049.378,6.689.378,6.689.84,3.841-3.861,44.181-3.861,44.181" transform="translate(4.843 16.19)" fill="#1f2123"/>
    <path id="Trazado_138113" data-name="Trazado 138113" d="M47.191,81.751c-1.963-.121-3.927-.357-5.89-.462-6.4-.348-13.252.765-18.7,4.3a22.078,22.078,0,0,0-2.236,1.786C21.872,80.915,23.64,74.7,23.64,74.7l20.912-.91c.89,2.423,1.792,5.187,2.639,7.966" transform="translate(2.487 9.012)" fill="#1f2123"/>
    <path id="Trazado_138114" data-name="Trazado 138114" d="M23.528,86.6s3.025-2.316,3.807-1.508-1.5,2.886-1.5,2.886Z" transform="translate(2.874 10.373)" fill="#fb9988"/>
    <path id="Trazado_138115" data-name="Trazado 138115" d="M33.424,89.374c-.3.81-5.626-1.9-5.626-1.9l-1.225,1.118,2.119,1.34,1.782,3.19s-.419.573-.973,1.246c-.068.084-.14.169-.212.255a14.24,14.24,0,0,1-1.056,1.138c-.033.033-.068.064-.1.1a4.54,4.54,0,0,1-.5.4.978.978,0,0,1-.453.187l-1.9-2.124a25.719,25.719,0,0,1-4.455-.085A8.777,8.777,0,0,1,19.5,92.219c-.275-.495-.559-1.02-.818-1.509l1.185-1.3,2.685-2.939c.375-.1.874-.212,1.435-.324v0c.275-.054.566-.107.863-.157a12.058,12.058,0,0,1,3.168-.178,2.877,2.877,0,0,1,1,.276c1.866.974,4.709,2.48,4.407,3.287" transform="translate(2.281 10.476)" fill="#fdbd8e"/>
    <path id="Trazado_138116" data-name="Trazado 138116" d="M27.506,95.03c-.033.033-.067.065-.1.1-.066-.1-.153-.228-.258-.383-.238-.351-.568-.82-.935-1.321a9.622,9.622,0,0,0-1.046-1.212l-.213-.2c-.07-.052-.127-.1-.176-.135-.1-.079-.154-.122-.154-.122s.071.013.2.047c.063.015.143.036.231.063s.183.074.292.122a3.729,3.729,0,0,1,1.367,1.128,4.426,4.426,0,0,1,.716,1.522c.038.153.063.283.079.389" transform="translate(3.008 11.207)" fill="#fd7d6f"/>
    <path id="Trazado_138117" data-name="Trazado 138117" d="M28.624,93.737c-.068.085-.141.169-.213.255-.015-.019-.029-.04-.043-.061-.239-.351-.569-.82-.936-1.319A9.41,9.41,0,0,0,26.388,91.4c-.08-.073-.149-.138-.212-.194s-.129-.1-.177-.137l-.153-.121s.068.015.2.046c.063.017.141.036.231.064s.184.074.291.121a3.712,3.712,0,0,1,1.367,1.129,4.382,4.382,0,0,1,.693,1.43" transform="translate(3.157 11.108)" fill="#fd7d6f"/>
    <path id="Trazado_138118" data-name="Trazado 138118" d="M27.628,95.863a.991.991,0,0,1-.452.189l-1.9-2.125a25.717,25.717,0,0,1-4.455-.085A8.834,8.834,0,0,1,19.5,91.823c-.275-.494-.56-1.02-.818-1.509l1.185-1.3c.22.465.452.935.691,1.377.658,1.232,1.344,2.256,1.84,2.359,1.313.267,3.465.541,3.465.541Z" transform="translate(2.281 10.872)" fill="#fb9988"/>
    <path id="Trazado_138119" data-name="Trazado 138119" d="M25.93,90.967l-1.345,1.571-3.534,4.125-.719.84S.55,83.778.015,80.262s13.7-34.48,14.771-35.728a51.2,51.2,0,0,1,4.31-3.889L24.43,52.863l-2.859,6.111v0l-9,19.226Z" transform="translate(0 4.964)" fill="#ff9300"/>
    <path id="Trazado_138120" data-name="Trazado 138120" d="M25.017,89.248l-1.345,1.571L11.185,78.036s-1.365,1.252-2.39.986c-1.01-.263,1.3-1.977,1.363-2.02-.082.025-2.058.678-2.616,0s2.847-1.583,2.847-1.583l9.589-20.695.679,2.533v0l-9,19.226Z" transform="translate(0.913 6.684)" fill="#cf691f"/>
    <path id="Trazado_138121" data-name="Trazado 138121" d="M21.051,96.239l-.719.84S.55,83.354.015,79.839s13.7-34.48,14.772-35.728c0,0-13.387,34.081-13.046,35.561.283,1.222,14.388,12.622,19.311,16.567" transform="translate(0 5.388)" fill="#ffb800"/>
    <path id="Trazado_138122" data-name="Trazado 138122" d="M55.108,85.881,31.927,84.4,38.92,53.536,62.1,55.013Z" transform="translate(3.9 6.539)" fill="#fff0e7"/>
    <path id="Trazado_138123" data-name="Trazado 138123" d="M62.829,56.079,56.477,84.117l-.641,2.83L32.655,85.47,35.911,71.1l3.737-16.5Z" transform="translate(3.988 6.669)" fill="#006aab"/>
    <path id="Trazado_138124" data-name="Trazado 138124" d="M56.477,82.322l-.641,2.83L32.655,83.675,35.911,69.3c1.915,5.13,7.117,11.028,20.565,13.02" transform="translate(3.988 8.465)" fill="#005789"/>
    <path id="Trazado_138125" data-name="Trazado 138125" d="M59.26,69.1a2.075,2.075,0,0,1-.943.92c-.442.212-.889.444-1.341.61l-.136.048a3.827,3.827,0,0,1-.635.163c-.077.011-.154.02-.229.025a1.893,1.893,0,0,1-.746-.086c-.384-.129-.461-.683-.137-1.079a4.323,4.323,0,0,1,1.473-1.138,6,6,0,0,1,2.188-.5c.55.026.883.282.5,1.038" transform="translate(6.704 8.313)" fill="#fdbd8e"/>
    <path id="Trazado_138126" data-name="Trazado 138126" d="M58.191,71.352a2.076,2.076,0,0,1-.94.92c-.286.136-.575.282-.867.413-.114.053-.23.1-.344.145a4.159,4.159,0,0,1-.9.263c-.059.009-.119.016-.178.021a1.942,1.942,0,0,1-.8-.082c-.384-.13-.459-.683-.135-1.079A4.22,4.22,0,0,1,55.5,70.816a5.518,5.518,0,0,1,.606-.228,7,7,0,0,1,.836-.208c.055-.011.109-.021.163-.028.845-.126,1.588,0,1.086,1" transform="translate(6.574 8.588)" fill="#fdbd8e"/>
    <path id="Trazado_138127" data-name="Trazado 138127" d="M57.694,73.406a2.076,2.076,0,0,1-.94.92c-.358.172-.724.357-1.091.509-.113.047-.229.093-.342.129a3.46,3.46,0,0,1-.681.182,2.494,2.494,0,0,1-.406.03,1.836,1.836,0,0,1-.569-.091c-.384-.13-.459-.683-.135-1.079A4.221,4.221,0,0,1,55,72.87a.1.1,0,0,1,.017-.007,6.745,6.745,0,0,1,1.238-.394c.061-.012.125-.027.187-.036.907-.167,1.783-.089,1.249.973" transform="translate(6.513 8.839)" fill="#fdbd8e"/>
    <path id="Trazado_138128" data-name="Trazado 138128" d="M56.674,75.594a2.064,2.064,0,0,1-.94.92l-.175.085a7.074,7.074,0,0,1-1.939.735,2.04,2.04,0,0,1-.975-.061c-.384-.129-.459-.683-.135-1.079a4.257,4.257,0,0,1,1.474-1.137,3.026,3.026,0,0,1,.374-.149,6.784,6.784,0,0,1,1.256-.318c.059-.009.117-.016.174-.022.754-.074,1.348.108.886,1.026" transform="translate(6.389 9.106)" fill="#fdbd8e"/>
    <path id="Trazado_138129" data-name="Trazado 138129" d="M59.235,69.1a2.075,2.075,0,0,1-.943.92c-.442.212-.889.444-1.341.61.844-.126,1.588,0,1.085,1a2.07,2.07,0,0,1-.94.92c-.285.136-.573.282-.866.413.907-.167,1.783-.09,1.249.972a2.07,2.07,0,0,1-.94.92c-.358.173-.724.357-1.091.511.754-.074,1.348.108.886,1.026a2.056,2.056,0,0,1-.94.919l-.174.086c.021-.042.042-.081.059-.123a2.313,2.313,0,0,0,.263-1.013.792.792,0,0,0-.437-.765l-.018,0,.186-.1a2.21,2.21,0,0,0,.992-.963c.236-.529,0-1.312-.48-1.25l.1-.067c.052-.034.105-.072.158-.109a2.616,2.616,0,0,0,.9-.941,1.219,1.219,0,0,0-.122-1.379c-.01-.006-.018-.015-.028-.02a.652.652,0,0,0-.1-.055,4.266,4.266,0,0,0,1.755-1.768c.109-.233.194-.506.286-.773.55.026.883.282.5,1.038" transform="translate(6.728 8.313)" fill="#ffdaba"/>
    <path id="Trazado_138130" data-name="Trazado 138130" d="M320.807,96.378,298.724,99.1l-2.407-15.932,1.128-.143,20.973-2.648,2.117,14.165Z" transform="translate(36.192 9.817)" fill="#fff0e7"/>
    <path id="Trazado_138131" data-name="Trazado 138131" d="M320.3,97.5l-22.084,2.723-2.406-15.932,1.127-.144L317.91,81.5l2.116,14.166Z" transform="translate(36.13 9.954)" fill="#006aab"/>
    <path id="Trazado_138132" data-name="Trazado 138132" d="M320.3,97.208l-22.084,2.723L295.811,84l1.127-.144c.589,3.515,3.952,12.967,23.089,11.518Z" transform="translate(36.13 10.242)" fill="#005789"/>
    <path id="Trazado_138133" data-name="Trazado 138133" d="M299.32,97.127a2.542,2.542,0,0,0,.332.548,2.258,2.258,0,0,0,.624.548s.6,2.943,1.034,3.354,3.063-.265,3.609-.462a14.42,14.42,0,0,0,3.843-2.2c.715-.814-.668-7.939-.668-7.939l-7.37.178s-1.742,5.207-1.4,5.977" transform="translate(36.554 11.111)" fill="#fdbd8e"/>
    <path id="Trazado_138134" data-name="Trazado 138134" d="M299.611,97.3a2.234,2.234,0,0,0,.624.548,6.4,6.4,0,0,1,.633-1.292,6.762,6.762,0,0,0,.825-.819s-.3-1.672-.442-1.664-.577.725-.577.725l-.121,1.142a7.6,7.6,0,0,0-.941,1.36" transform="translate(36.595 11.49)" fill="#fb9988"/>
    <path id="Trazado_138135" data-name="Trazado 138135" d="M255.429,188.012h7.907c1.708,0,5.236-3.021,5.236-3.021a14.78,14.78,0,0,0,1.936,2.96c.911.91,1.166-9.68,1.166-9.68l-5.063.759-9.851,5.846L254.876,186a1.083,1.083,0,0,0,.553,2.016" transform="translate(31.066 21.774)" fill="#6c3509"/>
    <path id="Trazado_138136" data-name="Trazado 138136" d="M256.5,184.877c10.794,3.537,14.915-6.6,14.915-6.6H266.4Z" transform="translate(31.329 21.774)" fill="#fdbd8e"/>
    <path id="Trazado_138137" data-name="Trazado 138137" d="M301.6,186.961l7.193-3.283c1.553-.709,3.51-4.923,3.51-4.923a14.69,14.69,0,0,0,2.988,1.89c1.206.45-2.957-9.29-2.957-9.29l-4.292,2.793-6.534,9.409-1.249,1.8a1.085,1.085,0,0,0,1.341,1.606" transform="translate(36.65 20.929)" fill="#6c3509"/>
    <path id="Trazado_138138" data-name="Trazado 138138" d="M301.352,183.556c11.288-1.265,10.826-12.2,10.826-12.2l-4.557,2.079Z" transform="translate(36.807 20.929)" fill="#fdbd8e"/>
    <path id="Trazado_138139" data-name="Trazado 138139" d="M272.8,74.1l-.845,50.372L309.6,186.108l7.487-2.445s-16.7-43.326-18.055-44.707-8-11.408-8-11.408L290.9,79.881Z" transform="translate(33.217 9.051)" fill="#1f2123"/>
    <path id="Trazado_138140" data-name="Trazado 138140" d="M279.913,74.1s-13.211,46.164-13.485,49.351S262.878,191,262.878,191l8.86.759s10.013-55.55,9.728-64.657c-.075-2.394,15.216-18.468,16.026-31.141.826-12.919-2.666-20.942-2.666-20.942Z" transform="translate(32.108 9.051)" fill="#2e3032"/>
    <path id="Trazado_138141" data-name="Trazado 138141" d="M262.878,29.492l1.756-3,3.117,1.717-2.02,3.209Z" transform="translate(32.108 3.236)" fill="#fb9988"/>
    <path id="Trazado_138142" data-name="Trazado 138142" d="M265.859,31.832l-.395-.267-.406-1.5a4.252,4.252,0,0,1,1.814-2.988,2,2,0,0,1,.906-.223,5.848,5.848,0,0,1,1.326.109,15.49,15.49,0,0,1,2.633.768,20.384,20.384,0,0,1,2.253-2.058c.449-.334.709-.379.862-.318.222.089.215.4.215.4l-2.484,4.827a34.862,34.862,0,0,1-5.419,2.131Z" transform="translate(32.374 3.094)" fill="#fdbd8e"/>
    <path id="Trazado_138143" data-name="Trazado 138143" d="M263.365,29.627l5.641,3.816a.78.78,0,0,0,1.084-.209l6.894-10.189a.78.78,0,0,0-.21-1.084l-5.64-3.816a.781.781,0,0,0-1.085.209l-6.893,10.189a.781.781,0,0,0,.209,1.084" transform="translate(32.126 2.2)" fill="#171228"/>
    <rect id="Rect치ngulo_8927" data-name="Rect치ngulo 8927" width="10.811" height="6.634" transform="translate(296.689 30.216) rotate(-55.92)" fill="#28b69a"/>
    <path id="Trazado_138144" data-name="Trazado 138144" d="M265.924,29a.622.622,0,1,0,.864-.166.623.623,0,0,0-.864.166" transform="translate(32.467 3.509)" fill="#909aa3"/>
    <path id="Trazado_138145" data-name="Trazado 138145" d="M265.571,19.109a1.614,1.614,0,0,0,.148,1.093c.2.393.383.8.612,1.174.024.037.047.074.07.111a4.049,4.049,0,0,0,.364.488c.049.054.1.107.15.157a2.2,2.2,0,0,0,.586.42.5.5,0,0,0,.72-.5,3.616,3.616,0,0,0-.4-1.545,6.324,6.324,0,0,0-1.285-1.644c-.41-.331-.8-.4-.961.249" transform="translate(32.432 2.273)" fill="#fdbd8e"/>
    <path id="Trazado_138146" data-name="Trazado 138146" d="M265.04,21.008a1.621,1.621,0,0,0,.146,1.093c.127.254.25.514.385.769.053.1.108.2.165.3a4.382,4.382,0,0,0,.5.708c.038.044.077.084.117.123a2.278,2.278,0,0,0,.619.454.5.5,0,0,0,.718-.5,3.525,3.525,0,0,0-.4-1.544,5.411,5.411,0,0,0-.3-.5,7.69,7.69,0,0,0-.483-.637c-.034-.04-.066-.081-.1-.118-.534-.6-1.143-1-1.357-.137" transform="translate(32.367 2.505)" fill="#fdbd8e"/>
    <path id="Trazado_138147" data-name="Trazado 138147" d="M264.213,22.441a1.624,1.624,0,0,0,.146,1.092c.158.319.315.649.492.962.054.1.11.194.171.285a3.919,3.919,0,0,0,.385.527,2.829,2.829,0,0,0,.275.269,2.1,2.1,0,0,0,.461.307.5.5,0,0,0,.719-.5,3.539,3.539,0,0,0-.405-1.545l-.007-.012a6.953,6.953,0,0,0-.664-.992c-.036-.045-.074-.093-.113-.137-.555-.66-1.231-1.167-1.459-.252" transform="translate(32.266 2.68)" fill="#fdbd8e"/>
    <path id="Trazado_138148" data-name="Trazado 138148" d="M263.686,24.275a1.616,1.616,0,0,0,.146,1.092l.076.156a7.111,7.111,0,0,0,.971,1.618,2.379,2.379,0,0,0,.736.578.5.5,0,0,0,.719-.5,3.555,3.555,0,0,0-.405-1.544,3.1,3.1,0,0,0-.183-.316,7.312,7.312,0,0,0-.719-.962c-.038-.043-.075-.082-.112-.12-.5-.513-1.031-.787-1.229,0" transform="translate(32.202 2.904)" fill="#fdbd8e"/>
    <path id="Trazado_138149" data-name="Trazado 138149" d="M265.8,19.109a1.614,1.614,0,0,0,.148,1.093c.2.393.383.8.612,1.174-.534-.6-1.143-.993-1.357-.135a1.618,1.618,0,0,0,.146,1.092c.127.252.25.513.386.769-.555-.66-1.231-1.168-1.459-.252a1.621,1.621,0,0,0,.147,1.091c.157.319.314.649.49.963-.5-.513-1.032-.787-1.23,0A1.623,1.623,0,0,0,263.831,26c.027.053.05.1.076.156.009-.036.017-.07.028-.1a1.48,1.48,0,0,1,.4-.718.7.7,0,0,1,.754-.144l.016.009c-.026-.058-.051-.114-.075-.174a1.734,1.734,0,0,1-.159-1.146c.136-.437.755-.717,1.066-.382l-.031-.1c-.018-.05-.035-.1-.052-.158a2,2,0,0,1-.1-1.075.87.87,0,0,1,.882-.677l.031.007a.69.69,0,0,1,.1.033,3.305,3.305,0,0,1-.242-2.067,5.371,5.371,0,0,1,.239-.6c-.41-.331-.8-.4-.961.249" transform="translate(32.202 2.273)" fill="#fb9988"/>
    <path id="Trazado_138150" data-name="Trazado 138150" d="M278.809,55.01s-2.02,1.139-4.9,2.529l0,0c-5.926,2.855-15.5,6.78-18.736,4.1-9.866-8.157,7.8-31.383,8.594-32.92l.423.25,6.691,3.954c-3.377,6.6-9.448,14.927-8.424,15.837,3.187-1.218,14.95-6.573,14.95-6.573Z" transform="translate(30.801 3.509)" fill="#ff9300"/>
    <path id="Trazado_138151" data-name="Trazado 138151" d="M273.906,57.539l0,0c-5.926,2.855-15.5,6.78-18.736,4.1-9.865-8.157,7.8-31.383,8.594-32.92l.423.25v.244S248.945,54.8,255.47,59.782s18.3-4.454,18.3-4.454Z" transform="translate(30.801 3.509)" fill="#cf691f"/>
    <path id="Trazado_138152" data-name="Trazado 138152" d="M301.7,44.046c-.235,1.073-.715,2.868-1.359,6.213-.5,2.583-1.157,5.505-1.865,8.479h0c-2.149,9.043-4.751,18.6-4.693,20.822,0,0-11.556,6.939-20.912-.911,0,0-.062-11.947-.517-14.11s-2.992-18.559,2.7-23.341a21.178,21.178,0,0,1,6.191-3.859,9.394,9.394,0,0,1,.912-.283v0a5.416,5.416,0,0,1,1.382-.193l.011,0c.046,0,.082,0,.109,0a.11.11,0,0,0,.026,0,.178.178,0,0,1,.031,0h7.592a32.528,32.528,0,0,1,3.245.958A26.43,26.43,0,0,1,301.51,42.1s.007.009.011.012a1.5,1.5,0,0,1,.22.309c.181.36.151.752-.04,1.628" transform="translate(33.149 4.502)" fill="#ff9300"/>
    <path id="Trazado_138153" data-name="Trazado 138153" d="M274.061,58.358l.779-.039,2.1-.132a21.129,21.129,0,0,1,6.618.432c.623.165,1.247.358,1.875.527a15.334,15.334,0,0,0,1.865.393,14.529,14.529,0,0,0,3.217.1,5.563,5.563,0,0,0,1.248-.233,2.832,2.832,0,0,0,.861-.44,1.906,1.906,0,0,0,.41-.437c.071-.116.1-.176.1-.176l-.151.131a1.928,1.928,0,0,1-.481.272,3.993,3.993,0,0,1-1.97.107,23.354,23.354,0,0,1-2.969-.609c-.549-.15-1.105-.325-1.7-.531s-1.225-.425-1.912-.607a11.445,11.445,0,0,0-4-.3,17.607,17.607,0,0,0-3.141.606c-.869.246-1.553.487-2.025.659s-.729.277-.729.277" transform="translate(33.474 6.933)" fill="#cf691f"/>
    <path id="Trazado_138154" data-name="Trazado 138154" d="M270.66,26.519c.035-.18.089-.437.176-.751a6.769,6.769,0,0,1,.4-1.085,4.641,4.641,0,0,1,.807-1.207,4.367,4.367,0,0,1,1.169-.874,5.789,5.789,0,0,1,1.081-.428c.137-.04.26-.071.374-.1.138-.13.22-.2.22-.2l-.071.168c.085-.018.165-.034.231-.045.179-.033.281-.044.281-.044l-.658.43c-.086.2-.194.457-.322.754a13.439,13.439,0,0,0-.939,2.975,17.753,17.753,0,0,0-.147,3.139c0,.422.008.766.009,1.005s-.006.373-.006.373-.055-.122-.15-.342-.222-.543-.357-.95a8.946,8.946,0,0,1-.358-1.479,6.069,6.069,0,0,1,0-1.913,5.746,5.746,0,0,1,.641-1.815,7.654,7.654,0,0,1,.824-1.2,8.373,8.373,0,0,0-1.257,1.077,13.508,13.508,0,0,0-1.416,1.919c-.175.268-.318.487-.417.638s-.162.233-.162.233.018-.1.049-.279" transform="translate(33.053 2.672)" fill="#85441d"/>
    <path id="Trazado_138155" data-name="Trazado 138155" d="M292.638,33.838a14.876,14.876,0,0,0,2.1,3.467c1.864,2.356,4.475,4.362,7.475,4.558a10.344,10.344,0,0,1-3.953-2.649c.183.118.367.233.557.339a10.027,10.027,0,0,0,6.913,1.1,8.6,8.6,0,0,1-1.926-3.645,12.718,12.718,0,0,1-.424-2.923A41.984,41.984,0,0,1,304.069,27a68.189,68.189,0,0,0,.768-11.613c-.105-3.091-1.109-6.447-3.456-8.584a5.267,5.267,0,0,0-7.858.866,4.87,4.87,0,0,0-.462.789c-.2.421-.3.746-.044,1.131a8.329,8.329,0,0,0,.938,1.025,6.9,6.9,0,0,1,1.682,3.375,4.669,4.669,0,0,0-.414.371,8.958,8.958,0,0,0-1.837,3,26.1,26.1,0,0,0-1.849,9.279,17.43,17.43,0,0,0,1.1,7.192" transform="translate(35.607 0.664)" fill="#85441d"/>
    <path id="Trazado_138156" data-name="Trazado 138156" d="M293.3,7.672a4.569,4.569,0,0,0,.635,1.4,3.8,3.8,0,0,1,3.346,2.242,9.413,9.413,0,0,1,.756,4.155,38.258,38.258,0,0,1-.471,6.366,39.268,39.268,0,0,0-.867,6.683,7.911,7.911,0,0,0,2.477,6.052,8.955,8.955,0,0,1,.66-3.9,8.569,8.569,0,0,0,3.743,6.333,12.724,12.724,0,0,1-.423-2.923,29.244,29.244,0,0,1,.414-5.173c.093-.637.19-1.271.277-1.91a68.074,68.074,0,0,0,.768-11.613c-.1-3.093-1.109-6.448-3.456-8.585a5.36,5.36,0,0,0-4.578-1.273,5.057,5.057,0,0,0-1.29.447,5.394,5.394,0,0,0-1.99,1.693" transform="translate(35.824 0.664)" fill="#965326"/>
    <path id="Trazado_138157" data-name="Trazado 138157" d="M295.078,5.978a9.484,9.484,0,0,1,3.565,3.485,9.311,9.311,0,0,1,.606,2.188,20.971,20.971,0,0,1,.427,3.065,51.838,51.838,0,0,1-.444,5.4,17.227,17.227,0,0,0,.777,6.314,11.253,11.253,0,0,1,1.159-2.768,9.8,9.8,0,0,0,2.19,5.25c.093-.637.189-1.273.277-1.911A68.074,68.074,0,0,0,304.4,15.39c-.1-3.091-1.109-6.447-3.456-8.584a5.353,5.353,0,0,0-4.578-1.273,5.012,5.012,0,0,0-1.29.445" transform="translate(36.041 0.664)" fill="#b5693c"/>
    <path id="Trazado_138158" data-name="Trazado 138158" d="M290.406,9.853a3.074,3.074,0,1,0,3.074-3.072,3.074,3.074,0,0,0-3.074,3.072" transform="translate(35.47 0.828)" fill="#fff0e7"/>
    <path id="Trazado_138159" data-name="Trazado 138159" d="M280.263,37.341l-.82,9.214,4.055-2.062,2.115-2.618s.027-3.356.018-5H282.7a.069.069,0,0,1-.025,0c-.028,0-.064,0-.11,0l-.011,0a5.369,5.369,0,0,0-1.381.194h0c-.272.07-.575.16-.913.283" transform="translate(34.131 4.502)" fill="#fff0e7"/>
    <path id="Trazado_138160" data-name="Trazado 138160" d="M283.317,45.622,290.147,38c-.011-1.13-.107-1.556-.209-4.356-.11-3.115-.223-6.034-.223-6.034l-8.788,3.474a20.763,20.763,0,0,1,1.571,7.087,57.723,57.723,0,0,0,.819,7.445" transform="translate(34.313 3.373)" fill="#fdbd8e"/>
    <path id="Trazado_138161" data-name="Trazado 138161" d="M280.927,31.089a20.737,20.737,0,0,1,1.571,7.087c.277.117.548.223.8.312,1.02.355,4.3-2.554,6.636-4.84-.11-3.115-.223-6.034-.223-6.034Z" transform="translate(34.313 3.373)" fill="#fb9988"/>
    <path id="Trazado_138162" data-name="Trazado 138162" d="M272.77,23.022q.266,1.219.687,2.558s-.393,4.4.068,5.387,3.425,7.135,6.535,6.754c2.6-.316,8.942-4.118,11.148-6.384a2.612,2.612,0,0,0,.768-1.129c.3-1.746,1.342-9.448,1.441-10.093.264-1.746,1-14.972-14.992-11.292a7.7,7.7,0,0,0-5.8,5.778,19.277,19.277,0,0,0,.148,8.419" transform="translate(33.25 0.999)" fill="#fdbd8e"/>
    <path id="Trazado_138163" data-name="Trazado 138163" d="M270.47,15.419a6.746,6.746,0,0,0,.421,2.058,7.374,7.374,0,0,0,2.184,3.574,22.465,22.465,0,0,1,.239-5.348c3.813,4.155,11.79,5.578,12.114,5.633-1.512-.465-1.964-3.488-1.964-3.488,1.821,4.251,9.805,5.125,9.805,5.125,1.91-1.553,3.24,1.386,3.24,1.386.646-1.2,1.184-2.276,1.6-3.28.11-.263.213-.517.306-.768a10.836,10.836,0,0,0,.549-2.058c1.064-6.382-3.709-12.635-9.856-14.421a.053.053,0,0,0-.018,0c-5.81-1.681-12.679-.141-15.914,3.069A6.7,6.7,0,0,0,271.8,8.8c-.048.1-.091.205-.13.31-.013.033-.025.064-.036.1a4.931,4.931,0,0,0-.314,1.883,6.553,6.553,0,0,0,.137,1.157,6.315,6.315,0,0,0-.989,3.169" transform="translate(33.035 0.383)" fill="#85441d"/>
    <path id="Trazado_138164" data-name="Trazado 138164" d="M271.541,9.114a4.858,4.858,0,0,0,1.093.441c.77.2,1.578.219,2.347.424a4.9,4.9,0,0,1,2.417,1.5c1.126,1.281,1.626,3.182,3.145,3.957A4.872,4.872,0,0,0,284,15.5a12.154,12.154,0,0,1,3.454-.713,6.511,6.511,0,0,1,4.647,2.725,5.466,5.466,0,0,0,1.115,1.2,3.581,3.581,0,0,0,2.208.474,8.4,8.4,0,0,0,3.412-.936,11.438,11.438,0,0,0-.667-6.049,14.333,14.333,0,0,0-9.189-8.371.053.053,0,0,0-.018,0,19.164,19.164,0,0,0-11.414.392,12.23,12.23,0,0,0-4.5,2.676A6.707,6.707,0,0,0,271.671,8.8c-.048.1-.091.2-.13.31" transform="translate(33.166 0.384)" fill="#965326"/>
    <path id="Trazado_138165" data-name="Trazado 138165" d="M276.893,4.219c1.876,1.534,2.835,4.218,5.1,5.063a9.021,9.021,0,0,0,4.172.073,5.494,5.494,0,0,1,4.046.7c.578.456.97,1.1,1.516,1.6a5.128,5.128,0,0,0,4.39.954,8.089,8.089,0,0,0,1.393-.4,14.333,14.333,0,0,0-9.188-8.371.059.059,0,0,0-.019,0,19.164,19.164,0,0,0-11.414.392" transform="translate(33.82 0.384)" fill="#b5693c"/>
    <path id="Trazado_138166" data-name="Trazado 138166" d="M273.4,23.965s-.393,4.4.068,5.386,3.425,7.136,6.534,6.755c2.6-.316,8.942-4.118,11.148-6.384-2.7,1.876-9.907,6.663-12.02,5.928-2.618-.91-5.578-6.7-5.521-7.278s.228-4.33.228-4.33-.529-1.186-1.124-2.636c.177.812.4,1.666.687,2.558" transform="translate(33.309 2.615)" fill="#ffdaba"/>
    <path id="Trazado_138167" data-name="Trazado 138167" d="M289.19,28.556a6.116,6.116,0,0,0,4.251-2.345,4.8,4.8,0,0,0,.423-.632c.573-1.039.738-4.645-.737-5.483-1.035-.587-1.788.265-2.146.827v0a3.554,3.554,0,0,0-.235.426Z" transform="translate(35.322 2.43)" fill="#ffdaba"/>
    <path id="Trazado_138168" data-name="Trazado 138168" d="M289.19,28.519a6.116,6.116,0,0,0,4.251-2.345c.067-.1.127-.2.177-.292.573-1.039.738-4.645-.738-5.482a1.417,1.417,0,0,0-1.9.486v0a3.554,3.554,0,0,0-.235.426Z" transform="translate(35.322 2.468)" fill="#fdbd8e"/>
    <path id="Trazado_138169" data-name="Trazado 138169" d="M293.421,22.7a1.556,1.556,0,0,1-.067.874,7.117,7.117,0,0,1-2.769,2.989,3.032,3.032,0,0,0,.406-1.894c-.025-.224-.073-.448-.075-.673-.009-.908,2.068-3,2.506-1.3" transform="translate(35.492 2.693)" fill="#fb9988"/>
    <path id="Trazado_138170" data-name="Trazado 138170" d="M290.067,26.909l.066-.037c.042-.026.109-.059.186-.112a2.6,2.6,0,0,0,.571-.515,2.327,2.327,0,0,0,.469-.961,2.014,2.014,0,0,0-.146-1.271,1.069,1.069,0,0,0-.084-.158l-.022-.039c-.007-.009,0,0,0,0h0s0,0,0-.007l.019-.035.038-.068c.027-.046.054-.091.082-.135a5.07,5.07,0,0,1,.348-.5c.122-.156.248-.3.371-.428a3.454,3.454,0,0,1,.366-.341.819.819,0,0,1,.375-.165.593.593,0,0,1,.319.053.3.3,0,0,1,.141.128.255.255,0,0,1,.021.062.16.16,0,0,0,0-.065.286.286,0,0,0-.119-.164.657.657,0,0,0-.367-.116,1.025,1.025,0,0,0-.5.141,3.3,3.3,0,0,0-.45.323,4.918,4.918,0,0,0-.444.417,4.349,4.349,0,0,0-.411.511c-.033.045-.063.093-.093.14l-.045.073-.058.1-.042.072a.767.767,0,0,0,.04.072l.058.1a.863.863,0,0,1,.072.139,2.117,2.117,0,0,1,.187,1.123,2.383,2.383,0,0,1-.306.918,2.625,2.625,0,0,1-.437.558c-.062.062-.118.1-.153.137l-.054.047" transform="translate(35.429 2.691)" fill="#fd7d6f"/>
    <path id="Trazado_138171" data-name="Trazado 138171" d="M283.056,44.491l5.188,4.054,4.887-10.713a32.4,32.4,0,0,0-3.244-.959Z" transform="translate(34.573 4.504)" fill="#fff0e7"/>
    <path id="Trazado_138172" data-name="Trazado 138172" d="M287.449,24.4c.035-.18.089-.437.176-.751a6.727,6.727,0,0,1,.4-1.085,4.6,4.6,0,0,1,.807-1.207A4.357,4.357,0,0,1,290,20.485a5.849,5.849,0,0,1,1.081-.428c.137-.04.26-.072.375-.1.137-.13.22-.2.22-.2s-.026.062-.072.168l.232-.046c.18-.031.281-.043.281-.043l-.658.43c-.086.2-.2.457-.322.754A13.445,13.445,0,0,0,290.2,24a17.77,17.77,0,0,0-.147,3.14c0,.422.007.766.009,1s-.007.374-.007.374-.053-.122-.149-.342-.222-.543-.357-.95a8.946,8.946,0,0,1-.358-1.479,6.11,6.11,0,0,1,0-1.914,5.768,5.768,0,0,1,.64-1.813,7.658,7.658,0,0,1,.825-1.2A8.374,8.374,0,0,0,289.4,21.89a13.424,13.424,0,0,0-1.416,1.92l-.417.638-.162.233s.018-.1.049-.279" transform="translate(35.103 2.413)" fill="#85441d"/>
    <path id="Trazado_138173" data-name="Trazado 138173" d="M271.42,18.793s2.041-2.732,3.179-1.651.626,1.2.626,1.2Z" transform="translate(33.151 2.063)" fill="#965326"/>
    <path id="Trazado_138174" data-name="Trazado 138174" d="M286.446,19.3s-3.766-4.337-5.308-2.8c-.9.9-.274,1.512-.274,1.512Z" transform="translate(34.279 1.975)" fill="#965326"/>
    <path id="Trazado_138175" data-name="Trazado 138175" d="M281.324,19.356a2.451,2.451,0,0,0,1.212,1.036,1.033,1.033,0,0,1,.771-.4c.733,0,1.327.956,1.327,2.133s-.595,2.133-1.327,2.133-1.329-.955-1.329-2.133a3.175,3.175,0,0,1,.158-1.008,3.917,3.917,0,0,1-.812-1.763" transform="translate(34.361 2.364)" fill="#161818"/>
    <path id="Trazado_138176" data-name="Trazado 138176" d="M276.026,22.078l-.156-.008c-.1,0-.24-.018-.4-.022a2.211,2.211,0,0,0-.508.047c-.185.036-.4.092-.649.132s-.459.054-.643.083a2.647,2.647,0,0,0-.5.128c-.153.054-.282.109-.372.145l-.145.057s.019-.054.061-.145a1.915,1.915,0,0,1,.224-.367,1.576,1.576,0,0,1,.512-.433,2.336,2.336,0,0,1,.746-.236,2.631,2.631,0,0,1,.769-.019,1.456,1.456,0,0,1,.635.24,2,2,0,0,1,.325.281c.068.073.1.117.1.117" transform="translate(33.301 2.616)" fill="#161818"/>
    <path id="Trazado_138177" data-name="Trazado 138177" d="M285.723,20.771a2.732,2.732,0,0,1-2.931,1.186,2.73,2.73,0,0,1,2.931-1.186" transform="translate(34.54 2.529)" fill="#fff0e7"/>
    <path id="Trazado_138178" data-name="Trazado 138178" d="M278.83,26.235a2.344,2.344,0,0,1,1-.263,3.33,3.33,0,0,1-1.812,1.747.381.381,0,0,1-.419-.039,3.914,3.914,0,0,1-1.145-1.019.732.732,0,0,1-.147-.273c-.079-.336.151-.261.351-.183a3.1,3.1,0,0,0,2.172.029" transform="translate(33.746 3.172)" fill="#fb9988"/>
    <path id="Trazado_138179" data-name="Trazado 138179" d="M276.985,29.383a9.163,9.163,0,0,1,7.076-1s-1.2,2.879-3.036,3.094c-2.234.26-4.04-2.1-4.04-2.1" transform="translate(33.831 3.424)" fill="#fc5b68"/>
    <path id="Trazado_138180" data-name="Trazado 138180" d="M277.18,29.386a18.675,18.675,0,0,1,6.653-.968,3.685,3.685,0,0,1-3.093,2.5,3.817,3.817,0,0,1-3.561-1.535" transform="translate(33.855 3.471)" fill="#fff"/>
    <path id="Trazado_138181" data-name="Trazado 138181" d="M277.991,28.16c-.2-.183-.434-.338-.644-.516a5.247,5.247,0,0,1-.711-.727c1.091-.752,1.08-1.891,1.027-3.182a3.766,3.766,0,0,0-1.009-2.408,3.811,3.811,0,0,0-.339-.321,1.388,1.388,0,0,0-.378-.21c.067.077.113.166.174.245a7.137,7.137,0,0,1,.461.623,4.646,4.646,0,0,1,.351.7,4.583,4.583,0,0,1,.327,1.529A3.8,3.8,0,0,1,277,25.4a2.979,2.979,0,0,1-1.093,1.408s.746.869.819.939a3.889,3.889,0,0,0,.619.488,1.366,1.366,0,0,0,.735.292.45.45,0,0,0,.237-.071.874.874,0,0,1-.128-.1c-.018-.017-.034-.035-.051-.052-.048-.052-.1-.1-.151-.147" transform="translate(33.7 2.54)" fill="#fd7d6f"/>
    <path id="Trazado_138182" data-name="Trazado 138182" d="M275.315,26.814c-.174.467-1.183.521-2.251.121s-1.794-1.1-1.619-1.571,1.183-.521,2.251-.12,1.794,1.1,1.619,1.57" transform="translate(33.151 3.051)" fill="#fb9988"/>
    <path id="Trazado_138183" data-name="Trazado 138183" d="M287.513,24.752c.183.7-.977,1.614-2.589,2.03s-3.067.186-3.25-.517.977-1.614,2.589-2.031,3.068-.185,3.25.518" transform="translate(34.401 2.935)" fill="#fb9988"/>
    <path id="Trazado_138184" data-name="Trazado 138184" d="M270.166,22.4a4.066,4.066,0,0,0,8.129.172,1.951,1.951,0,0,1,1.894.008,4.45,4.45,0,1,0,8.794-1.151l5.778-.944-.111-.674-5.867.958a4.448,4.448,0,0,0-8.573,1.079,2.629,2.629,0,0,0-1.955-.043,4.066,4.066,0,0,0-8.09.595m10.7-.037a3.77,3.77,0,1,1,3.77,3.77,3.774,3.774,0,0,1-3.77-3.77m-10.013.037a3.386,3.386,0,1,1,3.387,3.387,3.391,3.391,0,0,1-3.387-3.387" transform="translate(32.998 2.187)" fill="#fff0e7"/>
    <path id="Trazado_138185" data-name="Trazado 138185" d="M309.575,97.775h-8.954s.3-16.154.3-16.61c0-.373-3.916-16.96-5.339-22.971v0c-.314-1.334-.507-2.147-.507-2.147V46.008l2.581-3.623.746-1.048s.076.075.212.214l.011.011c1.166,1.188,6.5,6.709,6.664,8.406.184,1.9,4.129,27.7,4.282,31.879s0,15.928,0,15.928" transform="translate(36.041 5.049)" fill="#ff9300"/>
    <path id="Trazado_138186" data-name="Trazado 138186" d="M300.566,96.133s.3-16.154.3-16.61c0-.373-3.916-16.96-5.339-22.971v0l.524-1.764s6.247,21.551,6.138,23.522c-.084,1.507.428,12.647.673,17.825Z" transform="translate(36.096 6.691)" fill="#cf691f"/>
    <path id="Trazado_138187" data-name="Trazado 138187" d="M309.947,98.216H308.54c.051-4.389.146-14.532-.025-15.244-.217-.91-3.274-27.775-4.64-32.562-.542-1.9-2.511-4.28-4.694-6.468-.378-.38-.765-.755-1.15-1.115-3-2.838-6-5.1-6-5.1a26.394,26.394,0,0,1,6.955,4.264L299,42c1.166,1.188,6.5,6.709,6.664,8.406.184,1.9,4.129,27.7,4.282,31.879s0,15.928,0,15.928" transform="translate(35.669 4.608)" fill="#ffb800"/>
    <path id="Trazado_138188" data-name="Trazado 138188" d="M181.676,189.757h7.907c1.708,0,5.236-3.022,5.236-3.022a14.7,14.7,0,0,0,1.936,2.96c.911.911.681-8.734.681-8.734l-4.578-.186L183,186.621l-1.882,1.118a1.084,1.084,0,0,0,.553,2.018" transform="translate(22.057 22.08)" fill="#6c3509"/>
    <path id="Trazado_138189" data-name="Trazado 138189" d="M182.743,186.621c10.794,3.536,14.43-5.66,14.43-5.66l-4.578-.186Z" transform="translate(22.32 22.08)" fill="#fdbd8e"/>
    <path id="Trazado_138190" data-name="Trazado 138190" d="M206.2,186.562c.349,1.362,3.1,3.357,4.373,4.215a1.018,1.018,0,0,0,1.223-.059c1.112-.925,3.432-2.975,3.66-4.155a12.334,12.334,0,0,0-1.056-4.178c-.922-2.527-2.106-5.193-2.106-5.193l-4.578.186s-1.063,3.994-1.448,6.819a7.485,7.485,0,0,0-.068,2.365" transform="translate(25.177 21.642)" fill="#fdbd8e"/>
    <path id="Trazado_138191" data-name="Trazado 138191" d="M206.2,186c.349,1.362,3.1,3.357,4.373,4.215a1.018,1.018,0,0,0,1.223-.059c1.112-.925,3.432-2.975,3.66-4.155a12.334,12.334,0,0,0-1.056-4.178c-.494,1.841-1.5,4.064-3.458,4.178-1.841.1-3.525-1.177-4.674-2.365A7.485,7.485,0,0,0,206.2,186" transform="translate(25.177 22.207)" fill="#6c3509"/>
    <path id="Trazado_138192" data-name="Trazado 138192" d="M223.207,52.762c-1.855,9.621-5.928,23.9-6.49,28.383a6.02,6.02,0,0,0-.066.92S205.095,89,195.737,81.155c0,0-.007-1.277-.033-3.074-.049-3.7-.177-9.582-.485-11.037-.456-2.162-2.991-18.559,2.7-23.341a21.177,21.177,0,0,1,6.19-3.859c.339-.122.642-.214.913-.283h0a5.422,5.422,0,0,1,1.381-.194l.011,0c.046,0,.082,0,.109,0a.114.114,0,0,0,.026,0,.2.2,0,0,1,.033,0h7.592a32.4,32.4,0,0,1,3.244.959c1.8.64,6.632,3.474,7.187,4.585.4.8-.228,1.76-1.4,7.84" transform="translate(23.728 4.808)" fill="#ff9300"/>
    <path id="Trazado_138193" data-name="Trazado 138193" d="M216.559,77.037v.028a6.149,6.149,0,0,0-.066.919s-11.556,6.939-20.913-.91c0,0-.007-1.277-.031-3.074l7.028-1.225Z" transform="translate(23.884 8.889)" fill="#cf691f"/>
    <path id="Trazado_138194" data-name="Trazado 138194" d="M196.925,60.861l.779-.039,2.1-.132a21.129,21.129,0,0,1,6.618.432c.623.165,1.247.358,1.875.527a15.354,15.354,0,0,0,1.866.393,14.528,14.528,0,0,0,3.217.1,5.564,5.564,0,0,0,1.247-.233,2.819,2.819,0,0,0,.861-.44,1.943,1.943,0,0,0,.411-.437c.07-.116.1-.176.1-.176l-.15.131a1.938,1.938,0,0,1-.482.272,4.007,4.007,0,0,1-1.971.107,23.351,23.351,0,0,1-2.969-.609c-.549-.149-1.105-.325-1.7-.531s-1.225-.425-1.913-.607a11.414,11.414,0,0,0-4-.3,17.534,17.534,0,0,0-3.141.6c-.869.246-1.553.487-2.024.659s-.73.277-.73.277" transform="translate(24.052 7.238)" fill="#cf691f"/>
    <path id="Trazado_138195" data-name="Trazado 138195" d="M193.524,29.022c.035-.18.089-.437.176-.751a6.839,6.839,0,0,1,.4-1.085,4.632,4.632,0,0,1,.807-1.207,4.34,4.34,0,0,1,1.168-.874,5.85,5.85,0,0,1,1.081-.428c.137-.04.26-.072.375-.1.137-.13.22-.2.22-.2s-.026.062-.072.168c.086-.018.166-.034.231-.045.181-.033.281-.045.281-.045l-.658.431c-.085.2-.194.457-.321.755a13.427,13.427,0,0,0-.939,2.974,17.649,17.649,0,0,0-.147,3.139c0,.422.007.766.009,1.005s-.007.373-.007.373-.053-.122-.15-.342-.221-.542-.356-.95a8.945,8.945,0,0,1-.358-1.479,6.107,6.107,0,0,1,0-1.914,5.8,5.8,0,0,1,.641-1.813,7.657,7.657,0,0,1,.825-1.2,8.318,8.318,0,0,0-1.257,1.077,13.317,13.317,0,0,0-1.415,1.919c-.177.268-.32.487-.419.638l-.162.233s.018-.1.049-.279" transform="translate(23.631 2.978)" fill="#85441d"/>
    <path id="Trazado_138196" data-name="Trazado 138196" d="M215.5,36.341a14.872,14.872,0,0,0,2.1,3.467c1.865,2.356,4.476,4.362,7.475,4.558a10.33,10.33,0,0,1-3.952-2.65c.182.119.366.235.555.34a10.028,10.028,0,0,0,6.914,1.1,8.635,8.635,0,0,1-1.926-3.645,12.715,12.715,0,0,1-.423-2.923,42.092,42.092,0,0,1,.691-7.083,67.959,67.959,0,0,0,.768-11.613c-.1-3.091-1.109-6.447-3.456-8.585a5.268,5.268,0,0,0-7.858.867,5.038,5.038,0,0,0-.462.789c-.2.421-.3.746-.043,1.13a8.175,8.175,0,0,0,.938,1.026,6.9,6.9,0,0,1,1.682,3.375,4.5,4.5,0,0,0-.414.371,8.985,8.985,0,0,0-1.838,3,26.132,26.132,0,0,0-1.848,9.28,17.429,17.429,0,0,0,1.1,7.192" transform="translate(26.186 0.97)" fill="#85441d"/>
    <path id="Trazado_138197" data-name="Trazado 138197" d="M216.169,10.175a4.566,4.566,0,0,0,.634,1.4,3.8,3.8,0,0,1,3.346,2.242,9.4,9.4,0,0,1,.757,4.155,38.358,38.358,0,0,1-.472,6.365,39.41,39.41,0,0,0-.867,6.685,7.911,7.911,0,0,0,2.477,6.052,8.939,8.939,0,0,1,.661-3.9,8.564,8.564,0,0,0,3.742,6.333,12.724,12.724,0,0,1-.423-2.923,29.244,29.244,0,0,1,.414-5.173c.093-.637.189-1.273.277-1.91a68.074,68.074,0,0,0,.768-11.613c-.1-3.093-1.109-6.448-3.456-8.585a5.359,5.359,0,0,0-4.578-1.273,5.1,5.1,0,0,0-1.29.445,5.393,5.393,0,0,0-1.988,1.694" transform="translate(26.403 0.97)" fill="#965326"/>
    <path id="Trazado_138198" data-name="Trazado 138198" d="M217.941,8.481a9.484,9.484,0,0,1,3.565,3.485,9.257,9.257,0,0,1,.606,2.188,21,21,0,0,1,.429,3.065,52.393,52.393,0,0,1-.444,5.4,17.213,17.213,0,0,0,.775,6.317,11.242,11.242,0,0,1,1.159-2.769,9.809,9.809,0,0,0,2.19,5.25c.093-.637.19-1.274.277-1.911a68.067,68.067,0,0,0,.768-11.613c-.1-3.091-1.109-6.447-3.456-8.585a5.359,5.359,0,0,0-4.578-1.271,5.011,5.011,0,0,0-1.29.445" transform="translate(26.619 0.97)" fill="#b5693c"/>
    <path id="Trazado_138199" data-name="Trazado 138199" d="M213.27,12.356a3.073,3.073,0,1,0,3.074-3.072,3.074,3.074,0,0,0-3.074,3.072" transform="translate(26.049 1.134)" fill="#fff0e7"/>
    <path id="Trazado_138200" data-name="Trazado 138200" d="M203.126,39.844l-.819,9.214L206.361,47l2.115-2.618s.028-3.356.019-5h-2.9l-.033,0a.1.1,0,0,1-.025,0c-.027,0-.064,0-.11,0l-.01,0a5.37,5.37,0,0,0-1.382.194v0a9.374,9.374,0,0,0-.913.282" transform="translate(24.71 4.808)" fill="#fff0e7"/>
    <path id="Trazado_138201" data-name="Trazado 138201" d="M206.181,48.124l6.829-7.616c-.01-1.132-.107-1.558-.209-4.357-.109-3.115-.223-6.034-.223-6.034l-8.787,3.474a20.71,20.71,0,0,1,1.57,7.087,57.773,57.773,0,0,0,.82,7.445" transform="translate(24.891 3.679)" fill="#fdbd8e"/>
    <path id="Trazado_138202" data-name="Trazado 138202" d="M203.791,33.591a20.737,20.737,0,0,1,1.571,7.087c.278.117.549.223.8.312,1.02.355,4.3-2.554,6.636-4.84-.109-3.115-.223-6.034-.223-6.034Z" transform="translate(24.891 3.679)" fill="#fb9988"/>
    <path id="Trazado_138203" data-name="Trazado 138203" d="M195.635,25.524q.266,1.219.688,2.558s-.394,4.4.068,5.387,3.424,7.135,6.533,6.754c2.6-.316,8.943-4.118,11.15-6.384a2.618,2.618,0,0,0,.766-1.129c.3-1.746,1.343-9.448,1.441-10.093.265-1.746,1-14.97-14.991-11.292a7.7,7.7,0,0,0-5.8,5.778,19.277,19.277,0,0,0,.148,8.419" transform="translate(23.829 1.305)" fill="#fdbd8e"/>
    <path id="Trazado_138204" data-name="Trazado 138204" d="M193.333,17.921a6.779,6.779,0,0,0,.421,2.058,7.374,7.374,0,0,0,2.184,3.574,22.522,22.522,0,0,1,.239-5.348c3.814,4.155,11.79,5.578,12.114,5.633-1.512-.465-1.964-3.489-1.964-3.489,1.821,4.252,9.805,5.126,9.805,5.126,1.911-1.553,3.24,1.386,3.24,1.386.646-1.2,1.184-2.277,1.6-3.28.111-.263.213-.517.307-.768a10.828,10.828,0,0,0,.548-2.058c1.063-6.382-3.709-12.635-9.856-14.421a.053.053,0,0,0-.018,0c-5.81-1.681-12.678-.141-15.913,3.069a6.67,6.67,0,0,0-1.378,1.908c-.048.1-.091.205-.13.31-.013.031-.025.064-.036.1a4.949,4.949,0,0,0-.314,1.883,6.553,6.553,0,0,0,.137,1.157,6.311,6.311,0,0,0-.989,3.169" transform="translate(23.614 0.689)" fill="#85441d"/>
    <path id="Trazado_138205" data-name="Trazado 138205" d="M194.4,11.616a4.894,4.894,0,0,0,1.093.442c.77.2,1.578.218,2.346.423a4.9,4.9,0,0,1,2.418,1.5c1.124,1.281,1.625,3.182,3.144,3.957a4.875,4.875,0,0,0,3.456.062,12.185,12.185,0,0,1,3.454-.713,6.509,6.509,0,0,1,4.646,2.725,5.467,5.467,0,0,0,1.117,1.2,3.569,3.569,0,0,0,2.207.475,8.422,8.422,0,0,0,3.414-.936,11.449,11.449,0,0,0-.667-6.049,14.338,14.338,0,0,0-9.189-8.371.053.053,0,0,0-.018,0,19.159,19.159,0,0,0-11.416.392,12.22,12.22,0,0,0-4.5,2.677,6.667,6.667,0,0,0-1.377,1.908c-.048.1-.092.205-.13.31" transform="translate(23.745 0.689)" fill="#965326"/>
    <path id="Trazado_138206" data-name="Trazado 138206" d="M199.757,6.722c1.876,1.535,2.835,4.218,5.1,5.063a9.026,9.026,0,0,0,4.173.073,5.492,5.492,0,0,1,4.045.7c.578.456.97,1.1,1.516,1.6a5.128,5.128,0,0,0,4.389.954,8.055,8.055,0,0,0,1.395-.4,14.338,14.338,0,0,0-9.189-8.371.053.053,0,0,0-.018,0,19.159,19.159,0,0,0-11.416.392" transform="translate(24.398 0.689)" fill="#b5693c"/>
    <path id="Trazado_138207" data-name="Trazado 138207" d="M196.263,26.468s-.394,4.4.068,5.386,3.424,7.135,6.534,6.755c2.6-.316,8.942-4.118,11.148-6.384-2.7,1.876-9.909,6.663-12.021,5.928-2.618-.91-5.577-6.7-5.52-7.278s.227-4.33.227-4.33-.527-1.186-1.124-2.636c.178.812.405,1.666.688,2.558" transform="translate(23.888 2.92)" fill="#ffdaba"/>
    <path id="Trazado_138208" data-name="Trazado 138208" d="M212.054,31.059a6.112,6.112,0,0,0,4.251-2.346,4.723,4.723,0,0,0,.423-.631c.573-1.039.738-4.645-.737-5.483-1.035-.587-1.788.265-2.146.827v0a3.343,3.343,0,0,0-.233.426Z" transform="translate(25.9 2.736)" fill="#ffdaba"/>
    <path id="Trazado_138209" data-name="Trazado 138209" d="M212.054,31.022a6.113,6.113,0,0,0,4.251-2.346c.067-.1.127-.2.177-.29.573-1.04.738-4.646-.737-5.483a1.418,1.418,0,0,0-1.9.486v0a3.343,3.343,0,0,0-.233.426Z" transform="translate(25.9 2.773)" fill="#fdbd8e"/>
    <path id="Trazado_138210" data-name="Trazado 138210" d="M216.285,25.2a1.542,1.542,0,0,1-.067.873,7.12,7.12,0,0,1-2.769,2.991,3.039,3.039,0,0,0,.406-1.894c-.025-.224-.073-.448-.075-.673-.009-.908,2.068-3,2.506-1.3" transform="translate(26.071 2.999)" fill="#fb9988"/>
    <path id="Trazado_138211" data-name="Trazado 138211" d="M212.931,29.411l.066-.037c.042-.026.109-.059.185-.112a2.568,2.568,0,0,0,.571-.515,2.322,2.322,0,0,0,.47-.961,2.013,2.013,0,0,0-.146-1.271,1.124,1.124,0,0,0-.084-.158l-.024-.039c-.006-.01,0,0,0,0h0l0-.007.018-.035.039-.068c.027-.046.053-.091.081-.135a5.222,5.222,0,0,1,.349-.5c.121-.155.247-.3.371-.428a3.346,3.346,0,0,1,.366-.341.819.819,0,0,1,.375-.165.6.6,0,0,1,.319.053.3.3,0,0,1,.141.129.172.172,0,0,1,.02.061.138.138,0,0,0,0-.065.286.286,0,0,0-.119-.165.659.659,0,0,0-.366-.114,1.037,1.037,0,0,0-.5.141,3.155,3.155,0,0,0-.45.324,4.756,4.756,0,0,0-.445.416,4.46,4.46,0,0,0-.411.511c-.033.045-.062.093-.093.14l-.044.073-.059.1-.04.072c.01.025.027.048.039.072l.059.1a.909.909,0,0,1,.072.139,2.117,2.117,0,0,1,.187,1.123,2.421,2.421,0,0,1-.306.918,2.7,2.7,0,0,1-.436.558c-.062.062-.118.1-.153.137s-.054.047-.054.047" transform="translate(26.007 2.997)" fill="#fd7d6f"/>
    <path id="Trazado_138212" data-name="Trazado 138212" d="M205.921,46.994l5.187,4.054,4.886-10.713a32.332,32.332,0,0,0-3.243-.959Z" transform="translate(25.151 4.809)" fill="#fff0e7"/>
    <path id="Trazado_138213" data-name="Trazado 138213" d="M210.313,26.905c.035-.18.089-.437.176-.751a6.732,6.732,0,0,1,.4-1.085,4.623,4.623,0,0,1,.807-1.207,4.357,4.357,0,0,1,1.168-.874,5.827,5.827,0,0,1,1.082-.428c.137-.04.26-.071.374-.1.138-.13.22-.2.22-.2l-.071.168c.085-.018.165-.034.231-.045.18-.033.281-.044.281-.044l-.658.43-.322.754a13.439,13.439,0,0,0-.939,2.975,17.755,17.755,0,0,0-.147,3.139c0,.422.008.766.009,1s-.006.374-.006.374-.055-.122-.15-.342-.222-.543-.357-.95a8.946,8.946,0,0,1-.358-1.479,6.11,6.11,0,0,1,0-1.914,5.749,5.749,0,0,1,.641-1.813,7.658,7.658,0,0,1,.824-1.2,8.373,8.373,0,0,0-1.257,1.077,13.509,13.509,0,0,0-1.416,1.919c-.175.268-.318.487-.417.638l-.162.233s.018-.1.049-.279" transform="translate(25.682 2.719)" fill="#85441d"/>
    <path id="Trazado_138214" data-name="Trazado 138214" d="M194.284,21.3s2.041-2.732,3.179-1.651.626,1.2.626,1.2Z" transform="translate(23.73 2.368)" fill="#965326"/>
    <path id="Trazado_138215" data-name="Trazado 138215" d="M209.311,21.8s-3.766-4.337-5.308-2.8c-.9.9-.275,1.512-.275,1.512Z" transform="translate(24.858 2.281)" fill="#965326"/>
    <path id="Trazado_138216" data-name="Trazado 138216" d="M204.188,21.859a2.442,2.442,0,0,0,1.212,1.036,1.033,1.033,0,0,1,.77-.4c.734,0,1.329.955,1.329,2.132s-.595,2.133-1.329,2.133-1.328-.955-1.328-2.133A3.206,3.206,0,0,1,205,23.622a3.937,3.937,0,0,1-.811-1.763" transform="translate(24.94 2.67)" fill="#161818"/>
    <path id="Trazado_138217" data-name="Trazado 138217" d="M208.587,23.274a2.732,2.732,0,0,1-2.931,1.186,2.73,2.73,0,0,1,2.931-1.186" transform="translate(25.119 2.835)" fill="#fff0e7"/>
    <path id="Trazado_138218" data-name="Trazado 138218" d="M196.182,22.87a1.687,1.687,0,0,0,.83.715.744.744,0,0,1,.518-.235c.553,0,1,.719,1,1.608s-.448,1.607-1,1.607-1-.719-1-1.607a2.324,2.324,0,0,1,.174-.9,2.9,2.9,0,0,1-.522-1.184" transform="translate(23.962 2.793)" fill="#161818"/>
    <path id="Trazado_138219" data-name="Trazado 138219" d="M195.726,24.037a2.2,2.2,0,0,0,2.085.844,2.21,2.21,0,0,0-2.085-.844" transform="translate(23.906 2.934)" fill="#fff0e7"/>
    <path id="Trazado_138220" data-name="Trazado 138220" d="M201.693,28.737a2.342,2.342,0,0,1,1-.261,3.334,3.334,0,0,1-1.812,1.747.5.5,0,0,1-.192.045.477.477,0,0,1-.226-.084,3.9,3.9,0,0,1-1.145-1.019.735.735,0,0,1-.148-.273c-.079-.336.153-.261.351-.183a3.014,3.014,0,0,0,.722.183,3.052,3.052,0,0,0,1.451-.155" transform="translate(24.325 3.477)" fill="#fb9988"/>
    <path id="Trazado_138221" data-name="Trazado 138221" d="M200.855,30.662c-.205-.183-.435-.338-.645-.516a5.379,5.379,0,0,1-.711-.727c1.092-.752,1.079-1.891,1.027-3.182a3.75,3.75,0,0,0-1.009-2.408,3.525,3.525,0,0,0-.339-.321,1.365,1.365,0,0,0-.377-.21c.067.077.112.166.174.245a7.565,7.565,0,0,1,.461.623,4.654,4.654,0,0,1,.351.7,4.555,4.555,0,0,1,.325,1.529,3.776,3.776,0,0,1-.246,1.512,2.97,2.97,0,0,1-1.092,1.408s.746.869.819.939a3.929,3.929,0,0,0,.618.488,1.366,1.366,0,0,0,.735.292.447.447,0,0,0,.237-.071.938.938,0,0,1-.128-.1l-.049-.052c-.048-.052-.1-.1-.151-.147" transform="translate(24.278 2.846)" fill="#fd7d6f"/>
    <path id="Trazado_138222" data-name="Trazado 138222" d="M198.179,29.317c-.175.467-1.183.521-2.252.121s-1.793-1.1-1.619-1.571,1.184-.521,2.252-.12,1.794,1.1,1.619,1.57" transform="translate(23.73 3.356)" fill="#fb9988"/>
    <path id="Trazado_138223" data-name="Trazado 138223" d="M210.377,27.254c.182.7-.976,1.614-2.589,2.031s-3.067.185-3.25-.52.977-1.613,2.589-2.03,3.067-.185,3.25.518" transform="translate(24.98 3.24)" fill="#fb9988"/>
    <path id="Trazado_138224" data-name="Trazado 138224" d="M202.005,33.866a3.926,3.926,0,0,0,3.258-.3,1.689,1.689,0,0,1-1.386.983,2.788,2.788,0,0,1-1.872-.681" transform="translate(24.673 4.1)" fill="#fd7d6f"/>
    <path id="Trazado_138225" data-name="Trazado 138225" d="M207.516,30.286a5.272,5.272,0,0,1-1.368,2.456,4.015,4.015,0,0,1-2.106,1.1,3.537,3.537,0,0,1-2.353-.359,5.813,5.813,0,0,1-2.149-2.15,17.968,17.968,0,0,1,7.972-1.046Z" transform="translate(24.372 3.688)" fill="#fc5b68"/>
    <path id="Trazado_138226" data-name="Trazado 138226" d="M207.516,30.286s-.073.273-.752.644a30.074,30.074,0,0,1-6.079.911,2.773,2.773,0,0,1-1.146-.512,17.968,17.968,0,0,1,7.972-1.046Z" transform="translate(24.372 3.688)" fill="#fff0e7"/>
    <path id="Trazado_138227" data-name="Trazado 138227" d="M205.915,32.51a4.008,4.008,0,0,1-2.106,1.1,3.542,3.542,0,0,1-2.354-.359c.839-.622,2.781-1.779,4.46-.738" transform="translate(24.606 3.92)" fill="#cf4a57"/>
    <path id="Trazado_138228" data-name="Trazado 138228" d="M193.029,24.9a4.067,4.067,0,0,0,8.13.172,1.954,1.954,0,0,1,1.894.008,4.45,4.45,0,0,0,8.9-.217,4.362,4.362,0,0,0-.1-.935l5.778-.944-.11-.674-5.867.958a4.448,4.448,0,0,0-8.573,1.079,2.629,2.629,0,0,0-1.955-.043,4.067,4.067,0,0,0-8.091.595m10.7-.037a3.77,3.77,0,1,1,3.77,3.77,3.774,3.774,0,0,1-3.77-3.77m-10.013.037a3.386,3.386,0,1,1,3.385,3.385,3.39,3.39,0,0,1-3.385-3.385" transform="translate(23.577 2.493)" fill="#fff0e7"/>
    <path id="Trazado_138229" data-name="Trazado 138229" d="M219.761,149.669a9.694,9.694,0,0,1,.109,1.769c0,8.247-3.512,37.97-3.512,37.97l-7.857.322-.9-35.261-.153-5.943-.668-10.4.347-27.276h-3.492l-5.182,27.424.759,11.839-.015.794-.768,42.852-8.182-.333s-.007-.057-.02-.166c0-.013,0-.027-.006-.045-.237-2.279-3.663-46.2-3.472-50.405.006-.084.01-.168.015-.252.737-12.927,4.751-49.795,7.25-57.981.847-2.78,1.749-5.543,2.639-7.965l20.913.91s1.767,6.22,3.274,12.679a77.536,77.536,0,0,1,2.094,11.841c.272,6.575-5.141,32.9-5.141,32.9l1.859,13.945Z" transform="translate(22.809 9.357)" fill="#2e3032"/>
    <path id="Trazado_138230" data-name="Trazado 138230" d="M205.33,146.6l.9,35.261,7.857-.322s3.512-29.723,3.512-37.969a9.7,9.7,0,0,0-.109-1.77l-.1-.785a12.041,12.041,0,0,1-1.407,2.063,11.37,11.37,0,0,1-7.36,3.868,10.769,10.769,0,0,1-3.288-.346" transform="translate(25.079 17.224)" fill="#1f2123"/>
    <path id="Trazado_138231" data-name="Trazado 138231" d="M199.2,143.724l-.768,42.852-8.182-.333s-.007-.057-.02-.166c0-.013,0-.027-.006-.045-.237-2.28-3.663-46.2-3.472-50.405.006-.085.01-.168.015-.252a69.051,69.051,0,0,0,12.432,8.35" transform="translate(22.809 16.535)" fill="#1f2123"/>
    <path id="Trazado_138232" data-name="Trazado 138232" d="M193.224,84.571c1.963-.119,3.928-.356,5.889-.46,6.4-.349,13.252.764,18.7,4.3A22.39,22.39,0,0,1,220.05,90.2c-1.507-6.458-3.274-12.678-3.274-12.678l-20.912-.911c-.891,2.423-1.792,5.187-2.639,7.965" transform="translate(23.6 9.357)" fill="#1f2123"/>
    <path id="Trazado_138233" data-name="Trazado 138233" d="M213.254,66.643l7.108.083.647.007s-1.413-3.2-2.313-3.375-5.305,3.181-5.439,3.285h0" transform="translate(26.047 7.738)" fill="#fdbd8e"/>
    <path id="Trazado_138234" data-name="Trazado 138234" d="M213.257,66.642c.147-.059,4.845-1.984,5.31-2.028s1.71,1.974,1.794,2.112l0,.007h.643s-1.414-3.195-2.314-3.375-5.3,3.182-5.438,3.284" transform="translate(26.047 7.738)" fill="#ffdaba"/>
    <path id="Trazado_138235" data-name="Trazado 138235" d="M201.811,76.695c4.821,2.857,14.783,4.895,21.338,5.524h.007c4.142.4,7.389.246,8.186-.588,2.057-2.152-.228-22.119-2.17-30.05S217.684,40.69,217.684,40.69l2.374,4.491.323,3.389,1.991,20.968-19.2-.867Z" transform="translate(24.649 4.97)" fill="#ff9300"/>
    <path id="Trazado_138236" data-name="Trazado 138236" d="M221.429,82.219c4.141.4,7.389.246,8.186-.588,2.057-2.152-.228-22.117-2.17-30.05S215.957,40.69,215.957,40.69,225.1,45.673,226.3,51.144c.61,2.787,3.784,26.892,2.656,28.6-1.1,1.673-7.282,2.477-7.53,2.471" transform="translate(26.377 4.97)" fill="#ffb800"/>
    <path id="Trazado_138237" data-name="Trazado 138237" d="M203.024,67.813l18.515,2.03s2.112,3.04,2.284,2.74-.5-2.1-.515-2.15c.075.037,2.58,1.312,3.03,1.194S223.4,69,223.4,69l-3.162-21.283,1.991,20.967Z" transform="translate(24.797 5.828)" fill="#cf691f"/>
    <path id="Trazado_138238" data-name="Trazado 138238" d="M197.644,71.229l-1.481-4.651-.194-6.411,2.65-16.831a3.845,3.845,0,0,0-.863.667c-.5.685-2.516,1.443-3.926,3.562-3.256,4.893-7.72,27.881-6.055,29.217,3.256,2.611,15.793-.41,15.793-.41l.586-3.447Z" transform="translate(22.891 5.293)" fill="#ff9300"/>
    <path id="Trazado_138239" data-name="Trazado 138239" d="M187.775,76.781c.627-12.845,6.227-26.966,6.312-27.968s3.972-4.962,3.972-4.962l.559-.515a14.665,14.665,0,0,0-4.788,4.229c-3.256,4.891-7.72,27.881-6.055,29.216" transform="translate(22.891 5.293)" fill="#ffb800"/>
    <path id="Trazado_138240" data-name="Trazado 138240" d="M193.443,67.8c.493-3,1.853-11.052,2.474-12.246,0,0-.852,10.755-.809,11.621,0,0,6.621.775,9.343-.316l-3,4-7.371-1.74c-.507.654-1.091,1.316-1.417,1.377-.656.121.6-1.571.6-1.571a5.3,5.3,0,0,1-1.881-.241c-.307-.18,1.037-.6,2.063-.882" transform="translate(23.37 6.785)" fill="#cf691f"/>
    <path id="Trazado_138241" data-name="Trazado 138241" d="M196.477,68.691l.632.149,5.937,1.455.65-3.827.128-.752a36.093,36.093,0,0,0-4.071-.858c-.553.046-3.276,3.832-3.276,3.832" transform="translate(23.998 7.922)" fill="#fdbd8e"/>
    <path id="Trazado_138242" data-name="Trazado 138242" d="M196.477,68.691l.632.149c1.018-1.046,2.533-2.624,2.749-2.805.275-.233,2.928.25,3.838.434l.128-.752a36.093,36.093,0,0,0-4.071-.858c-.553.046-3.276,3.832-3.276,3.832" transform="translate(23.998 7.922)" fill="#ffdaba"/>
    <path id="Trazado_138243" data-name="Trazado 138243" d="M191.363,41.659l-.414,1.324-.414-1.324a7.052,7.052,0,0,0-3.1-3.991,7.052,7.052,0,0,0,3.1-3.991l.414-1.323.414,1.323a7.061,7.061,0,0,0,3.1,3.991,7.061,7.061,0,0,0-3.1,3.991" transform="translate(22.893 3.952)" fill="#f8b555"/>
    <path id="Trazado_138244" data-name="Trazado 138244" d="M187,33.528l-.287.919-.288-.919a4.9,4.9,0,0,0-2.154-2.772,4.9,4.9,0,0,0,2.154-2.773l.288-.918.287.918a4.9,4.9,0,0,0,2.154,2.773A4.9,4.9,0,0,0,187,33.528" transform="translate(22.507 3.306)" fill="#f8b555"/>
    <path id="Trazado_138245" data-name="Trazado 138245" d="M232.076,14.594l-.415,1.324-.414-1.324a7.055,7.055,0,0,0-3.1-3.991,7.055,7.055,0,0,0,3.1-3.991l.414-1.323.415,1.323a7.052,7.052,0,0,0,3.1,3.991,7.052,7.052,0,0,0-3.1,3.991" transform="translate(27.866 0.646)" fill="#f8b555"/>
    <path id="Trazado_138246" data-name="Trazado 138246" d="M227.713,6.463l-.287.919-.288-.919a4.9,4.9,0,0,0-2.153-2.772A4.9,4.9,0,0,0,227.137.919L227.426,0l.287.918a4.893,4.893,0,0,0,2.156,2.773,4.894,4.894,0,0,0-2.156,2.772" transform="translate(27.48 0)" fill="#f8b555"/>
    <path id="Trazado_138247" data-name="Trazado 138247" d="M136.65,109.7c.838.829,2.968.416,2.968.416s.3-3.663.506-5.712c.056-.543.1-.973.138-1.191.164-1.046-1.9-6.517-1.9-6.517l-4.972,2.63c-.192,1.294,2.01,3.951,2.01,3.951a13.078,13.078,0,0,0,.843,2.588c.065.156.1.252.1.252a.556.556,0,0,0-.083-.052.776.776,0,0,0-.891.167Z" transform="translate(16.291 11.811)" fill="#fb9988"/>
    <path id="Trazado_138248" data-name="Trazado 138248" d="M135.419,106.418l1.278,3.458c.754.751,2.558.488,2.907.429a.187.187,0,0,0,.055-.011s.027-.283.067-.754c.033-.371.07-.849.119-1.387.1-1.16.228-2.562.325-3.573.057-.541.1-.971.136-1.188a2.211,2.211,0,0,0-.042-.628,50.132,50.132,0,0,0-1.856-5.887l-.57-1.082-.288-.543-4.542,2.361.416.521.011,1.371c-.193,1.3,2.011,3.953,2.011,3.953A8.326,8.326,0,0,0,136,105.3l.165.434c.053.12.093.228.129.313s.061.151.082.192a.277.277,0,0,0,.021.058.481.481,0,0,0-.083-.044.775.775,0,0,0-.891.169m2.1,2.349a4.684,4.684,0,0,0-.512-1.648,1.111,1.111,0,0,0,.577-.309,1.046,1.046,0,0,0,.229-.293.9.9,0,0,0,.08-.162,2.631,2.631,0,0,0-.036-1.619c-.149-.536-.7-1.065-.509-1.58a6.055,6.055,0,0,0,.37-1.821,17.666,17.666,0,0,0,.945,3.451,7.949,7.949,0,0,0-.46,2.232c-.019.3-.028.594-.024.886,0,.241.011.488.029.722-.251.018-.439.125-.689.141" transform="translate(16.246 11.634)" fill="#fdbd8e"/>
    <path id="Trazado_138249" data-name="Trazado 138249" d="M137.169,95.252l.288.544.57,1.081a50.1,50.1,0,0,1,1.856,5.888,35.572,35.572,0,0,1-3.743-6.979Z" transform="translate(16.628 11.634)" fill="#ffdaba"/>
    <path id="Trazado_138250" data-name="Trazado 138250" d="M141.077,101.439l-2.907,1.2-5.059,2.082-7.9-14.358-6-10.908,5.1-23.121.345-14.3s7.626,4.116,8.289,9.144S134.73,84.2,135.3,86.218s5.78,15.221,5.78,15.221" transform="translate(14.56 5.134)" fill="#ff9300"/>
    <path id="Trazado_138251" data-name="Trazado 138251" d="M137.516,101.478l-5.059,2.083-7.9-14.359,3.729-9.246V63.685a103.251,103.251,0,0,0,.89-12.165c.555,3.238,1.466,9.866.314,13.281l.462,16.619s6.672,14.826,7.563,20.058" transform="translate(15.214 6.293)" fill="#cf691f"/>
    <path id="Trazado_138252" data-name="Trazado 138252" d="M146.594,190.4h-7.907c-1.708,0-5.236-3.021-5.236-3.021a14.813,14.813,0,0,1-1.936,2.96c-.911.91-1.166-9.681-1.166-9.681l5.063.76,9.852,5.846,1.882,1.119a1.083,1.083,0,0,1-.553,2.016" transform="translate(15.921 22.066)" fill="#6c3509"/>
    <path id="Trazado_138253" data-name="Trazado 138253" d="M145.264,187.264c-10.794,3.537-14.915-6.606-14.915-6.606h5.008Z" transform="translate(15.921 22.066)" fill="#fdbd8e"/>
    <path id="Trazado_138254" data-name="Trazado 138254" d="M100.217,189.347l-7.193-3.282c-1.554-.709-3.509-4.923-3.509-4.923a14.723,14.723,0,0,1-2.989,1.889c-1.207.45,2.957-9.29,2.957-9.29l4.292,2.794,6.534,9.408,1.249,1.8a1.084,1.084,0,0,1-1.341,1.606" transform="translate(10.541 21.221)" fill="#6c3509"/>
    <path id="Trazado_138255" data-name="Trazado 138255" d="M99.964,185.942c-11.288-1.265-10.826-12.2-10.826-12.2l4.557,2.079Z" transform="translate(10.887 21.221)" fill="#fdbd8e"/>
    <path id="Trazado_138256" data-name="Trazado 138256" d="M132.246,76.49l.845,50.372L95.444,188.5l-7.487-2.445s16.7-43.326,18.054-44.707,8.005-11.408,8.005-11.408l.134-47.666Z" transform="translate(10.743 9.343)" fill="#1f2123"/>
    <path id="Trazado_138257" data-name="Trazado 138257" d="M124.005,76.49s13.211,46.164,13.485,49.351,3.55,67.541,3.55,67.541l-8.86.76s-10.013-55.55-9.728-64.658c.075-2.394-15.216-18.467-16.026-31.141C105.6,85.424,109.092,77.4,109.092,77.4Z" transform="translate(12.983 9.343)" fill="#2e3032"/>
    <path id="Trazado_138258" data-name="Trazado 138258" d="M101.751,46.433c.235,1.073.715,2.869,1.359,6.213.5,2.583,1.157,5.505,1.865,8.478v0c2.149,9.042,4.751,18.6,4.693,20.821,0,0,11.556,6.94,20.912-.91,0,0,.062-11.949.517-14.111s2.992-18.56-2.7-23.341a21.154,21.154,0,0,0-6.191-3.859,9.363,9.363,0,0,0-.912-.282v0a5.381,5.381,0,0,0-1.382-.194l-.011,0c-.045,0-.082,0-.109,0a.109.109,0,0,1-.026,0,.177.177,0,0,0-.031,0h-7.592a32.625,32.625,0,0,0-3.245.958,26.41,26.41,0,0,0-6.954,4.265l-.012.011a1.473,1.473,0,0,0-.22.31c-.181.359-.15.752.04,1.627" transform="translate(12.408 4.794)" fill="#ff9300"/>
    <path id="Trazado_138259" data-name="Trazado 138259" d="M128.152,60.745l-.779-.039-2.1-.131a21.1,21.1,0,0,0-6.618.432c-.623.164-1.247.357-1.875.526a15.127,15.127,0,0,1-1.865.393,14.461,14.461,0,0,1-3.217.1,5.563,5.563,0,0,1-1.248-.233,2.844,2.844,0,0,1-.861-.439,1.907,1.907,0,0,1-.41-.438c-.071-.116-.1-.176-.1-.176l.15.131a1.956,1.956,0,0,0,.483.273,4.009,4.009,0,0,0,1.97.105,23.16,23.16,0,0,0,2.969-.609c.549-.149,1.105-.327,1.7-.531s1.224-.425,1.912-.607a11.394,11.394,0,0,1,4-.3,17.655,17.655,0,0,1,3.141.6c.867.246,1.552.487,2.024.659s.729.277.729.277" transform="translate(13.322 7.224)" fill="#cf691f"/>
    <path id="Trazado_138260" data-name="Trazado 138260" d="M129.989,28.907c-.035-.18-.089-.437-.176-.752a6.761,6.761,0,0,0-.4-1.084,4.623,4.623,0,0,0-.807-1.207,4.387,4.387,0,0,0-1.168-.875,5.894,5.894,0,0,0-1.082-.426c-.137-.04-.259-.072-.373-.1-.138-.13-.221-.2-.221-.2s.026.062.072.168c-.086-.018-.166-.033-.232-.045-.18-.031-.281-.044-.281-.044l.658.431c.086.2.2.456.322.754a13.447,13.447,0,0,1,.939,2.974,17.762,17.762,0,0,1,.147,3.139c0,.423-.007.768-.009,1.005s.007.374.007.374.054-.122.149-.342.222-.542.357-.952a8.93,8.93,0,0,0,.358-1.478,6.11,6.11,0,0,0,0-1.914,5.755,5.755,0,0,0-.64-1.815,7.72,7.72,0,0,0-.825-1.2,8.255,8.255,0,0,1,1.257,1.077,13.445,13.445,0,0,1,1.416,1.919l.417.637.162.233s-.018-.1-.049-.278" transform="translate(15.307 2.963)" fill="#85441d"/>
    <path id="Trazado_138261" data-name="Trazado 138261" d="M109.044,36.224a14.884,14.884,0,0,1-2.1,3.469c-1.865,2.355-4.475,4.362-7.473,4.557a10.323,10.323,0,0,0,3.952-2.649c-.182.118-.367.235-.555.339a10.031,10.031,0,0,1-6.915,1.1A8.631,8.631,0,0,0,97.882,39.4a12.724,12.724,0,0,0,.423-2.923,41.978,41.978,0,0,0-.692-7.083,68.2,68.2,0,0,1-.768-11.613c.105-3.093,1.109-6.447,3.456-8.585a5.267,5.267,0,0,1,7.859.867,4.937,4.937,0,0,1,.461.788c.2.421.3.746.044,1.131A8.33,8.33,0,0,1,107.727,13a6.9,6.9,0,0,0-1.682,3.377,4.344,4.344,0,0,1,.414.371,8.963,8.963,0,0,1,1.838,3,26.131,26.131,0,0,1,1.848,9.279,17.426,17.426,0,0,1-1.1,7.192" transform="translate(11.72 0.955)" fill="#85441d"/>
    <path id="Trazado_138262" data-name="Trazado 138262" d="M108.067,10.058a4.61,4.61,0,0,1-.635,1.4,3.807,3.807,0,0,0-3.346,2.242,9.381,9.381,0,0,0-.756,4.155,38.14,38.14,0,0,0,.471,6.366,39.494,39.494,0,0,1,.867,6.683,7.92,7.92,0,0,1-2.478,6.053,8.943,8.943,0,0,0-.66-3.9A8.567,8.567,0,0,1,97.788,39.4a12.714,12.714,0,0,0,.423-2.923A29.247,29.247,0,0,0,97.8,31.3c-.093-.636-.19-1.273-.278-1.91a68.3,68.3,0,0,1-.768-11.613c.105-3.093,1.109-6.447,3.456-8.585a5.361,5.361,0,0,1,4.578-1.273,5.092,5.092,0,0,1,1.292.447,5.394,5.394,0,0,1,1.99,1.693" transform="translate(11.814 0.955)" fill="#965326"/>
    <path id="Trazado_138263" data-name="Trazado 138263" d="M106.077,8.365a9.484,9.484,0,0,0-3.565,3.485,9.181,9.181,0,0,0-.606,2.187,20.736,20.736,0,0,0-.428,3.065,51.822,51.822,0,0,0,.443,5.4,17.181,17.181,0,0,1-.777,6.315,11.166,11.166,0,0,0-1.159-2.768A9.792,9.792,0,0,1,97.8,31.3c-.093-.636-.19-1.273-.278-1.91a68.3,68.3,0,0,1-.768-11.613c.105-3.093,1.109-6.447,3.456-8.585a5.361,5.361,0,0,1,4.578-1.273,5.092,5.092,0,0,1,1.292.447" transform="translate(11.814 0.955)" fill="#b5693c"/>
    <path id="Trazado_138264" data-name="Trazado 138264" d="M110.4,12.24a3.074,3.074,0,1,1-3.074-3.072A3.074,3.074,0,0,1,110.4,12.24" transform="translate(12.733 1.12)" fill="#fff0e7"/>
    <path id="Trazado_138265" data-name="Trazado 138265" d="M120.548,39.728l.82,9.214-4.055-2.062L115.2,44.262s-.027-3.356-.018-5h2.9a.213.213,0,0,0,.031,0,.114.114,0,0,0,.026,0c.027,0,.064,0,.109,0l.011,0a5.422,5.422,0,0,1,1.381.194v0c.272.068.575.159.913.282" transform="translate(14.068 4.794)" fill="#fff0e7"/>
    <path id="Trazado_138266" data-name="Trazado 138266" d="M117.822,48.009l-6.83-7.617c.012-1.131.108-1.556.21-4.356.109-3.116.223-6.034.223-6.034l8.787,3.474a20.737,20.737,0,0,0-1.571,7.086,57.729,57.729,0,0,1-.819,7.447" transform="translate(13.557 3.664)" fill="#fdbd8e"/>
    <path id="Trazado_138267" data-name="Trazado 138267" d="M120.191,33.476a20.737,20.737,0,0,0-1.571,7.086c-.277.118-.549.223-.8.312-1.02.356-4.3-2.554-6.636-4.839.109-3.116.222-6.034.222-6.034Z" transform="translate(13.58 3.664)" fill="#fb9988"/>
    <path id="Trazado_138268" data-name="Trazado 138268" d="M129.682,25.408q-.266,1.22-.688,2.56s.394,4.4-.068,5.387-3.424,7.133-6.533,6.754c-2.6-.318-8.942-4.118-11.15-6.384a2.614,2.614,0,0,1-.766-1.129c-.3-1.746-1.343-9.448-1.442-10.094-.264-1.745-1-14.97,14.993-11.291a7.7,7.7,0,0,1,5.8,5.778,19.272,19.272,0,0,1-.148,8.418" transform="translate(13.306 1.291)" fill="#fdbd8e"/>
    <path id="Trazado_138269" data-name="Trazado 138269" d="M132.785,17.806a6.82,6.82,0,0,1-.421,2.058,7.385,7.385,0,0,1-2.185,3.574,22.4,22.4,0,0,0-.239-5.348c-3.813,4.155-11.79,5.578-12.112,5.633,1.512-.466,1.964-3.489,1.964-3.489-1.821,4.251-9.805,5.125-9.805,5.125-1.911-1.552-3.24,1.387-3.24,1.387a36.488,36.488,0,0,1-1.6-3.281c-.111-.263-.215-.517-.309-.768a10.868,10.868,0,0,1-.549-2.058C103.225,14.258,108,8,114.144,6.218l.018,0c5.809-1.681,12.678-.141,15.914,3.068a6.678,6.678,0,0,1,1.376,1.908c.048.1.092.205.13.311.013.031.025.063.037.094a5,5,0,0,1,.314,1.884,6.631,6.631,0,0,1-.138,1.156,6.32,6.32,0,0,1,.99,3.17" transform="translate(12.72 0.675)" fill="#85441d"/>
    <path id="Trazado_138270" data-name="Trazado 138270" d="M131.583,11.5a4.862,4.862,0,0,1-1.093.442c-.77.2-1.578.218-2.348.423a4.909,4.909,0,0,0-2.418,1.5c-1.124,1.281-1.625,3.184-3.143,3.957a4.876,4.876,0,0,1-3.456.062,12.226,12.226,0,0,0-3.454-.714,6.516,6.516,0,0,0-4.647,2.726,5.467,5.467,0,0,1-1.115,1.2,3.581,3.581,0,0,1-2.208.474,8.4,8.4,0,0,1-3.412-.936,11.439,11.439,0,0,1,.667-6.049,14.338,14.338,0,0,1,9.189-8.371.053.053,0,0,1,.018,0,19.163,19.163,0,0,1,11.414.392,12.25,12.25,0,0,1,4.5,2.677,6.688,6.688,0,0,1,1.377,1.908c.048.1.091.205.13.31" transform="translate(12.72 0.675)" fill="#965326"/>
    <path id="Trazado_138271" data-name="Trazado 138271" d="M125.488,6.607c-1.875,1.534-2.833,4.218-5.1,5.063a9.036,9.036,0,0,1-4.172.073,5.489,5.489,0,0,0-4.046.7c-.578.454-.97,1.1-1.516,1.6a5.132,5.132,0,0,1-4.39.954,8.093,8.093,0,0,1-1.393-.4,14.339,14.339,0,0,1,9.188-8.371l.019,0a19.155,19.155,0,0,1,11.414.392" transform="translate(12.808 0.675)" fill="#b5693c"/>
    <path id="Trazado_138272" data-name="Trazado 138272" d="M128.744,26.353s.394,4.4-.068,5.387-3.425,7.133-6.533,6.754c-2.6-.316-8.943-4.118-11.15-6.384,2.7,1.876,9.909,6.663,12.02,5.928,2.619-.91,5.578-6.7,5.522-7.278s-.229-4.329-.229-4.329.529-1.187,1.126-2.638c-.178.814-.405,1.668-.688,2.56" transform="translate(13.557 2.906)" fill="#ffdaba"/>
    <path id="Trazado_138273" data-name="Trazado 138273" d="M111.5,30.943a6.118,6.118,0,0,1-4.251-2.345,4.956,4.956,0,0,1-.423-.632c-.573-1.04-.738-4.646.738-5.483,1.035-.587,1.788.265,2.144.827v0a3.315,3.315,0,0,1,.235.425Z" transform="translate(12.997 2.722)" fill="#ffdaba"/>
    <path id="Trazado_138274" data-name="Trazado 138274" d="M111.473,30.906a6.118,6.118,0,0,1-4.251-2.345c-.067-.1-.127-.2-.177-.292-.573-1.04-.737-4.645.738-5.482a1.415,1.415,0,0,1,1.9.486v0a3.315,3.315,0,0,1,.235.425Z" transform="translate(13.024 2.759)" fill="#fdbd8e"/>
    <path id="Trazado_138275" data-name="Trazado 138275" d="M107.028,25.086a1.547,1.547,0,0,0,.067.872,7.123,7.123,0,0,0,2.769,2.992,3.039,3.039,0,0,1-.406-1.894c.025-.224.073-.448.076-.673.008-.908-2.069-3-2.507-1.3" transform="translate(13.068 2.985)" fill="#fb9988"/>
    <path id="Trazado_138276" data-name="Trazado 138276" d="M110.41,29.295l-.066-.037c-.042-.025-.109-.059-.186-.112a2.59,2.59,0,0,1-.57-.514,2.333,2.333,0,0,1-.47-.962,2.013,2.013,0,0,1,.146-1.271,1.128,1.128,0,0,1,.084-.158l.024-.039c.006-.01,0,0,0,0h0s0,0,0-.007l-.019-.035-.038-.068c-.027-.045-.054-.091-.081-.135a5.594,5.594,0,0,0-.349-.5,5.291,5.291,0,0,0-.371-.428,3.322,3.322,0,0,0-.366-.34.8.8,0,0,0-.375-.166.6.6,0,0,0-.319.053.3.3,0,0,0-.141.129.246.246,0,0,0-.021.061.154.154,0,0,1,0-.064.283.283,0,0,1,.12-.165.642.642,0,0,1,.366-.114.994.994,0,0,1,.495.141,3.145,3.145,0,0,1,.451.322,5.1,5.1,0,0,1,.444.419,4.324,4.324,0,0,1,.412.508c.031.046.062.094.092.141l.045.073.058.1.042.072c-.011.025-.027.048-.04.072l-.058.1a1.016,1.016,0,0,0-.073.138,2.133,2.133,0,0,0-.186,1.124,2.433,2.433,0,0,0,.305.918,2.666,2.666,0,0,0,.438.558c.062.062.118.1.153.137l.054.047" transform="translate(13.104 2.983)" fill="#fd7d6f"/>
    <path id="Trazado_138277" data-name="Trazado 138277" d="M118.177,46.878l-5.188,4.055L108.1,40.219a32.2,32.2,0,0,1,3.244-.958Z" transform="translate(13.204 4.795)" fill="#fff0e7"/>
    <path id="Trazado_138278" data-name="Trazado 138278" d="M113.2,26.789c-.035-.18-.089-.437-.175-.751a6.737,6.737,0,0,0-.4-1.084,4.617,4.617,0,0,0-.806-1.207,4.373,4.373,0,0,0-1.169-.875,5.85,5.85,0,0,0-1.081-.428c-.137-.039-.26-.072-.374-.1-.138-.131-.221-.2-.221-.2s.026.062.072.168c-.086-.018-.165-.034-.231-.045-.18-.031-.281-.044-.281-.044s.249.162.656.431c.086.2.2.454.322.754a13.408,13.408,0,0,1,.939,2.974,17.648,17.648,0,0,1,.147,3.139c0,.422-.007.766-.009,1.005s.007.374.007.374l.149-.343c.094-.221.222-.543.357-.95a8.945,8.945,0,0,0,.358-1.479,6.076,6.076,0,0,0,0-1.914,5.711,5.711,0,0,0-.64-1.813A7.644,7.644,0,0,0,110,23.2a8.435,8.435,0,0,1,1.258,1.076,13.432,13.432,0,0,1,1.415,1.92l.419.637.16.233s-.018-.1-.049-.279" transform="translate(13.257 2.705)" fill="#85441d"/>
    <path id="Trazado_138279" data-name="Trazado 138279" d="M129.143,21.18s-2.04-2.732-3.179-1.651-.626,1.194-.626,1.194Z" transform="translate(15.295 2.354)" fill="#965326"/>
    <path id="Trazado_138280" data-name="Trazado 138280" d="M114.321,21.686s3.766-4.337,5.308-2.8c.9.9.275,1.513.275,1.513Z" transform="translate(13.963 2.267)" fill="#965326"/>
    <path id="Trazado_138281" data-name="Trazado 138281" d="M119.173,21.743a2.454,2.454,0,0,1-1.213,1.036,1.034,1.034,0,0,0-.771-.4c-.733,0-1.327.955-1.327,2.132s.595,2.133,1.327,2.133,1.329-.955,1.329-2.133a3.173,3.173,0,0,0-.158-1.008,3.932,3.932,0,0,0,.814-1.763" transform="translate(14.151 2.656)" fill="#161818"/>
    <path id="Trazado_138282" data-name="Trazado 138282" d="M124.478,24.465l.156-.008c.1-.006.24-.019.4-.022a2.15,2.15,0,0,1,.508.047c.185.036.4.093.65.132s.458.053.642.083a2.564,2.564,0,0,1,.5.129c.153.054.282.107.373.144l.145.057a1.5,1.5,0,0,0-.061-.145,1.914,1.914,0,0,0-.224-.367,1.564,1.564,0,0,0-.512-.433,2.331,2.331,0,0,0-.747-.235,2.623,2.623,0,0,0-.768-.021,1.47,1.47,0,0,0-.635.242,1.9,1.9,0,0,0-.325.279c-.068.073-.1.117-.1.117" transform="translate(15.204 2.908)" fill="#161818"/>
    <path id="Trazado_138283" data-name="Trazado 138283" d="M114.732,23.158a2.73,2.73,0,0,0,2.931,1.186,2.732,2.732,0,0,0-2.931-1.186" transform="translate(14.013 2.821)" fill="#fff0e7"/>
    <path id="Trazado_138284" data-name="Trazado 138284" d="M121.692,28.621a2.391,2.391,0,0,0-1-.261,3.324,3.324,0,0,0,1.811,1.747.38.38,0,0,0,.419-.039,3.87,3.87,0,0,0,1.145-1.019.733.733,0,0,0,.147-.273c.08-.336-.151-.261-.35-.183a3.129,3.129,0,0,1-2.172.028" transform="translate(14.741 3.463)" fill="#fb9988"/>
    <path id="Trazado_138285" data-name="Trazado 138285" d="M122.407,30.547c.205-.183.434-.338.644-.517a5.068,5.068,0,0,0,.711-.727c-1.091-.752-1.08-1.891-1.026-3.181a3.759,3.759,0,0,1,1.008-2.408,3.673,3.673,0,0,1,.34-.321,1.336,1.336,0,0,1,.377-.21c-.067.077-.113.166-.174.246a7.017,7.017,0,0,0-.461.622,4.693,4.693,0,0,0-.351.7,4.6,4.6,0,0,0-.327,1.529,3.792,3.792,0,0,0,.246,1.512,2.987,2.987,0,0,0,1.093,1.409s-.746.869-.819.939a3.932,3.932,0,0,1-.618.488,1.368,1.368,0,0,1-.735.291.44.44,0,0,1-.238-.07.955.955,0,0,0,.129-.1c.017-.016.034-.034.049-.05a2.075,2.075,0,0,1,.152-.147" transform="translate(14.911 2.831)" fill="#fd7d6f"/>
    <path id="Trazado_138286" data-name="Trazado 138286" d="M119.442,32.771a3.184,3.184,0,0,0,2.65.08,1.366,1.366,0,0,1-1.212.653,2.258,2.258,0,0,1-1.439-.733" transform="translate(14.589 4.003)" fill="#fd7d6f"/>
    <path id="Trazado_138287" data-name="Trazado 138287" d="M116.7,30.706a7.967,7.967,0,0,0,7.343,1.008,11.678,11.678,0,0,1-4.009-.009,9.092,9.092,0,0,1-3.334-1" transform="translate(14.254 3.75)" fill="#fd7d6f"/>
    <path id="Trazado_138288" data-name="Trazado 138288" d="M125.248,29.2c.175.466,1.183.52,2.252.12s1.794-1.1,1.618-1.57-1.182-.521-2.251-.12-1.794,1.1-1.619,1.57" transform="translate(15.295 3.342)" fill="#fb9988"/>
    <path id="Trazado_138289" data-name="Trazado 138289" d="M113.264,27.139c-.183.7.976,1.613,2.589,2.03s3.067.185,3.249-.518-.976-1.613-2.589-2.03-3.067-.186-3.249.518" transform="translate(13.832 3.226)" fill="#fb9988"/>
    <path id="Trazado_138290" data-name="Trazado 138290" d="M128.579,20.715a4.071,4.071,0,0,0-4.021,3.474,2.634,2.634,0,0,0-1.955.043,4.449,4.449,0,0,0-8.573-1.081l-5.867-.957-.11.674,5.777.944a4.45,4.45,0,1,0,8.794,1.151,1.951,1.951,0,0,1,1.894-.008,4.067,4.067,0,1,0,4.06-4.241m-10.4,7.8a3.77,3.77,0,1,1,3.77-3.77,3.774,3.774,0,0,1-3.77,3.77m10.4-.347a3.387,3.387,0,1,1,3.387-3.387,3.39,3.39,0,0,1-3.387,3.387" transform="translate(13.198 2.479)" fill="#fff0e7"/>
    <path id="Trazado_138291" data-name="Trazado 138291" d="M121.162,79.248l-.472,3.77a3.77,3.77,0,0,0,3.27,4.206l2.339.293.2-1.555-2.339-.294a2.2,2.2,0,0,1-1.908-2.454l.471-3.772a2.2,2.2,0,0,1,2.454-1.908l2.34.293.194-1.558-2.339-.293a3.773,3.773,0,0,0-4.206,3.271" transform="translate(14.737 9.276)" fill="#005584"/>
    <path id="Trazado_138292" data-name="Trazado 138292" d="M123.873,77.182a2.29,2.29,0,0,1,.423.415,2.093,2.093,0,0,1,.361.677,13.056,13.056,0,0,1,2.8,1.638c.282.471-.885,2.7-1.178,3.152a13.334,13.334,0,0,1-2.794,3c-.883.471-7.009-2.277-7.009-2.277l1.716-6.6s5.055-.469,5.678,0" transform="translate(14.227 9.402)" fill="#fdbd8e"/>
    <path id="Trazado_138293" data-name="Trazado 138293" d="M123.8,77.529a2.066,2.066,0,0,1,.361.677,5.962,5.962,0,0,0-1.3.3,6.266,6.266,0,0,1-.911.571s-1.443-.621-1.4-.75.774-.367.774-.367l1.054.132a7.032,7.032,0,0,1,1.424-.561" transform="translate(14.724 9.469)" fill="#fb9988"/>
    <path id="Trazado_138294" data-name="Trazado 138294" d="M122.12,77.109a3.766,3.766,0,0,0-.717,1.062,3.563,3.563,0,0,0-.249.766c.357.173.724.33.724.33a6.267,6.267,0,0,0,.911-.571.336.336,0,0,1,.14-.07,2.212,2.212,0,0,1,.848-.835,2.182,2.182,0,0,1,1.334-.258l2.534.336.246-1.645-2.584-.247a3.765,3.765,0,0,0-3.187,1.132" transform="translate(14.798 9.276)" fill="#005584"/>
    <path id="Trazado_138295" data-name="Trazado 138295" d="M126.428,88.683l7.6,1.207a1.154,1.154,0,0,0,1.321-.958l1.924-12.113L127.4,75.25,125.47,87.364a1.154,1.154,0,0,0,.958,1.32" transform="translate(15.323 9.191)" fill="#006aab"/>
    <path id="Trazado_138296" data-name="Trazado 138296" d="M89.658,83.251c1.289,2.4,30.251,6.456,30.251,6.456l.374-1.6,1.457-6.226.543-2.317-19.409-4.55s3.013-12.788,3.847-19.06a59.277,59.277,0,0,0,0-13.334c-4.083.774-7.489,5.311-10.167,11.1-5.32,11.5-7.756,27.942-6.9,29.538" transform="translate(10.93 5.205)" fill="#ff9300"/>
    <path id="Trazado_138297" data-name="Trazado 138297" d="M96.938,73.831a2.835,2.835,0,0,0,2.461,1.39s-1.6,3.9-.98,3.775,2.41-3.025,2.41-3.025l20.013,4.6.542-2.317-19.409-4.55s4.326-19.532,4.188-20.361c-.2-1.192-5.773,19.623-5.773,19.623s-4.312-.615-3.453.862" transform="translate(11.826 6.51)" fill="#cf691f"/>
    <path id="Trazado_138298" data-name="Trazado 138298" d="M89.658,82.043c1.289,2.4,30.251,6.456,30.251,6.456l.374-1.6c-7.462-1.15-27.033-4.252-28.227-5.346-1.112-1.019,1.9-18.157,4.5-29.045-5.32,11.5-7.756,27.942-6.9,29.538" transform="translate(10.93 6.413)" fill="#ffb800"/>
  </g>
</svg>
