<svg xmlns="http://www.w3.org/2000/svg" width="486" height="293" viewBox="0 0 486 293">
  <g id="Grupo_69504" data-name="Grupo 69504" transform="translate(-2268 8804)">
    <rect id="Rect치ngulo_10380" data-name="Rect치ngulo 10380" width="486" height="293" rx="22" transform="translate(2268 -8804)" fill="#f6dcbe"/>
    <path id="Rect치ngulo_10381" data-name="Rect치ngulo 10381" d="M0,0H486a0,0,0,0,1,0,0V24a22,22,0,0,1-22,22H21A21,21,0,0,1,0,25V0A0,0,0,0,1,0,0Z" transform="translate(2268 -8557)" fill="#d44f4a"/>
    <path id="Trazado_160915" data-name="Trazado 160915" d="M1.514-7.227a18.734,18.734,0,0,1,.745-5.322,14.045,14.045,0,0,1,2.2-4.474,8.2,8.2,0,0,1,3.149-2.7l.684,1.9a8.5,8.5,0,0,0-2.783,4.077A18.878,18.878,0,0,0,4.5-7.3v.378a19.239,19.239,0,0,0,.989,6.47,8.662,8.662,0,0,0,2.8,4.138L7.6,5.554A8.208,8.208,0,0,1,4.51,2.924,13.81,13.81,0,0,1,2.319-1.428,18.622,18.622,0,0,1,1.514-6.58ZM31.165-8.484a10.708,10.708,0,0,1-.806,4.327,7.429,7.429,0,0,1-2.234,2.948l2.954,2.319L28.748,3.174,24.963.134a8.01,8.01,0,0,1-1.343.11A7.394,7.394,0,0,1,19.678-.818a7.055,7.055,0,0,1-2.686-3.033,10.422,10.422,0,0,1-.964-4.535v-.879a10.673,10.673,0,0,1,.946-4.62,7.044,7.044,0,0,1,2.673-3.064A7.354,7.354,0,0,1,23.6-18.018a7.354,7.354,0,0,1,3.949,1.068,7.044,7.044,0,0,1,2.673,3.064,10.643,10.643,0,0,1,.946,4.608ZM27.454-9.29a7.479,7.479,0,0,0-1-4.248A3.262,3.262,0,0,0,23.6-14.99a3.263,3.263,0,0,0-2.844,1.434,7.394,7.394,0,0,0-1.013,4.205v.867a7.573,7.573,0,0,0,1,4.224,3.253,3.253,0,0,0,2.881,1.5,3.224,3.224,0,0,0,2.832-1.447,7.529,7.529,0,0,0,1-4.218Zm19.25,3.1H39.832V-9.033H46.7ZM69.836-5.127l2.393-12.646h3.65L71.936,0H68.25L65.356-11.89,62.463,0H58.777L54.834-17.773h3.65l2.4,12.622,2.93-12.622h3.1ZM89.929-6.946a17.777,17.777,0,0,1-.793,5.31,14.414,14.414,0,0,1-2.283,4.5,8.224,8.224,0,0,1-3.186,2.686l-.684-1.868A8.584,8.584,0,0,0,85.718-.342,18.654,18.654,0,0,0,86.755-6.6v-.647a19.076,19.076,0,0,0-.995-6.433,8.948,8.948,0,0,0-2.777-4.175l.684-1.868A8.227,8.227,0,0,1,86.8-17.114a14.228,14.228,0,0,1,2.283,4.407A17.65,17.65,0,0,1,89.929-7.5Z" transform="translate(2466 -8525)" fill="#fff"/>
    <g id="Grupo_69453" data-name="Grupo 69453" transform="translate(886.43 234.949)">
      <path id="Trazado_156252" data-name="Trazado 156252" d="M2379.015,145.158a68.41,68.41,0,0,0-17.894-21.657c-5.8-4.6-17.2-13.66-34.068-13.867-18.206-.223-30.613,10.015-34.076,12.962a55.479,55.479,0,0,0-15.307,21.257c-.052,3.384-.063,34.575,23.146,50.5a47.264,47.264,0,0,0,24.76,8.45c17.538.729,29.774-9.051,33.434-12.069,19.923-16.429,20.047-41.8,20-45.581" transform="translate(-705.097 -9058.716)" fill="#9f1d2e"/>
      <path id="Trazado_156253" data-name="Trazado 156253" d="M2394.107,123.494a31.726,31.726,0,0,0-2.087-2.785c-10.825-12.9-28.991-13.456-32.715-13.569-3.317-.1-21.059-.639-33.62,11.458a36.281,36.281,0,0,0-3.128,3.425c13,6.223,40.354,15.257,71.549,1.471" transform="translate(-735.996 -9056.979)" fill="#fff5f0"/>
      <path id="Trazado_156254" data-name="Trazado 156254" d="M2337.237,294.949c-13.67-8.729-31.216-3.2-41.265,1.372a59.346,59.346,0,0,0,6.289,11.475,48.726,48.726,0,0,0,14.272,13.82c8.508,5.282,17.792,6.06,21.106,6.231,18.719.969,32.181-10.548,34.675-12.764a51.271,51.271,0,0,0,12.708-17.466,46.249,46.249,0,0,0-47.785-2.667" transform="translate(-717.697 -9182.556)" fill="#dd3d59"/>
      <path id="Trazado_156255" data-name="Trazado 156255" d="M2367.774,74.216a54.609,54.609,0,0,1,12.1-3.066,63.429,63.429,0,0,1,12.536-.562c1.049.08,2.1.148,3.143.279,1.047.115,2.088.286,3.127.456a47.269,47.269,0,0,1,6.132,1.561,38.15,38.15,0,0,1,5.793,2.527,30.239,30.239,0,0,1,2.664,1.683,25.689,25.689,0,0,1,2.45,1.947,59.267,59.267,0,0,0-5.663-2.416,60.158,60.158,0,0,0-5.827-1.689c-1.971-.435-3.952-.8-5.95-1.071-1-.112-2-.259-3.008-.333-1-.112-2.013-.167-3.021-.236a118.922,118.922,0,0,0-12.177-.029c-4.079.185-8.164.514-12.3.949" transform="translate(-767.119 -9031.777)" fill="#dc9b7d"/>
      <path id="Trazado_156256" data-name="Trazado 156256" d="M2349.039,413.387a57.332,57.332,0,0,0,6.044,3.643,54.351,54.351,0,0,0,6.347,2.856,41.157,41.157,0,0,0,13.358,2.723c8.279-.053,15.374-1.958,25.509-9.222-7.005,8.161-15.384,11.788-25.568,11.934a35.2,35.2,0,0,1-14.132-3.479,41.077,41.077,0,0,1-6.213-3.687,32.815,32.815,0,0,1-5.344-4.768" transform="translate(-754.223 -9267.794)" fill="#dc9b7d"/>
    </g>
  </g>
</svg>
