<svg xmlns="http://www.w3.org/2000/svg" width="610" height="131.765" viewBox="0 0 610 131.765">
  <g id="Grupo_57050" data-name="Grupo 57050" transform="translate(-285 -742.527)">
    <path id="Trazado_153559" data-name="Trazado 153559" d="M47.013,0H562.987C588.952,0,610,28.294,610,63.2v5.37c0,34.9-21.048,63.2-47.013,63.2H47.013C21.048,131.765,0,103.47,0,68.567V63.2C0,28.294,21.048,0,47.013,0Z" transform="translate(285 742.527)" fill="#d44f4a"/>
    <g id="Grupo_56999" data-name="Grupo 56999" transform="translate(352.611 793.508)">
      <path id="Trazado_102209" data-name="Trazado 102209" d="M44.3-1184.252h0a1.766,1.766,0,0,0,.516,1.246l11.891,11.89-11.891,11.891a1.765,1.765,0,0,0-.516,1.246h0a1.761,1.761,0,0,0,3.007,1.245l14.382-14.382L47.305-1185.5A1.762,1.762,0,0,0,44.3-1184.252Z" transform="translate(-44.298 1186.017)" fill="#fff"/>
    </g>
    <g id="Grupo_57013" data-name="Grupo 57013" transform="translate(827.389 823.31) rotate(180)">
      <path id="Trazado_102209-2" data-name="Trazado 102209" d="M0,1.765H0A1.766,1.766,0,0,0,.516,3.011L12.407,14.9.516,26.792A1.765,1.765,0,0,0,0,28.038H0a1.761,1.761,0,0,0,3.007,1.245L17.389,14.9,3.007.519A1.762,1.762,0,0,0,0,1.765Z" fill="#fff"/>
    </g>
  </g>
</svg>
