<svg xmlns="http://www.w3.org/2000/svg" width="486" height="293" viewBox="0 0 486 293">
  <g id="Grupo_69506" data-name="Grupo 69506" transform="translate(-2268 8051)">
    <rect id="Rect치ngulo_10384" data-name="Rect치ngulo 10384" width="486" height="293" rx="22" transform="translate(2268 -8051)" fill="#f6dcbe"/>
    <path id="Rect치ngulo_10385" data-name="Rect치ngulo 10385" d="M0,0H486a0,0,0,0,1,0,0V24a22,22,0,0,1-22,22H21A21,21,0,0,1,0,25V0A0,0,0,0,1,0,0Z" transform="translate(2268 -7804)" fill="#d44f4a"/>
    <path id="Trazado_160917" data-name="Trazado 160917" d="M1.514-7.227a18.734,18.734,0,0,1,.745-5.322,14.045,14.045,0,0,1,2.2-4.474,8.2,8.2,0,0,1,3.149-2.7l.684,1.9a8.5,8.5,0,0,0-2.783,4.077A18.878,18.878,0,0,0,4.5-7.3v.378a19.239,19.239,0,0,0,.989,6.47,8.662,8.662,0,0,0,2.8,4.138L7.6,5.554A8.208,8.208,0,0,1,4.51,2.924,13.81,13.81,0,0,1,2.319-1.428,18.622,18.622,0,0,1,1.514-6.58ZM16.589,0V-17.773h6.226a8.175,8.175,0,0,1,4.907,1.239A4.237,4.237,0,0,1,29.395-12.9a4.016,4.016,0,0,1-.671,2.3,3.878,3.878,0,0,1-1.868,1.459A3.752,3.752,0,0,1,29.01-7.764,4.078,4.078,0,0,1,29.8-5.225a4.691,4.691,0,0,1-1.636,3.882A7.364,7.364,0,0,1,23.5,0Zm3.662-7.739v4.8h3.137a3.027,3.027,0,0,0,2.02-.616,2.114,2.114,0,0,0,.726-1.7,2.232,2.232,0,0,0-2.527-2.478Zm0-2.588h2.71q2.771-.049,2.771-2.209a2.042,2.042,0,0,0-.7-1.74,3.692,3.692,0,0,0-2.216-.531H20.251ZM45.4-6.189H38.525V-9.033H45.4ZM59.473-17.773,64.038-4.883l4.541-12.891h4.81V0H69.714V-4.858l.366-8.386L65.283,0H62.769L57.983-13.232l.366,8.374V0H54.688V-17.773ZM89.441-6.189H82.568V-9.033h6.873Zm12.952-.073V0H98.73V-17.773h6.934a8.022,8.022,0,0,1,3.522.732,5.4,5.4,0,0,1,2.338,2.081,5.8,5.8,0,0,1,.818,3.07,5.1,5.1,0,0,1-1.788,4.12,7.448,7.448,0,0,1-4.95,1.508Zm0-2.966h3.271a3.217,3.217,0,0,0,2.216-.684,2.486,2.486,0,0,0,.763-1.953,2.932,2.932,0,0,0-.769-2.112,2.873,2.873,0,0,0-2.124-.83h-3.357Zm24.536,2.283a17.777,17.777,0,0,1-.793,5.31,14.414,14.414,0,0,1-2.283,4.5,8.224,8.224,0,0,1-3.186,2.686l-.684-1.868a8.584,8.584,0,0,0,2.734-4.028A18.654,18.654,0,0,0,123.755-6.6v-.647a19.076,19.076,0,0,0-.995-6.433,8.948,8.948,0,0,0-2.777-4.175l.684-1.868a8.227,8.227,0,0,1,3.131,2.612,14.228,14.228,0,0,1,2.283,4.407,17.65,17.65,0,0,1,.848,5.212Z" transform="translate(2447 -7772)" fill="#fff"/>
    <g id="Grupo_69456" data-name="Grupo 69456" transform="translate(1181.334 831.752)">
      <path id="Trazado_156257" data-name="Trazado 156257" d="M645.287,932.908c5.319.585,10.644,1.01,15.955,1.309,5.886.327,12.519.389,15.9.279,10.724-.227,18.846-1.938,31.625-3.422,10.65-1.258,21.4-1.881,32.084-2.643s21.382-1.473,32.1-2.049c5.356-.281,10.738-.458,16.124-.473,2.69.021,5.378.1,8.069.153,2.687.1,5.37.255,8.057.38,10.733.616,21.439,1.564,32.078,2.922,10.568,1.348,21.265,3.052,31.773,4.731,5.279.84,10.55,1.693,15.829,2.445a132.271,132.271,0,0,0,15.9,1.528l.036.458a91.8,91.8,0,0,1-16.151.352c-6.092-.318-11.635-.756-16.065-1.2-10.653-1.055-7.312-.686-31.908-3.45-10.607-1.209-21.189-2.516-31.8-3.462s-21.218-1.587-31.9-1.875a252,252,0,0,0-32.012,1.011q-7.97.832-15.875,2.172c-5.268.894-10.519,1.86-15.785,2.785-18.289,3.169-25.629,3.3-32.172,3.191A133.754,133.754,0,0,1,661,936.648a123.207,123.207,0,0,1-15.8-3.291Z" transform="translate(556.419 -9676.896)" fill="#9f1d2e"/>
      <path id="Trazado_156258" data-name="Trazado 156258" d="M839.528,1001.515c12.651,3.292,27.937,5.862,40.948,6.057,18.227.73,32.164-3.508,40.667-6.057-11.3,7.047-23.6,10.926-40.767,10.645-17.561-.364-33.376-6.1-40.848-10.645" transform="translate(452.927 -9717.159)" fill="#dc9b7d"/>
      <path id="Trazado_156259" data-name="Trazado 156259" d="M871.173,859.659a58.059,58.059,0,0,0,29.45,8.366c10.265.047,21.48-2.45,29.211-8.366-3.366,5.746-13.99,13.056-29.225,12.955-10.974-.455-22.678-4.238-29.436-12.955" transform="translate(436.075 -9641.614)" fill="#dc9b7d"/>
    </g>
  </g>
</svg>
