<svg xmlns="http://www.w3.org/2000/svg" xmlns:xlink="http://www.w3.org/1999/xlink" width="189.819" height="184.819" viewBox="0 0 189.819 184.819">
  <defs>
    <linearGradient id="linear-gradient" x1="0.037" y1="0.968" x2="1.103" y2="0.023" gradientUnits="objectBoundingBox">
      <stop offset="0" stop-color="#d4d4d4"/>
      <stop offset="1" stop-color="#fff"/>
    </linearGradient>
    <linearGradient id="linear-gradient-2" x1="0.029" y1="0.973" x2="1.361" y2="-0.324" gradientUnits="objectBoundingBox">
      <stop offset="0" stop-color="#fff"/>
      <stop offset="1" stop-color="#fff"/>
    </linearGradient>
  </defs>
  <g id="Grupo_69008" data-name="Grupo 69008" transform="translate(-810 -2589)">
    <g id="Grupo_57164" data-name="Grupo 57164" transform="translate(315 619)">
      <g id="Grupo_57028" data-name="Grupo 57028" transform="translate(-105 1254)">
        <g id="Grupo_57021" data-name="Grupo 57021" transform="translate(754.324 1979.525)">
          <rect id="Rectángulo_6318" data-name="Rectángulo 6318" width="189.819" height="184.819" rx="12" transform="translate(-154.324 -1263.525)" fill="url(#linear-gradient)"/>
          <rect id="Rectángulo_6319" data-name="Rectángulo 6319" width="175.106" height="170.106" rx="11.045" transform="translate(-146.968 -1256.169)" fill="url(#linear-gradient-2)"/>
        </g>
        <g id="Grupo_57027" data-name="Grupo 57027" transform="translate(528.54 1979.525)">
          <path id="Trazado_102240" data-name="Trazado 102240" d="M77.337-1225.534a7.435,7.435,0,0,1,5.847-2.682,7.649,7.649,0,0,1,5.678,2.222,7.645,7.645,0,0,1,2.205,5.624,16.117,16.117,0,0,1-2.131,7.346c-1.42,2.709-4.254,6.292-8.551,10.749l-5.469,5.74v18.166h27.478v-10.393H81.912l6.449-6.937q7.74-8.246,10.651-14.277a26.123,26.123,0,0,0,2.913-11.282,17.456,17.456,0,0,0-2.4-8.663,16.74,16.74,0,0,0-6.407-6.524,18.378,18.378,0,0,0-9.215-2.261,19.894,19.894,0,0,0-8.984,1.939v17.63A11.212,11.212,0,0,1,77.337-1225.534Z" fill="#ffc200"/>
          <path id="Trazado_102241" data-name="Trazado 102241" d="M74.916-1196.535l-3.275,3.273v14.893h3.275Z" fill="#cab264"/>
          <path id="Trazado_102242" data-name="Trazado 102242" d="M74.916-1219.137v-17.63a18.226,18.226,0,0,0-3.275,1.967v16.566h3.17C74.821-1218.518,74.916-1218.846,74.916-1219.137Z" fill="#c6a63e"/>
          <rect id="Rectángulo_6324" data-name="Rectángulo 6324" width="48.945" height="1.512" transform="translate(142.078 -1141.134)" fill="#ffc200"/>
          <g id="Grupo_57026" data-name="Grupo 57026">
            <path id="Trazado_102247" data-name="Trazado 102247" d="M74.916-1219.137a11.212,11.212,0,0,1,2.421-6.4A8.212,8.212,0,0,1,79-1226.992v-11.2a17.356,17.356,0,0,0-4.082,1.427Z" fill="#c6a63e"/>
            <path id="Trazado_102248" data-name="Trazado 102248" d="M79-1200.819l-4.082,4.284v18.166H79Z" fill="#c6a63e"/>
          </g>
        </g>
      </g>
    </g>
    <text id="Externas" transform="translate(905 2743.292)" fill="#686868" font-size="16" font-family="Roboto-Medium, Roboto" font-weight="500"><tspan x="-31.219" y="0">Externas</tspan></text>
    <g id="sitio-web" transform="translate(874 2635.136)">
      <g id="Grupo_69368" data-name="Grupo 69368" transform="translate(0 0)">
        <g id="Grupo_69367" data-name="Grupo 69367">
          <path id="Trazado_155595" data-name="Trazado 155595" d="M58,8.533H4.144A4.069,4.069,0,0,0,0,12.512V45.331a1.016,1.016,0,0,0,1.036.994H61.11a1.016,1.016,0,0,0,1.036-.994V12.512A4.069,4.069,0,0,0,58,8.533Zm2.073,35.8h-58V12.512a2.035,2.035,0,0,1,2.073-1.99H58a2.035,2.035,0,0,1,2.073,1.99Z" transform="translate(0 -8.533)" fill="#636363"/>
        </g>
      </g>
      <g id="Grupo_69370" data-name="Grupo 69370" transform="translate(0 35.804)">
        <g id="Grupo_69369" data-name="Grupo 69369">
          <path id="Trazado_155596" data-name="Trazado 155596" d="M61.11,315.733H1.036A1.016,1.016,0,0,0,0,316.728V321.7a4.069,4.069,0,0,0,4.144,3.979H58a4.069,4.069,0,0,0,4.144-3.979v-4.972A1.016,1.016,0,0,0,61.11,315.733ZM60.075,321.7A2.035,2.035,0,0,1,58,323.689H4.144a2.035,2.035,0,0,1-2.073-1.99v-3.977h58V321.7Z" transform="translate(0 -315.733)" fill="#636363"/>
        </g>
      </g>
      <g id="Grupo_69372" data-name="Grupo 69372" transform="translate(27.095 39.782)">
        <g id="Grupo_69371" data-name="Grupo 69371">
          <path id="Trazado_155597" data-name="Trazado 155597" d="M228.829,349.867h-5.967a.995.995,0,0,0,0,1.989h5.967a.995.995,0,0,0,0-1.989Z" transform="translate(-221.867 -349.867)" fill="#636363"/>
        </g>
      </g>
      <g id="Grupo_69374" data-name="Grupo 69374" transform="translate(3.978 3.979)">
        <g id="Grupo_69373" data-name="Grupo 69373">
          <path id="Trazado_155598" data-name="Trazado 155598" d="M87.282,42.667H35.176a1.02,1.02,0,0,0-1.042.995V75.487a1.02,1.02,0,0,0,1.042.995H87.282a1.02,1.02,0,0,0,1.042-.995V43.662A1.02,1.02,0,0,0,87.282,42.667ZM86.24,74.492H36.218V44.656H86.24Z" transform="translate(-34.134 -42.667)" fill="#636363"/>
        </g>
      </g>
      <g id="Grupo_69376" data-name="Grupo 69376" transform="translate(15.161 51.717)">
        <g id="Grupo_69375" data-name="Grupo 69375">
          <path id="Trazado_155599" data-name="Trazado 155599" d="M148.309,452.267H122.451a2.984,2.984,0,0,0,0,5.967h25.858a2.984,2.984,0,1,0,0-5.967Zm0,3.978H122.451a.994.994,0,1,1,0-1.989h25.858a.994.994,0,1,1,0,1.989Z" transform="translate(-119.467 -452.267)" fill="#636363"/>
        </g>
      </g>
      <g id="Grupo_69378" data-name="Grupo 69378" transform="translate(19.139 43.76)">
        <g id="Grupo_69377" data-name="Grupo 69377">
          <path id="Trazado_155600" data-name="Trazado 155600" d="M176.475,391.957c-3.3,0-4.973-2.342-4.973-6.962a1,1,0,0,0-.995-.995h-9.945a1,1,0,0,0-.995.995c0,4.62-1.673,6.962-4.973,6.962a.994.994,0,1,0,0,1.989h21.88a.994.994,0,1,0,0-1.989Zm-17.036,0a9.528,9.528,0,0,0,2.09-5.967h8.011a9.517,9.517,0,0,0,2.091,5.967Z" transform="translate(-153.601 -384.001)" fill="#636363"/>
        </g>
      </g>
      <g id="Grupo_69380" data-name="Grupo 69380" transform="translate(36.661 20.886)">
        <g id="Grupo_69379" data-name="Grupo 69379">
          <path id="Trazado_155601" data-name="Trazado 155601" d="M311.431,196.149l-2.4-2.4,1.336-1.336a.994.994,0,0,0-.417-1.656L300,187.773a.995.995,0,0,0-1.238,1.238l2.984,9.945a.994.994,0,0,0,1.656.418l1.406-1.407,2.4,2.4a.994.994,0,0,0,1.406,0l2.813-2.814A.993.993,0,0,0,311.431,196.149Zm-3.516,2.11-2.186-2.187a1.3,1.3,0,0,0-1.836,0l-.718.718-1.974-6.581,6.581,1.974-.77.77a1.127,1.127,0,0,0,0,1.592l2.307,2.307Z" transform="translate(-298.723 -187.731)" fill="#636363"/>
        </g>
      </g>
      <g id="Grupo_69382" data-name="Grupo 69382" transform="translate(14.001 7.957)">
        <g id="Grupo_69381" data-name="Grupo 69381">
          <path id="Trazado_155602" data-name="Trazado 155602" d="M139.776,76.8H111.929a1,1,0,0,0-.994.994v4.973a1,1,0,0,0,.994.995h27.847a1,1,0,0,0,.994-.995V77.795A1,1,0,0,0,139.776,76.8Zm-.995,4.973H112.923V78.789h25.858Z" transform="translate(-110.934 -76.8)" fill="#636363"/>
        </g>
      </g>
      <g id="Grupo_69384" data-name="Grupo 69384" transform="translate(17.749 18.897)">
        <g id="Grupo_69383" data-name="Grupo 69383">
          <path id="Trazado_155603" data-name="Trazado 155603" d="M154.018,170.667h-7.956a1,1,0,0,0-.994.994v3.978a1,1,0,0,0,.994.994h7.956a1,1,0,0,0,.995-.994v-3.978A1,1,0,0,0,154.018,170.667Zm-.995,3.978h-5.967v-1.989h5.967Z" transform="translate(-145.067 -170.667)" fill="#636363"/>
        </g>
      </g>
      <g id="Grupo_69386" data-name="Grupo 69386" transform="translate(14.001 7.957)">
        <g id="Grupo_69385" data-name="Grupo 69385">
          <path id="Trazado_155604" data-name="Trazado 155604" d="M139.776,76.8H111.929a1,1,0,0,0-.994.994v18.9a1,1,0,0,0,.994.995H135.6a1,1,0,0,0,.953-1.281l-1.259-4.2,4.192,1.258a.995.995,0,0,0,1.28-.953V77.795A1,1,0,0,0,139.776,76.8Zm-.995,14.375-4.681-1.4a1,1,0,0,0-1.238,1.239l1.406,4.686H112.923V78.789h25.858Z" transform="translate(-110.934 -76.8)" fill="#636363"/>
        </g>
      </g>
    </g>
  </g>
</svg>
