<svg xmlns="http://www.w3.org/2000/svg" width="486" height="293" viewBox="0 0 486 293">
  <g id="Grupo_69508" data-name="Grupo 69508" transform="translate(-2268 7298)">
    <rect id="Rect치ngulo_10388" data-name="Rect치ngulo 10388" width="486" height="293" rx="22" transform="translate(2268 -7298)" fill="#f6dcbe"/>
    <path id="Rect치ngulo_10389" data-name="Rect치ngulo 10389" d="M0,0H486a0,0,0,0,1,0,0V24a22,22,0,0,1-22,22H21A21,21,0,0,1,0,25V0A0,0,0,0,1,0,0Z" transform="translate(2268 -7051)" fill="#d44f4a"/>
    <path id="Trazado_160919" data-name="Trazado 160919" d="M1.514-7.227a18.734,18.734,0,0,1,.745-5.322,14.045,14.045,0,0,1,2.2-4.474,8.2,8.2,0,0,1,3.149-2.7l.684,1.9a8.5,8.5,0,0,0-2.783,4.077A18.878,18.878,0,0,0,4.5-7.3v.378a19.239,19.239,0,0,0,.989,6.47,8.662,8.662,0,0,0,2.8,4.138L7.6,5.554A8.208,8.208,0,0,1,4.51,2.924,13.81,13.81,0,0,1,2.319-1.428,18.622,18.622,0,0,1,1.514-6.58Zm27.722-7.581H23.792V0H20.129V-14.807H14.758v-2.966H29.236ZM45.789,0H42.126V-7.617H34.985V0H31.323V-17.773h3.662v7.2h7.141v-7.2h3.662ZM61.06-6.946a17.777,17.777,0,0,1-.793,5.31,14.414,14.414,0,0,1-2.283,4.5A8.224,8.224,0,0,1,54.8,5.554l-.684-1.868A8.584,8.584,0,0,0,56.848-.342,18.654,18.654,0,0,0,57.886-6.6v-.647a19.076,19.076,0,0,0-.995-6.433,8.948,8.948,0,0,0-2.777-4.175l.684-1.868a8.227,8.227,0,0,1,3.131,2.612,14.228,14.228,0,0,1,2.283,4.407A17.65,17.65,0,0,1,61.06-7.5Z" transform="translate(2480 -7019)" fill="#fff"/>
    <g id="Grupo_69460" data-name="Grupo 69460" transform="translate(1310.278 1423.262)">
      <path id="Trazado_156277" data-name="Trazado 156277" d="M290.605,1477.462c-10.975-12.972-28.631-29.606-54-36.812-25.958-7.373-34.62,2.333-78.748,1.719-47.372-.661-57.853-11.7-84.685-4.062-23.439,6.674-39.451,23.031-49.276,35.721,13.373,16.374,40.874,44.8,81.493,54.8,23.376,5.752,48.641,4.749,57.036,4.476,5.267-.172,23.285-.954,40.924-5.005,39.99-9.184,69.807-33.428,87.258-50.834" transform="translate(1043.667 -10065.439)" fill="#9f1d2e"/>
      <path id="Trazado_156278" data-name="Trazado 156278" d="M172.577,1528.385c-12.622-15.832,9.07-67.848,43.082-74.759a41.647,41.647,0,0,1,20.7,1.267c23.711,7.546,40,35.25,43.081,70.113-11.689,1.576-27.4,3.473-46.038,5.069-37.115,3.178-55.776,4.637-60.821-1.69" transform="translate(974.866 -10073.621)" fill="#dd3d59"/>
      <path id="Trazado_156279" data-name="Trazado 156279" d="M87.192,1423.171a91.936,91.936,0,0,1,15.2-8.106,130.307,130.307,0,0,1,17.05-6.286c2.606-.741,9.887-2.71,24.778-4.224a300.949,300.949,0,0,1,31.819-1.408c12.075.06,22.7.113,36.845,2.31a239.115,239.115,0,0,1,24.539,5.293c12.593,3.265,17.564,4.8,21.963,6.67a104.893,104.893,0,0,1,15.065,8.254,42.553,42.553,0,0,1,7.321,5.913,39.941,39.941,0,0,1,4,4.78,81.889,81.889,0,0,1-15.4,5.639,83.544,83.544,0,0,1-22.526,2.534c-25.607-.459-43.368-9.589-69.268-10.136-24.735-.523-44.6,7.041-68.987,7.039a75.192,75.192,0,0,1-20.837-2.816,73.915,73.915,0,0,1-13.726-5.43,83.045,83.045,0,0,1,12.172-10.024" transform="translate(1019.416 -10050.032)" fill="#fff5f0"/>
      <path id="Trazado_156280" data-name="Trazado 156280" d="M238.959,1565.1a87.808,87.808,0,0,1,13.938-4.224,93.094,93.094,0,0,1,14.571-1.9,64,64,0,0,1,14.15.422,56.476,56.476,0,0,1,8.4,1.953c-9.25,8.69-25.646,18.58-47.556,25.672-15.974,5.171-28.686,5.516-48.866,6.064-20.7.563-36.783,1-56.891-4.459A146.307,146.307,0,0,1,87.171,1564.2a26.233,26.233,0,0,1,6.072-2.689,27.951,27.951,0,0,1,9.081-1.056,59.789,59.789,0,0,1,13.993,2.028c11.617,3.418,43.867,7.711,67.312,8.321,2.016.052,38.514.859,55.33-5.7" transform="translate(1013.653 -10123.857)" fill="#fff5f0"/>
      <path id="Trazado_156281" data-name="Trazado 156281" d="M26.554,1430.3a57.834,57.834,0,0,0-5.4,3.825,57.046,57.046,0,0,0-4.853,4.29,49.287,49.287,0,0,0-7.861,9.969,43.432,43.432,0,0,0-2.879,5.643c-.449.962-.786,1.969-1.179,2.96-.191.5-.332,1.012-.506,1.517s-.353,1.012-.483,1.532a90.134,90.134,0,0,0-2.6,12.871,36.944,36.944,0,0,1-.314-13.529,35.777,35.777,0,0,1,1.73-6.676c.364-1.1.866-2.144,1.319-3.209.531-1.03,1.042-2.071,1.65-3.059a36.234,36.234,0,0,1,9.175-10.273,35.044,35.044,0,0,1,5.813-3.61,29.48,29.48,0,0,1,3.131-1.333,20.388,20.388,0,0,1,3.26-.919" transform="translate(1055 -10062.915)" fill="#dc9b7d"/>
      <path id="Trazado_156282" data-name="Trazado 156282" d="M503.672,1435.624a8.4,8.4,0,0,1,2.869.668,21.339,21.339,0,0,1,2.685,1.234,31.612,31.612,0,0,1,4.886,3.314,42.278,42.278,0,0,1,7.91,8.71,49.291,49.291,0,0,1,5.413,10.373,44.281,44.281,0,0,1,2.746,11.286c-1.891-3.4-3.614-6.759-5.455-10.023q-2.729-4.909-5.837-9.485a82.691,82.691,0,0,0-6.825-8.7c-1.241-1.369-2.538-2.7-3.911-3.96-.683-.638-1.4-1.241-2.127-1.839-.364-.3-.743-.581-1.13-.854a6.151,6.151,0,0,0-1.225-.727" transform="translate(816.096 -10065.44)" fill="#dc9b7d"/>
      <path id="Trazado_156283" data-name="Trazado 156283" d="M228.14,1369.841a47.135,47.135,0,0,1,12.124-4.116,63.566,63.566,0,0,1,12.777-1.326c2.147-.054,4.295.123,6.435.263,1.067.136,2.134.26,3.2.416.53.083,1.064.131,1.591.241l1.578.332a47.107,47.107,0,0,1,12.107,4.19c-4.277-.391-8.372-1.017-12.523-1.23-2.056-.207-4.13-.21-6.182-.351l-3.091-.05c-1.029-.051-2.059-.026-3.089-.011q-6.18.015-12.385.475c-4.147.288-8.291.695-12.537,1.167" transform="translate(946.788 -10031.65)" fill="#dc9b7d"/>
      <path id="Trazado_156284" data-name="Trazado 156284" d="M228.14,1649.549c4.471.745,8.855,1.433,13.239,1.987s8.746.957,13.105,1.129c1.089.035,2.179.073,3.267.065q.817.021,1.632,0l1.631-.031c2.176-.052,4.34-.225,6.509-.442s4.318-.6,6.481-1.023c2.159-.447,4.29-1.048,6.479-1.684a26.831,26.831,0,0,1-2.845,1.887,31.146,31.146,0,0,1-3.056,1.573,39.954,39.954,0,0,1-6.538,2.191,48.115,48.115,0,0,1-6.816,1.1c-.572.065-1.146.076-1.72.116s-1.149.062-1.722.07c-1.149.029-2.3,0-3.442-.021a64.5,64.5,0,0,1-13.527-2,53.116,53.116,0,0,1-12.676-4.912" transform="translate(946.788 -10166.91)" fill="#dc9b7d"/>
    </g>
  </g>
</svg>
