<svg xmlns="http://www.w3.org/2000/svg" width="486" height="293" viewBox="0 0 486 293">
  <g id="Grupo_69509" data-name="Grupo 69509" transform="translate(-2268 6944)">
    <rect id="Rect치ngulo_10390" data-name="Rect치ngulo 10390" width="486" height="293" rx="22" transform="translate(2268 -6944)" fill="#f6dcbe"/>
    <path id="Rect치ngulo_10391" data-name="Rect치ngulo 10391" d="M0,0H486a0,0,0,0,1,0,0V24a22,22,0,0,1-22,22H21A21,21,0,0,1,0,25V0A0,0,0,0,1,0,0Z" transform="translate(2268 -6697)" fill="#d44f4a"/>
    <path id="Trazado_160920" data-name="Trazado 160920" d="M1.514-7.227a18.734,18.734,0,0,1,.745-5.322,14.045,14.045,0,0,1,2.2-4.474,8.2,8.2,0,0,1,3.149-2.7l.684,1.9a8.5,8.5,0,0,0-2.783,4.077A18.878,18.878,0,0,0,4.5-7.3v.378a19.239,19.239,0,0,0,.989,6.47,8.662,8.662,0,0,0,2.8,4.138L7.6,5.554A8.208,8.208,0,0,1,4.51,2.924,13.81,13.81,0,0,1,2.319-1.428,18.622,18.622,0,0,1,1.514-6.58ZM30.542-5.92A6.289,6.289,0,0,1,28.424-1.4,7.438,7.438,0,0,1,23.389.244a6.688,6.688,0,0,1-5.377-2.3,9.435,9.435,0,0,1-1.959-6.317V-9.46a10.654,10.654,0,0,1,.9-4.517,6.769,6.769,0,0,1,2.582-3,7.232,7.232,0,0,1,3.9-1.044,7.246,7.246,0,0,1,4.956,1.648,6.759,6.759,0,0,1,2.173,4.626H26.9a3.712,3.712,0,0,0-.958-2.5,3.548,3.548,0,0,0-2.509-.775A3.112,3.112,0,0,0,20.7-13.7a7.354,7.354,0,0,0-.934,4.071v1.343a7.871,7.871,0,0,0,.873,4.211,3.054,3.054,0,0,0,2.753,1.331,3.615,3.615,0,0,0,2.533-.775,3.5,3.5,0,0,0,.958-2.4ZM47.412,0H43.75V-7.617H36.609V0H32.947V-17.773h3.662v7.2H43.75v-7.2h3.662ZM63.464-6.189H56.592V-9.033h6.873ZM81.97-4.663a1.879,1.879,0,0,0-.732-1.593A9.607,9.607,0,0,0,78.6-7.428a18.691,18.691,0,0,1-3.015-1.215q-3.027-1.636-3.027-4.407a4.292,4.292,0,0,1,.812-2.57A5.3,5.3,0,0,1,75.7-17.383a8.776,8.776,0,0,1,3.412-.635,7.988,7.988,0,0,1,3.394.69,5.4,5.4,0,0,1,2.313,1.947,5.1,5.1,0,0,1,.824,2.856H81.982a2.4,2.4,0,0,0-.769-1.9,3.161,3.161,0,0,0-2.161-.677,3.377,3.377,0,0,0-2.087.568,1.79,1.79,0,0,0-.745,1.5,1.715,1.715,0,0,0,.873,1.453,9.861,9.861,0,0,0,2.57,1.1,11.1,11.1,0,0,1,4.553,2.332,4.643,4.643,0,0,1,1.428,3.467A4.277,4.277,0,0,1,83.9-1.068,7.642,7.642,0,0,1,79.2.244a9.075,9.075,0,0,1-3.735-.751,5.911,5.911,0,0,1-2.57-2.057,5.268,5.268,0,0,1-.885-3.027h3.674q0,2.942,3.516,2.942a3.42,3.42,0,0,0,2.039-.531A1.728,1.728,0,0,0,81.97-4.663ZM102.588,0H98.926V-7.617H91.785V0H88.123V-17.773h3.662v7.2h7.141v-7.2h3.662ZM118.64-6.189h-6.873V-9.033h6.873ZM135.1-17.773h3.662v12.3a5.884,5.884,0,0,1-.751,3,5.1,5.1,0,0,1-2.118,2.008A6.616,6.616,0,0,1,132.8.244a6.288,6.288,0,0,1-4.395-1.434,5.211,5.211,0,0,1-1.575-4.059h3.687a2.858,2.858,0,0,0,.549,1.929A2.2,2.2,0,0,0,132.8-2.7a2.1,2.1,0,0,0,1.672-.72,3.043,3.043,0,0,0,.623-2.051ZM153.967-6.946a17.776,17.776,0,0,1-.793,5.31,14.414,14.414,0,0,1-2.283,4.5,8.224,8.224,0,0,1-3.186,2.686l-.684-1.868a8.584,8.584,0,0,0,2.734-4.028A18.654,18.654,0,0,0,150.793-6.6v-.647a19.076,19.076,0,0,0-.995-6.433,8.948,8.948,0,0,0-2.777-4.175l.684-1.868a8.227,8.227,0,0,1,3.131,2.612,14.228,14.228,0,0,1,2.283,4.407,17.65,17.65,0,0,1,.848,5.212Z" transform="translate(2434 -6665)" fill="#fff"/>
    <g id="Grupo_69461" data-name="Grupo 69461" transform="translate(884.622 51.223)">
      <path id="Trazado_156285" data-name="Trazado 156285" d="M928.178,1489.318c-10.982-12.981-18.294-23.779-43.681-30.989-25.976-7.376-34.643,2.336-78.8,1.721-47.4-.662-57.892-11.711-84.743-4.065-23.455,6.678-40.048,22.677-49.88,35.376,23.577,13.551,41.012,20.268,56.476,23.753,21.381,4.818,37.995,4.883,71.223,5.015,30.615.121,45.923.182,63.954-3.739,27.569-6,51.521-17.933,65.453-27.072" transform="translate(826.153 -8355.219)" fill="#9f1d2e"/>
      <path id="Trazado_156286" data-name="Trazado 156286" d="M746.489,1446.074c7.994-3.7,22.781-9.308,79.573-9.645,10.91-.065,24.586.058,41.394,1.206,26.987,1.842,36.7,4.6,44.475,7.77a101.216,101.216,0,0,1,21.645,11.766,73.425,73.425,0,0,1-21.109,10.605c-14.867,4.486-26.06,2.326-45.815.937-15.291-1.075-26.166-1.018-41.394-.937-44.77.236-59.873,6.925-83.19-3.215a76.427,76.427,0,0,1-13.334-7.363,95.141,95.141,0,0,1,17.755-11.124" transform="translate(796.05 -8346.401)" fill="#fff5f0"/>
      <path id="Trazado_156287" data-name="Trazado 156287" d="M886.462,1514.723c7.079.686,20.4,2.146,32.553,11.521a45.634,45.634,0,0,1,8.189,7.919A177.6,177.6,0,0,1,901.9,1544.28c-4.3,1.394-14.624,4.547-31.749,7.034-5.775.837-23.236,3.184-49.326,2.794-22.415-.336-44.347-.811-71.44-8.421-12.773-3.588-22.907-7.837-28.963-11.521a28.279,28.279,0,0,1,4.487-4.172,56.5,56.5,0,0,1,14.669-8.239c24.919-9.155,78.032-9.98,78.032-9.98s33.169-.515,68.856,2.947" transform="translate(800.391 -8385.731)" fill="#fff5f0"/>
      <path id="Trazado_156288" data-name="Trazado 156288" d="M865.95,1399.146c1.253-.486,2.533-.9,3.819-1.279s2.583-.725,3.886-1.049,2.616-.591,3.93-.87c1.316-.26,2.639-.482,3.962-.711a112.505,112.505,0,0,1,16.051-1.351,96.611,96.611,0,0,1,16.1,1.092q1.994.333,3.977.7c1.318.272,2.623.623,3.927.946l1.948.511c.643.2,1.281.417,1.917.639,1.272.439,2.537.885,3.783,1.375-1.347-.1-2.674-.244-3.995-.394-.662-.065-1.316-.166-1.976-.229l-1.985-.151-1.975-.171c-.659-.049-1.309-.144-1.97-.171q-1.979-.1-3.946-.225c-5.256-.25-10.5-.4-15.76-.3q-7.882.1-15.788.553c-5.276.3-10.552.692-15.9,1.091" transform="translate(724.413 -8324.19)" fill="#dc9b7d"/>
      <path id="Trazado_156289" data-name="Trazado 156289" d="M871.361,1647.087c2.605.8,5.218,1.449,7.837,2.023s5.245,1.047,7.876,1.43a106.386,106.386,0,0,0,31.659-.05,155.226,155.226,0,0,0,15.75-3.4,59.148,59.148,0,0,1-15.18,6.19,67.6,67.6,0,0,1-32.781.043,61.694,61.694,0,0,1-7.845-2.519c-1.271-.517-2.528-1.065-3.753-1.681a31.72,31.72,0,0,1-3.563-2.033" transform="translate(721.588 -8456.388)" fill="#dc9b7d"/>
      <path id="Trazado_156290" data-name="Trazado 156290" d="M625.807,1537.352a6.94,6.94,0,0,0,.558,1.618,14.336,14.336,0,0,0,.777,1.435c.3.454.576.9.916,1.32.168.21.307.429.477.635s.355.4.52.609a53.257,53.257,0,0,0,4.518,4.567c.388.376.823.716,1.229,1.079s.8.748,1.23,1.093c.858.7,1.66,1.464,2.523,2.181q.645.541,1.274,1.113c.423.377.828.786,1.265,1.154a27.458,27.458,0,0,1,2.49,2.486,25.737,25.737,0,0,1-3.416-.967,16.741,16.741,0,0,1-1.626-.673q-.8-.364-1.588-.761c-.259-.137-.528-.258-.78-.41l-.753-.46c-.506-.3-.994-.631-1.491-.95a33.594,33.594,0,0,1-2.792-2.209,20.615,20.615,0,0,1-4.464-5.7c-.141-.274-.268-.556-.4-.832s-.224-.582-.326-.875a10.953,10.953,0,0,1-.474-1.8,8.7,8.7,0,0,1-.1-1.866,6.115,6.115,0,0,1,.122-.918,3.92,3.92,0,0,1,.31-.865" transform="translate(850.019 -8399.099)" fill="#dc9b7d"/>
      <path id="Trazado_156291" data-name="Trazado 156291" d="M1239.184,1537.352a10.6,10.6,0,0,1-.208,3.678c-.113.611-.3,1.19-.463,1.786-.2.578-.4,1.156-.633,1.725a26.744,26.744,0,0,1-3.73,6.246,32.092,32.092,0,0,1-5.066,5.131c-.946.74-1.931,1.431-2.938,2.082a26.944,26.944,0,0,1-3.238,1.656,28.489,28.489,0,0,1,2.038-2.967c.681-.966,1.4-1.876,2.121-2.776,1.4-1.832,2.863-3.57,4.24-5.359,1.395-1.773,2.782-3.541,4.091-5.38.326-.46.644-.926.984-1.388.3-.475.656-.937.956-1.421.645-.96,1.261-1.937,1.847-3.013" transform="translate(538.054 -8399.099)" fill="#dc9b7d"/>
    </g>
  </g>
</svg>
